<svg width="46" height="46" viewBox="0 0 46 46" fill="none" xmlns="http://www.w3.org/2000/svg">
<path d="M45.9413 21.4398C45.0793 8.76547 34.1093 -0.807223 21.4389 0.0547913C15.1253 0.48383 9.58322 3.42413 5.714 7.82867L5.70219 7.82079C5.67464 7.85622 5.65102 7.89164 5.6274 7.92707C1.78573 12.3592 -0.375207 18.2476 0.0538321 24.5612C0.0931935 25.1634 0.164044 25.7538 0.250639 26.3403C0.250639 26.3679 0.258511 26.3915 0.262447 26.4191C0.32149 26.8048 0.388404 27.1905 0.463191 27.5684C0.463191 27.5763 0.463191 27.5841 0.467127 27.5881C0.537977 27.9305 0.612764 28.273 0.699359 28.6115C3.35625 39.2036 13.2793 46.7059 24.5602 45.9384C37.2307 45.0763 46.8073 34.1063 45.9453 21.432L45.9413 21.4398ZM40.9346 21.7823C41.0408 23.341 40.9424 24.8682 40.663 26.3403C40.663 26.3325 40.6551 26.3246 40.6551 26.3167C38.9862 22.2428 35.6877 19.2986 32.7907 17.6729C33.3772 10.769 31.0352 7.85622 28.3822 7.38388C28.3114 7.36814 28.2366 7.35633 28.1657 7.34846C26.0599 7.07686 24.1351 8.56472 23.8675 10.6706C23.5959 12.7764 25.0837 14.7012 27.1896 14.9688C27.3746 14.9924 27.5556 15.0003 27.7328 14.9964C27.7446 15.2286 27.7524 15.4766 27.7524 15.7364C25.3002 15.1302 23.0094 15.0082 20.9193 15.1971C20.136 15.2483 19.3567 15.3467 18.5773 15.4923C18.8371 13.1621 19.7148 10.5407 21.4113 8.6277C23.0527 6.77378 25.4931 5.71496 28.1539 5.98655C28.6578 6.03772 29.197 6.16368 29.6812 6.32506C29.7048 6.33293 29.7284 6.34081 29.7481 6.34474C35.9121 8.856 40.4504 14.709 40.9306 21.7823H40.9346ZM24.9027 25.2933C24.9027 25.2933 24.9027 25.2972 24.8987 25.3012C24.3516 26.0923 23.6982 26.8717 22.9307 27.6274C21.7813 26.4072 20.8603 25.0886 20.1596 23.7267C20.1242 23.6519 20.0848 23.585 20.0494 23.5102C20.0494 23.5102 20.0494 23.5063 20.0494 23.5024C19.6401 22.6325 19.2897 21.676 19.0181 20.6329C20.6516 20.2472 22.2537 20.1055 23.7848 20.1803C23.8675 20.1842 23.9462 20.1881 24.0289 20.1921H24.0367C24.9971 20.2708 25.9969 20.4479 27.0321 20.7313C26.548 22.3373 25.871 23.7976 25.0404 25.0847C24.9971 25.1516 24.9538 25.2185 24.9066 25.2894L24.9027 25.2933ZM17.0461 6.03379C17.0461 6.03379 17.0383 6.04559 17.0343 6.04953C14.3381 9.52908 13.4406 13.8549 13.48 17.177C7.2058 20.1212 5.85964 23.6047 6.77282 26.1396C6.79644 26.2104 6.82399 26.2773 6.85154 26.3443C7.67026 28.3005 9.92173 29.2255 11.878 28.4068C13.8343 27.5881 14.7592 25.3366 13.9405 23.3803C13.8697 23.2111 13.7831 23.0497 13.6926 22.8962C13.8894 22.7663 14.1019 22.6364 14.3302 22.5026C15.0308 24.9312 16.066 26.9819 17.2744 28.6981C17.7114 29.3475 18.1837 29.9734 18.6993 30.5756C16.5502 31.5163 13.8421 32.0674 11.3348 31.5557C8.91014 31.0598 6.77282 29.4774 5.67464 27.037C5.46602 26.5726 5.30464 26.0451 5.2023 25.5452C5.13932 25.1083 5.08815 24.6675 5.05666 24.2187C4.49773 15.9804 9.60684 8.64738 17.0461 6.03379V6.03379ZM24.2178 40.9355C19.3252 41.2701 14.7514 39.6012 11.2954 36.6333C15.6567 37.2277 19.8526 35.8422 22.7102 34.1457C28.398 38.1094 32.0901 37.5347 33.8298 35.4761C33.8771 35.421 33.9243 35.362 33.9676 35.3029C35.2547 33.6143 34.928 31.2054 33.2394 29.9183C31.5508 28.6312 29.1419 28.9579 27.8548 30.6465C27.7446 30.7921 27.6462 30.9495 27.5596 31.107C27.351 31.0007 27.1305 30.8826 26.9062 30.7527C28.6617 28.9303 29.9094 27.0055 30.7911 25.1004C31.1375 24.3959 31.4406 23.6716 31.7043 22.9238C33.5937 24.3172 35.4279 26.3836 36.2388 28.8122C37.022 31.1582 36.7229 33.8032 35.1563 35.9721C34.8611 36.3814 34.4832 36.7868 34.1014 37.1253C34.0975 37.1293 34.0896 37.1372 34.0857 37.1411C31.3461 39.2942 27.9532 40.6797 24.2217 40.9316L24.2178 40.9355Z" fill="url(#paint0_linear_30_1395)"/>
<path style="mix-blend-mode:overlay" opacity="0.9" d="M28.3822 7.37975C28.3113 7.36401 28.2365 7.3522 28.1657 7.34433C27.7917 7.29709 27.4257 7.30496 27.0754 7.36401C29.2757 8.56059 30.8777 11.8945 30.0353 18.4757C29.7559 20.6563 29.1064 22.7268 28.1735 24.6319C27.4139 26.2693 26.3826 27.9185 24.9971 29.5048C25.6623 30.0047 26.3117 30.4219 26.9061 30.7604C28.6616 28.938 29.9094 27.0132 30.7911 25.1081C31.7279 23.207 32.3734 21.1326 32.6529 18.952C33.6566 11.1191 31.1926 7.88358 28.3822 7.38369V7.37975Z" fill="url(#paint1_radial_30_1395)"/>
<g style="mix-blend-mode:overlay" opacity="0.8">
<path d="M30.0353 18.4718C30.8777 11.8945 29.2757 8.55666 27.0753 7.36008C26.9888 7.37189 26.9061 7.39157 26.8195 7.41125C28.9726 8.65113 30.5234 11.9811 29.6929 18.4718C29.4134 20.6524 28.764 22.7228 27.8311 24.6279C27.099 26.2102 26.1071 27.8044 24.7885 29.3434C24.8593 29.3985 24.9262 29.4497 24.9971 29.5009C26.3826 27.9146 27.4139 26.2614 28.1735 24.6279C29.1103 22.7268 29.7559 20.6524 30.0353 18.4718V18.4718Z" fill="white"/>
</g>
<path style="mix-blend-mode:overlay" opacity="0.5" d="M21.671 33.3937C21.4624 33.2362 21.2656 33.0709 21.0648 32.9056C17.8175 34.2596 13.3185 35.1098 8.84705 34.0707C9.57917 35.0036 10.3939 35.8656 11.2914 36.6331C15.6526 37.2275 19.8486 35.842 22.7062 34.1455C22.3677 33.9093 22.0213 33.6574 21.667 33.3898L21.671 33.3937Z" fill="url(#paint2_radial_30_1395)"/>
<path style="mix-blend-mode:overlay" opacity="0.6" d="M21.0688 32.9056C20.9704 32.823 20.8681 32.7403 20.7736 32.6576C17.5027 33.9644 12.98 34.7477 8.52039 33.6338C8.6306 33.7794 8.74081 33.929 8.85102 34.0707C13.3185 35.1099 17.8215 34.2596 21.0688 32.9056V32.9056Z" fill="url(#paint3_linear_30_1395)"/>
<path style="mix-blend-mode:overlay" opacity="0.9" d="M6.7767 26.1433C6.80032 26.2142 6.82787 26.2811 6.85542 26.348C7.00106 26.6944 7.19 27.0053 7.41829 27.2848C7.35531 24.7814 9.44147 21.723 15.5582 19.1645C17.5853 18.3183 19.703 17.842 21.8206 17.7003C23.6155 17.5389 25.5639 17.6058 27.6304 18.0152C27.7288 17.1886 27.7681 16.4171 27.7603 15.7362C25.308 15.1261 23.0133 15.008 20.9232 15.1969C18.8095 15.3386 16.6879 15.8149 14.6608 16.6612C7.37499 19.7077 5.80447 23.4589 6.7767 26.1473V26.1433Z" fill="url(#paint4_radial_30_1395)"/>
<g style="mix-blend-mode:overlay" opacity="0.8">
<path d="M15.5582 19.1685C9.44142 21.727 7.35527 24.7854 7.41825 27.2887C7.47335 27.3557 7.5324 27.4186 7.59144 27.4816C7.5875 24.9979 9.69727 21.9907 15.7314 19.4637C17.7585 18.6174 19.8761 18.1411 21.9938 17.9994C23.7296 17.842 25.6071 17.905 27.5988 18.275C27.6106 18.1884 27.6224 18.1018 27.6303 18.0152C25.5638 17.6098 23.6155 17.5389 21.8206 17.7003C19.7069 17.842 17.5853 18.3183 15.5582 19.1645V19.1685Z" fill="white"/>
</g>
<path style="mix-blend-mode:overlay" opacity="0.4" d="M32.6608 18.9481C32.6293 19.2078 32.586 19.4598 32.5427 19.7156C35.3374 21.849 38.3249 25.3246 39.6632 29.7134C40.104 28.6113 40.4426 27.4737 40.659 26.3126C38.9941 22.2387 35.6956 19.2984 32.7986 17.6727C32.7631 18.086 32.7198 18.5072 32.6647 18.9481H32.6608Z" fill="url(#paint5_radial_30_1395)"/>
<path style="mix-blend-mode:overlay" opacity="0.5" d="M32.5427 19.7156C32.5191 19.8416 32.4994 19.9715 32.4758 20.0974C35.2429 22.278 38.1832 25.8009 39.4467 30.2212C39.5215 30.0519 39.5924 29.8827 39.6593 29.7134C38.321 25.3246 35.3374 21.8529 32.5388 19.7156H32.5427Z" fill="url(#paint6_linear_30_1395)"/>
<path style="mix-blend-mode:overlay" opacity="0.9" d="M33.8298 35.472C33.877 35.4169 33.9243 35.3578 33.9676 35.2988C34.1959 34.9996 34.3691 34.6769 34.4989 34.3462C32.3616 35.653 28.6735 35.3736 23.3951 31.3548C21.6474 30.0244 20.1753 28.4263 18.9945 26.6629C17.9554 25.1868 17.0422 23.4707 16.3612 21.4751C15.5976 21.8018 14.9088 22.156 14.3184 22.5024C15.019 24.931 16.0621 26.9778 17.2705 28.6939C18.4513 30.4573 19.9234 32.0515 21.6711 33.3858C27.9531 38.1722 31.9877 37.6565 33.8259 35.472H33.8298Z" fill="url(#paint7_radial_30_1395)"/>
<g style="mix-blend-mode:overlay" opacity="0.8">
<path d="M23.3991 31.3548C28.6735 35.3736 32.3656 35.653 34.5029 34.3462C34.5344 34.2636 34.562 34.1809 34.5856 34.1022C32.4365 35.35 28.7758 35.0233 23.5723 31.0596C21.8246 29.7292 20.3525 28.1311 19.1717 26.3677C18.168 24.9428 17.2823 23.2857 16.6092 21.3767C16.5266 21.4121 16.4479 21.4436 16.3691 21.479C17.0501 23.4746 17.9633 25.1908 19.0024 26.6668C20.1833 28.4302 21.6554 30.0244 23.403 31.3587L23.3991 31.3548Z" fill="white"/>
</g>
<path style="mix-blend-mode:overlay" opacity="0.3" d="M14.6569 16.6533C14.897 16.5549 15.1371 16.4644 15.3811 16.3738C15.8299 12.8864 17.3453 8.56059 20.4784 5.21094C19.3055 5.38019 18.1522 5.65572 17.0343 6.0454C14.3381 9.52495 13.4406 13.8508 13.48 17.1729C13.8539 16.9957 14.2436 16.8225 14.653 16.6533H14.6569Z" fill="url(#paint8_radial_30_1395)"/>
<path style="mix-blend-mode:overlay" opacity="0.4" d="M15.3811 16.3738C15.5031 16.3305 15.6212 16.2833 15.7432 16.24C16.2471 12.7526 17.8294 8.44645 21.0216 5.14009C20.8405 5.15977 20.6595 5.18339 20.4784 5.207C17.3452 8.5606 15.8298 12.8825 15.3811 16.3699V16.3738Z" fill="url(#paint9_linear_30_1395)"/>
<path style="mix-blend-mode:multiply" opacity="0.4" d="M21.4389 0.0545952C15.1253 0.483634 9.58326 3.42393 5.71404 7.82847C5.68648 7.85996 5.65499 7.89538 5.62744 7.92687C6.37924 8.67474 8.84327 10.1469 9.83911 10.7609C11.7993 8.65506 14.2594 7.00975 17.0501 6.03359C17.243 5.78168 17.4477 5.5337 17.6602 5.2936C20.2581 2.36117 23.8045 0.81427 27.9217 0.81427C28.3783 0.81427 29.3112 0.889057 29.3309 0.889057C26.8354 0.172679 24.1785 -0.134339 21.4389 0.0545952Z" fill="url(#paint10_linear_30_1395)"/>
<path style="mix-blend-mode:multiply" opacity="0.4" d="M24.2178 40.9393C19.3251 41.2738 14.7514 39.6049 11.2954 36.6371C10.9727 36.5938 10.6499 36.5426 10.3271 36.4757C6.4894 35.6924 3.37198 33.3937 1.31731 29.8315C1.08902 29.4339 0.884339 29.0325 0.699341 28.6192C3.35623 39.2113 13.2792 46.7136 24.5563 45.946C24.6074 44.7849 24.265 42.0886 24.2138 40.9393H24.2178Z" fill="url(#paint11_linear_30_1395)"/>
<path style="mix-blend-mode:multiply" opacity="0.4" d="M45.9413 21.4396C45.2328 21.3688 41.7847 21.6404 40.9345 21.7821C41.0408 23.3408 40.9424 24.868 40.6629 26.3401C40.781 26.6314 40.8952 26.9306 40.9975 27.2336C42.2374 30.9493 41.8044 34.795 39.7498 38.3611C39.5254 38.7508 39.2814 39.1247 39.0255 39.4829C39.0216 39.4908 39.0137 39.4986 39.0098 39.5026C39.0098 39.5026 39.0216 39.4947 39.0255 39.4868C43.6977 34.9406 46.4176 28.4538 45.9413 21.4436V21.4396Z" fill="url(#paint12_linear_30_1395)"/>
<path style="mix-blend-mode:multiply" opacity="0.5" d="M28.1579 5.98242C28.6617 6.03359 29.201 6.15954 29.6851 6.32092C29.7087 6.3288 29.7323 6.33667 29.752 6.34061C31.7358 7.14751 33.5504 8.30474 35.117 9.73356C35.117 9.73356 35.1248 9.73749 35.1288 9.74143C35.8845 8.87941 37.337 7.93081 37.337 7.93081C37.337 7.93081 35.113 5.65572 31.7083 4.94721C29.3269 4.45126 23.9541 3.97499 20.5651 9.74143C20.5651 9.74143 20.5769 9.72962 20.5966 9.70994C20.8485 9.33207 21.1122 8.96207 21.4153 8.62357C23.0566 6.76964 25.497 5.71082 28.1579 5.98242V5.98242Z" fill="url(#paint13_linear_30_1395)"/>
<path style="mix-blend-mode:multiply" opacity="0.5" d="M35.1563 35.9758C34.8611 36.3851 34.4832 36.7906 34.1014 37.1291C34.0856 37.1448 34.066 37.1606 34.0502 37.1763C32.3577 38.491 30.4487 39.4829 28.4294 40.1245C28.4255 40.1245 28.4215 40.1245 28.4176 40.1284C28.7876 41.2148 28.8821 42.9467 28.8821 42.9467C28.8821 42.9467 31.9641 42.1595 34.2785 39.5655C35.8963 37.751 38.9979 33.3346 35.6995 27.517C35.6995 27.517 35.7034 27.5367 35.7113 27.5603C35.9159 27.9657 36.1009 28.383 36.2426 28.812C37.0259 31.158 36.7268 33.803 35.1602 35.9719L35.1563 35.9758Z" fill="url(#paint14_linear_30_1395)"/>
<path style="mix-blend-mode:multiply" opacity="0.5" d="M5.68252 27.0447C5.47391 26.5802 5.31252 26.0528 5.21018 25.5529C5.20625 25.5293 5.19838 25.5057 5.19444 25.4821C4.90317 23.3605 4.99763 21.2113 5.45029 19.1409C5.45029 19.137 5.45029 19.1331 5.45029 19.1291C4.32455 18.9087 2.77765 18.1215 2.77765 18.1215C2.77765 18.1215 1.91957 21.1877 3.00988 24.4862C3.77349 26.7967 6.04465 31.6893 12.7321 31.7405C12.7321 31.7405 12.7125 31.7366 12.6888 31.7287C12.2362 31.7012 11.7835 31.6539 11.3388 31.5634C8.91409 31.0674 6.77677 29.4851 5.67859 27.0447H5.68252Z" fill="url(#paint15_linear_30_1395)"/>
<path style="mix-blend-mode:multiply" opacity="0.6" d="M27.1897 14.9647C27.3747 14.9883 27.5557 14.9962 27.7328 14.9922C27.7328 14.9922 27.6108 12.603 27.3196 11.3749C27.0243 10.1508 26.5914 9.33601 26.119 8.87548C25.7766 8.54484 24.702 8.13549 23.8676 10.6625C23.596 12.7683 25.0838 14.6931 27.1897 14.9607V14.9647Z" fill="url(#paint16_linear_30_1395)"/>
<path style="mix-blend-mode:multiply" opacity="0.5" d="M13.9445 23.388C13.8736 23.2188 13.7871 23.0574 13.6965 22.9039C13.6965 22.9039 11.6852 24.2028 10.772 25.0688C9.85879 25.9347 9.3707 26.718 9.20932 27.3596C9.09517 27.8201 9.27624 28.9537 11.882 28.4145C13.8382 27.5958 14.7632 25.3443 13.9445 23.388V23.388Z" fill="url(#paint17_linear_30_1395)"/>
<path style="mix-blend-mode:multiply" opacity="0.6" d="M27.8588 30.6423C27.7486 30.788 27.6502 30.9454 27.5636 31.1029C27.5636 31.1029 29.6931 32.1932 30.9014 32.5514C32.1098 32.9095 33.0309 32.941 33.6646 32.76C34.1212 32.6301 35.0108 31.9019 33.2434 29.9181C31.5548 28.631 29.1459 28.9577 27.8588 30.6463V30.6423Z" fill="url(#paint18_linear_30_1395)"/>
<path style="mix-blend-mode:multiply" opacity="0.3" d="M27.0321 20.7351C26.5479 22.341 25.8709 23.8013 25.0404 25.0884C24.9971 25.1554 24.9538 25.2223 24.9066 25.2931C24.9066 25.2931 24.9066 25.2971 24.9026 25.301C24.3555 26.0922 23.7021 26.8715 22.9346 27.6273C23.462 28.1862 24.0288 28.7294 24.6547 29.245C25.4419 29.863 26.2094 30.3629 26.9061 30.7565C28.6617 28.9341 29.9094 27.0093 30.7911 25.1042C31.1375 24.3996 31.4406 23.6754 31.7043 22.9275C30.8934 22.3331 30.0747 21.8569 29.319 21.5341C28.5396 21.1995 27.776 20.9398 27.0282 20.7351H27.0321Z" fill="url(#paint19_linear_30_1395)"/>
<path style="mix-blend-mode:multiply" opacity="0.3" d="M11.2954 36.6371C15.6567 37.2314 19.8526 35.8459 22.7102 34.1494C22.3717 33.9133 22.0254 33.6613 21.6711 33.3937C20.569 32.5514 19.5771 31.6067 18.6954 30.5794C16.5463 31.5201 13.8382 32.0711 11.3309 31.5594C8.90621 31.0635 6.76888 29.4812 5.6707 27.0408C5.46209 26.5763 5.3007 26.0489 5.19836 25.549C5.83208 29.9968 8.07568 33.8778 11.2915 36.6371H11.2954Z" fill="url(#paint20_linear_30_1395)"/>
<path style="mix-blend-mode:multiply" opacity="0.3" d="M22.9346 27.6273C21.7852 26.4071 20.8642 25.0884 20.1635 23.7265C20.1281 23.6518 20.0887 23.5848 20.0533 23.5101C20.0533 23.5101 20.0533 23.5061 20.0533 23.5022C19.644 22.6323 19.2936 21.6758 19.022 20.6327C18.2742 20.8099 17.5224 21.0303 16.7666 21.3137C15.8377 21.6837 15.0229 22.1009 14.3341 22.5024C15.0347 24.931 16.0699 26.9817 17.2783 28.6979C17.7153 29.3473 18.1876 29.9732 18.7032 30.5754C19.6243 30.1739 20.4469 29.6977 21.1043 29.2056C21.7813 28.6979 22.3874 28.1665 22.9385 27.6233L22.9346 27.6273Z" fill="url(#paint21_linear_30_1395)"/>
<path style="mix-blend-mode:multiply" opacity="0.3" d="M17.0343 6.04934C14.3381 9.52888 13.4406 13.8547 13.48 17.1768C13.8539 16.9997 14.2475 16.8265 14.6569 16.6533C15.9361 16.118 17.2508 15.7322 18.5773 15.4843C18.8371 13.1541 19.7148 10.5326 21.4113 8.61964C23.0527 6.76571 25.4931 5.70689 28.1539 5.97849C28.6577 6.02966 29.197 6.15561 29.6811 6.31699C29.7048 6.32487 29.7284 6.33274 29.7481 6.33668C27.2958 5.3369 24.5878 4.86456 21.7734 5.05743C20.1203 5.17158 18.5379 5.50615 17.0422 6.03359C17.0383 6.03753 17.0343 6.0454 17.0304 6.04934H17.0343Z" fill="url(#paint22_linear_30_1395)"/>
<path style="mix-blend-mode:multiply" opacity="0.3" d="M40.659 26.3086C38.9901 22.2347 35.6916 19.2905 32.7946 17.6649C32.7592 18.0782 32.7159 18.5033 32.6569 18.9481C32.4797 20.3218 32.157 21.6522 31.7083 22.9275C33.5976 24.3209 35.4318 26.3874 36.2427 28.816C37.026 31.1619 36.7268 33.807 35.1602 35.9758C34.865 36.3852 34.4872 36.7906 34.1054 37.1291C34.1014 37.133 34.0936 37.1409 34.0896 37.1448C37.4668 34.4919 39.8561 30.666 40.6748 26.3362C40.6748 26.3283 40.6669 26.3205 40.6669 26.3126L40.659 26.3086Z" fill="url(#paint23_linear_30_1395)"/>
<path style="mix-blend-mode:multiply" opacity="0.3" d="M18.5655 18.2553C18.6678 19.0976 18.8213 19.8849 19.0181 20.6327C20.6516 20.247 22.2536 20.1053 23.7848 20.1801C23.8674 20.184 23.9462 20.188 24.0288 20.1919H24.0367C24.9971 20.2706 25.9969 20.4477 27.0321 20.7311C27.2525 19.9951 27.4375 19.2315 27.5713 18.4364C27.717 17.4445 27.7603 16.5273 27.7563 15.7283C25.3041 15.1221 23.0133 15.0001 20.9232 15.1891C20.1399 15.2402 19.3606 15.3386 18.5812 15.4843C18.471 16.484 18.4671 17.4327 18.5694 18.2514L18.5655 18.2553Z" fill="url(#paint24_linear_30_1395)"/>
<defs>
<linearGradient id="paint0_linear_30_1395" x1="7.3042" y1="38.6959" x2="36.6284" y2="9.3677" gradientUnits="userSpaceOnUse">
<stop stop-color="#E6007A"/>
<stop offset="0.21" stop-color="#703AC2"/>
<stop offset="0.46" stop-color="#0070EB"/>
<stop offset="0.77" stop-color="#0297FB"/>
<stop offset="1" stop-color="#0AE2FF"/>
</linearGradient>
<radialGradient id="paint1_radial_30_1395" cx="0" cy="0" r="1" gradientUnits="userSpaceOnUse" gradientTransform="translate(29.5551 18.3419) scale(8.7461)">
<stop stop-color="white"/>
<stop offset="1" stop-color="white" stop-opacity="0"/>
</radialGradient>
<radialGradient id="paint2_radial_30_1395" cx="0" cy="0" r="1" gradientUnits="userSpaceOnUse" gradientTransform="translate(16.6288 34.5667) scale(5.08943 5.08943)">
<stop stop-color="white"/>
<stop offset="1" stop-color="white" stop-opacity="0"/>
</radialGradient>
<linearGradient id="paint3_linear_30_1395" x1="8.99272" y1="33.7047" x2="13.8972" y2="33.6377" gradientUnits="userSpaceOnUse">
<stop stop-color="white" stop-opacity="0"/>
<stop offset="1" stop-color="white"/>
</linearGradient>
<radialGradient id="paint4_radial_30_1395" cx="0" cy="0" r="1" gradientUnits="userSpaceOnUse" gradientTransform="translate(15.6902 19.6484) rotate(-120) scale(8.7461)">
<stop stop-color="white"/>
<stop offset="1" stop-color="white" stop-opacity="0"/>
</radialGradient>
<radialGradient id="paint5_radial_30_1395" cx="0" cy="0" r="1" gradientUnits="userSpaceOnUse" gradientTransform="translate(36.2044 22.7305) rotate(-120) scale(5.08943)">
<stop stop-color="white"/>
<stop offset="1" stop-color="white" stop-opacity="0"/>
</radialGradient>
<linearGradient id="paint6_linear_30_1395" x1="39.274" y1="29.7711" x2="36.7638" y2="25.5572" gradientUnits="userSpaceOnUse">
<stop stop-color="white" stop-opacity="0"/>
<stop offset="1" stop-color="white"/>
</linearGradient>
<radialGradient id="paint7_radial_30_1395" cx="0" cy="0" r="1" gradientUnits="userSpaceOnUse" gradientTransform="translate(23.3376 30.5982) rotate(120) scale(8.7461)">
<stop stop-color="white"/>
<stop offset="1" stop-color="white" stop-opacity="0"/>
</radialGradient>
<radialGradient id="paint8_radial_30_1395" cx="0" cy="0" r="1" gradientUnits="userSpaceOnUse" gradientTransform="translate(16.1644 11.6989) rotate(120) scale(5.08943)">
<stop stop-color="white"/>
<stop offset="1" stop-color="white" stop-opacity="0"/>
</radialGradient>
<linearGradient id="paint9_linear_30_1395" x1="20.7255" y1="5.51486" x2="18.3346" y2="9.79765" gradientUnits="userSpaceOnUse">
<stop stop-color="white" stop-opacity="0"/>
<stop offset="1" stop-color="white"/>
</linearGradient>
<linearGradient id="paint10_linear_30_1395" x1="21.7932" y1="3.33734" x2="14.2988" y2="5.51796" gradientUnits="userSpaceOnUse">
<stop stop-color="#231F20"/>
<stop offset="1" stop-color="white"/>
</linearGradient>
<linearGradient id="paint11_linear_30_1395" x1="7.63482" y1="31.9137" x2="13.9012" y2="38.4556" gradientUnits="userSpaceOnUse">
<stop stop-color="#231F20"/>
<stop offset="1" stop-color="white"/>
</linearGradient>
<linearGradient id="paint12_linear_30_1395" x1="41.2652" y1="30.9297" x2="43.4458" y2="24.3012" gradientUnits="userSpaceOnUse">
<stop stop-color="#231F20"/>
<stop offset="1" stop-color="white"/>
</linearGradient>
<linearGradient id="paint13_linear_30_1395" x1="25.2058" y1="7.13177" x2="35.2508" y2="9.43047" gradientUnits="userSpaceOnUse">
<stop stop-color="#231F20"/>
<stop offset="1" stop-color="white"/>
</linearGradient>
<linearGradient id="paint14_linear_30_1395" x1="35.6391" y1="32.8439" x2="28.6204" y2="40.3953" gradientUnits="userSpaceOnUse">
<stop stop-color="#231F20"/>
<stop offset="1" stop-color="white"/>
</linearGradient>
<linearGradient id="paint15_linear_30_1395" x1="8.15124" y1="29.0267" x2="5.12287" y2="19.1762" gradientUnits="userSpaceOnUse">
<stop stop-color="#231F20"/>
<stop offset="1" stop-color="white"/>
</linearGradient>
<linearGradient id="paint16_linear_30_1395" x1="27.4022" y1="10.8357" x2="24.2257" y2="14.0161" gradientUnits="userSpaceOnUse">
<stop stop-color="#231F20"/>
<stop offset="1" stop-color="white"/>
</linearGradient>
<linearGradient id="paint17_linear_30_1395" x1="10.2642" y1="25.2627" x2="14.6053" y2="26.4288" gradientUnits="userSpaceOnUse">
<stop stop-color="#231F20"/>
<stop offset="1" stop-color="white"/>
</linearGradient>
<linearGradient id="paint18_linear_30_1395" x1="31.3261" y1="32.8923" x2="30.1634" y2="28.5532" gradientUnits="userSpaceOnUse">
<stop stop-color="#231F20"/>
<stop offset="1" stop-color="white"/>
</linearGradient>
<linearGradient id="paint19_linear_30_1395" x1="24.7176" y1="29.0325" x2="26.6267" y2="26.3992" gradientUnits="userSpaceOnUse">
<stop stop-color="#231F20"/>
<stop offset="1" stop-color="white"/>
</linearGradient>
<linearGradient id="paint20_linear_30_1395" x1="18.1522" y1="27.891" x2="14.3381" y2="29.7095" gradientUnits="userSpaceOnUse">
<stop stop-color="#231F20"/>
<stop offset="1" stop-color="white"/>
</linearGradient>
<linearGradient id="paint21_linear_30_1395" x1="16.7666" y1="21.542" x2="17.9475" y2="23.9942" gradientUnits="userSpaceOnUse">
<stop stop-color="#231F20"/>
<stop offset="1" stop-color="white"/>
</linearGradient>
<linearGradient id="paint22_linear_30_1395" x1="22.2576" y1="13.9688" x2="21.4428" y2="11.1545" gradientUnits="userSpaceOnUse">
<stop stop-color="#231F20"/>
<stop offset="1" stop-color="white"/>
</linearGradient>
<linearGradient id="paint23_linear_30_1395" x1="31.0667" y1="26.8597" x2="33.4283" y2="27.4029" gradientUnits="userSpaceOnUse">
<stop stop-color="#231F20"/>
<stop offset="1" stop-color="white"/>
</linearGradient>
<linearGradient id="paint24_linear_30_1395" x1="27.3627" y1="18.8812" x2="24.3673" y2="18.338" gradientUnits="userSpaceOnUse">
<stop stop-color="#231F20"/>
<stop offset="1" stop-color="white"/>
</linearGradient>
</defs>
</svg>
