<svg width="150" height="150" viewBox="0 0 150 150" fill="none" xmlns="http://www.w3.org/2000/svg">
<path d="M118.132 130.482L47.9181 89.9215C45.2002 88.3505 42.9968 84.1401 42.9968 80.5189V16.6445C42.9968 13.0194 45.2002 11.3541 47.9181 12.9251L118.132 53.4853C120.849 55.0563 123.053 59.2667 123.053 62.8879V126.758C123.053 130.383 120.849 132.049 118.132 130.478V130.482Z" fill="url(#paint0_linear_30_1457)" stroke="#220E6E" stroke-width="0.5" stroke-linejoin="round"/>
<path d="M124.071 50.1507L53.8614 9.59057C52.7852 8.97001 51.7915 8.85611 50.9825 9.16639C50.8803 9.20566 44.9654 12.5284 44.8672 12.5834H44.8633C45.6999 12.1749 46.7642 12.2535 47.9268 12.9212L118.14 53.4813C120.858 55.0524 123.061 59.2627 123.061 62.884V126.754C123.061 129.017 122.201 130.513 120.897 130.941C121.003 130.945 121.137 130.906 121.329 130.796C121.392 130.76 127.425 127.328 127.484 127.285C128.419 126.629 129 125.285 129 123.42V59.5534C129 55.9282 126.797 51.7178 124.079 50.1507H124.071Z" fill="url(#paint1_linear_30_1457)" stroke="#220E6E" stroke-width="0.5" stroke-linejoin="round"/>
<path d="M104.189 77.3384C104.382 77.4489 104.515 77.7173 104.491 77.9463V78.0134C104.464 78.2423 104.299 78.3371 104.111 78.2266L99.7252 75.6449C99.5408 75.5344 99.4074 75.2659 99.4231 75.0291V74.9659C99.4506 74.737 99.6114 74.6501 99.7997 74.7528L104.185 77.3344V77.3423L104.189 77.3384Z" fill="#C2A1D7"/>
<path d="M108.41 82.1214C108.559 82.2082 108.665 82.4214 108.649 82.5951L108.63 82.8359C108.614 83.0135 108.485 83.0846 108.336 82.9977L104.067 80.4832C103.918 80.3964 103.813 80.1832 103.828 80.0095L103.848 79.7687C103.864 79.5911 103.993 79.52 104.142 79.6069L108.41 82.1214Z" fill="#BDC0FF"/>
<path d="M106.747 76.8845C106.9 76.9792 107.013 77.1963 106.994 77.3858L106.974 77.5871C106.958 77.7766 106.821 77.8477 106.668 77.7608L101.867 74.9305C101.714 74.8357 101.6 74.6186 101.619 74.4292L101.639 74.2278C101.655 74.0384 101.792 73.9673 101.945 74.0541L106.747 76.8845V76.8845Z" fill="#8AD4DE"/>
<path d="M106.277 74.22C106.445 74.3147 106.571 74.5713 106.551 74.7726L106.539 74.9108C106.52 75.1121 106.371 75.2029 106.202 75.1081L102.613 72.9923C102.44 72.8897 102.318 72.641 102.338 72.4397L102.35 72.3015C102.369 72.0923 102.518 72.0094 102.687 72.1041L106.277 74.22Z" fill="#8AD4DE"/>
<path d="M104.853 69.2547C105.049 69.3692 105.194 69.6574 105.178 69.9061C105.159 70.1469 104.978 70.2535 104.782 70.135L102.935 69.0495C102.738 68.935 102.589 68.631 102.609 68.3902C102.629 68.1494 102.809 68.0468 103.013 68.1692L104.861 69.2547H104.853V69.2547Z" fill="#BDC0FF"/>
<path d="M105.399 63.8326C105.596 63.9471 105.741 64.2432 105.725 64.484C105.705 64.7248 105.525 64.8313 105.329 64.7129L92.4267 57.118C92.2306 57.0035 92.0815 56.6995 92.1011 56.4587C92.1207 56.2179 92.3012 56.1153 92.5052 56.2377L105.407 63.8326H105.399Z" fill="#8AD4DE"/>
<path d="M108.693 71.5167C108.889 71.6312 109.034 71.9194 109.018 72.1681C108.999 72.4089 108.818 72.5154 108.622 72.397L105.798 70.7351C105.602 70.6207 105.456 70.3246 105.472 70.0759C105.492 69.8351 105.672 69.7325 105.868 69.8469L108.693 71.5088V71.5167Z" fill="#8AD4DE"/>
<path d="M109.08 69.1363C109.276 69.2507 109.421 69.5389 109.405 69.7876C109.386 70.0284 109.205 70.131 109.009 70.0165L102.658 66.2783C102.462 66.1638 102.309 65.8677 102.332 65.6269C102.356 65.3861 102.533 65.2835 102.737 65.4059L109.088 69.1441V69.1363H109.08Z" fill="#8AD4DE"/>
<path d="M107.361 97.3665C107.557 97.481 107.702 97.777 107.687 98.0257C107.667 98.2665 107.486 98.3691 107.29 98.2547L104.466 96.5928C104.27 96.4783 104.125 96.1901 104.14 95.9414C104.16 95.7006 104.34 95.5941 104.537 95.7125L107.361 97.3744V97.3665V97.3665Z" fill="#BDC0FF"/>
<path d="M103.519 95.1085C103.715 95.223 103.86 95.519 103.845 95.7677C103.825 96.0085 103.644 96.1112 103.448 95.9967L101.601 94.9111C101.405 94.7967 101.252 94.5006 101.275 94.2598C101.299 94.019 101.475 93.9124 101.679 94.0308L103.527 95.1164V95.1085H103.519Z" fill="#8AD4DE"/>
<path d="M107.739 94.9861C107.935 95.1006 108.081 95.3888 108.065 95.6375C108.045 95.8783 107.865 95.9848 107.669 95.8664L101.318 92.1281C101.121 92.0137 100.972 91.7097 100.992 91.4689C101.012 91.2281 101.192 91.1255 101.396 91.2479L107.747 94.9861H107.739Z" fill="#8AD4DE"/>
<path d="M103.941 89.6967C104.137 89.8111 104.282 90.0993 104.267 90.348C104.247 90.5888 104.067 90.6875 103.871 90.577L90.9684 82.982C90.7722 82.8675 90.6192 82.5715 90.6428 82.3307C90.6663 82.0899 90.8428 81.9872 91.0468 82.1096L103.949 89.7046V89.6967H103.941Z" fill="#8AD4DE"/>
<path d="M94.6098 87.253C94.7824 87.3556 94.9079 87.6122 94.8922 87.8135L94.8805 87.9359C94.8608 88.149 94.7118 88.2359 94.5313 88.1332L86.1522 83.1989C85.9796 83.0963 85.854 82.8397 85.8697 82.6344L85.8815 82.512C85.9011 82.3028 86.058 82.2199 86.2306 82.3226L94.6098 87.2569V87.253Z" fill="#8AD4DE"/>
<path d="M100.398 93.269C100.594 93.3835 100.743 93.6874 100.723 93.9282C100.704 94.169 100.523 94.2716 100.319 94.1493L88.0289 86.9175C87.8328 86.803 87.6876 86.5148 87.7033 86.2662C87.7229 86.0254 87.9034 85.9188 88.0995 86.0372L100.39 93.269H100.398V93.269Z" fill="#8AD4DE"/>
<path d="M100.135 90.5097C100.308 90.6124 100.429 90.8611 100.41 91.0624L100.398 91.1927C100.378 91.4019 100.229 91.4927 100.057 91.39L95.5338 88.7215C95.3611 88.6189 95.2395 88.3702 95.2592 88.161L95.2709 88.0307C95.2905 87.8294 95.4396 87.7386 95.6083 87.8334L100.131 90.5019V90.5097H100.135Z" fill="#BDC0FF"/>
<path d="M101.706 84.4661C101.902 84.5806 102.047 84.8687 102.031 85.1174C102.012 85.3582 101.831 85.4648 101.635 85.3464L90.2237 78.6317C90.0276 78.5172 89.8824 78.2212 89.8981 77.9725C89.9177 77.7317 90.0982 77.633 90.2943 77.7435L101.706 84.4582V84.4661V84.4661Z" fill="#8AD4DE"/>
<path d="M108.076 88.2203C108.272 88.3387 108.417 88.6229 108.401 88.8716C108.382 89.1124 108.201 89.219 108.005 89.1006L102.866 86.0728C102.67 85.9584 102.525 85.6623 102.541 85.4136C102.56 85.1728 102.741 85.0702 102.937 85.1847L108.076 88.2124V88.2203V88.2203Z" fill="#C2A1D7"/>
<path d="M88.6273 76.7606C88.8234 76.875 88.9764 77.1711 88.9529 77.4119C88.9294 77.6527 88.7528 77.7593 88.5488 77.6409L81.5741 73.5355C81.3779 73.421 81.2328 73.1249 81.2485 72.8763C81.2681 72.6355 81.4485 72.5328 81.6447 72.6473L88.6273 76.7606V76.7606Z" fill="#C2A1D7"/>
<path d="M89.2563 81.0476C89.4525 81.1621 89.6055 81.4582 89.5819 81.6989C89.5584 81.9397 89.3819 82.0384 89.1779 81.92L81.2499 77.2541C81.0537 77.1396 80.9086 76.8514 80.9243 76.6027C80.9439 76.362 81.1243 76.2633 81.3205 76.3738L89.2485 81.0397V81.0476H89.2563Z" fill="#C2A1D7"/>
<path d="M103.781 79.707C103.93 79.7938 104.036 80.007 104.02 80.1807L104 80.4215C103.985 80.5991 103.855 80.6702 103.706 80.5833L99.442 78.0688C99.2929 77.9819 99.187 77.7688 99.2027 77.5951L99.2223 77.3543C99.238 77.1766 99.3675 77.1056 99.5165 77.1924L103.781 79.707Z" fill="#8AD4DE"/>
<path d="M101.561 71.4409C101.729 71.5356 101.847 71.7843 101.831 71.9935L101.819 72.1317C101.8 72.333 101.651 72.4238 101.486 72.3212L97.8966 70.2092C97.7279 70.1145 97.6102 69.8579 97.6259 69.6566L97.6377 69.5184C97.6573 69.3092 97.8064 69.2263 97.9711 69.329L101.561 71.4409Z" fill="#8AD4DE"/>
<path d="M98.5672 76.6358C98.7163 76.7226 98.8222 76.9358 98.8065 77.1095L98.7869 77.3503C98.7712 77.5279 98.6418 77.599 98.4927 77.5121L89.0936 71.9778C88.9445 71.8909 88.8386 71.6778 88.8543 71.5041L88.8739 71.2633C88.8896 71.0856 89.0191 71.0146 89.1681 71.1014L98.5672 76.6358V76.6358Z" fill="#8AD4DE"/>
<path d="M98.7289 74.1923C98.9015 74.295 99.027 74.5515 99.0113 74.7568V74.8081C98.9878 75.0173 98.8309 75.1081 98.6583 75.0015L89.3573 69.5264C89.1846 69.4238 89.0591 69.1672 89.0748 68.9619V68.9106C89.0983 68.6974 89.2474 68.6106 89.4279 68.7132L98.7289 74.1884V74.1923Z" fill="#8AD4DE"/>
<path d="M101.465 64.6598C101.638 64.7624 101.759 65.0032 101.74 65.2124L101.728 65.3427C101.708 65.5519 101.559 65.6348 101.387 65.5322L96.8636 62.8637C96.691 62.761 96.5694 62.5123 96.589 62.311L96.6008 62.1808C96.6204 61.9715 96.7694 61.8886 96.9381 61.9834L101.461 64.6519V64.6598H101.465Z" fill="#C2A1D7"/>
<path d="M100.171 72.7066C100.324 72.8013 100.438 73.0185 100.418 73.2079L100.398 73.4093C100.383 73.5987 100.245 73.6698 100.092 73.5829L89.5596 67.3775C89.4067 67.2828 89.2929 67.0657 89.3125 66.8762L89.3321 66.6749C89.3478 66.4854 89.4851 66.4143 89.6381 66.5012L100.171 72.7066V72.7066Z" fill="#BDC0FF"/>
<path d="M105.822 84.7187C106.006 84.8292 106.143 85.1055 106.124 85.3266C106.104 85.5477 105.932 85.6503 105.747 85.5398L81.7278 71.3999C81.5356 71.2894 81.4062 71.013 81.4258 70.7841C81.4454 70.5551 81.6102 70.4604 81.8024 70.5709L105.826 84.7147L105.822 84.7187Z" fill="#C2A1D7"/>
<path d="M96.9987 68.7607C97.1713 68.8633 97.2929 69.112 97.2733 69.3134L97.2615 69.4515C97.2419 69.6528 97.0928 69.7436 96.9241 69.6489L88.8353 64.8882C88.6627 64.7856 88.5411 64.5369 88.5607 64.3356L88.5724 64.1974C88.5921 63.9882 88.7411 63.9053 88.9098 64.0001L96.9987 68.7607Z" fill="#C2A1D7"/>
<path d="M101.732 67.4194C101.928 67.5339 102.081 67.8299 102.057 68.0707C102.034 68.3115 101.857 68.4181 101.653 68.2997L89.3629 61.0679C89.1667 60.9534 89.0216 60.6574 89.0373 60.4087C89.0569 60.1679 89.2374 60.0652 89.4335 60.1797L101.724 67.4115V67.4194H101.732Z" fill="#8AD4DE"/>
<path d="M88.0258 67.8923C88.1984 67.9949 88.3239 68.2515 88.3082 68.4567V68.5081C88.2847 68.7173 88.1356 68.8081 87.9552 68.7054L82.2828 65.3659C82.1102 65.2632 81.9847 65.0066 82.0003 64.8014V64.7501C82.0239 64.5369 82.173 64.4501 82.3534 64.5527L88.0258 67.8923Z" fill="#8AD4DE"/>
<path d="M88.9638 66.4198C89.1168 66.5145 89.2306 66.7316 89.211 66.9211L89.1913 67.1224C89.1756 67.3119 89.0383 67.3829 88.8854 67.2961L82.4049 63.4789C82.2519 63.3841 82.1381 63.167 82.1577 62.9776L82.1773 62.7762C82.193 62.5868 82.3303 62.5157 82.4833 62.6025L88.9717 66.4237H88.9638V66.4198Z" fill="#8AD4DE"/>
<path d="M95.9457 61.4073C96.1183 61.5099 96.2439 61.7665 96.2282 61.9678L96.2164 62.0902C96.1968 62.2994 96.0477 62.3902 95.8673 62.2797L87.4881 57.3453C87.3155 57.2427 87.19 56.9861 87.2057 56.7848L87.2174 56.6624C87.2371 56.4532 87.394 56.3703 87.5666 56.4729L95.9457 61.4073Z" fill="#8AD4DE"/>
<path d="M87.6186 63.234C87.7912 63.3367 87.9128 63.5854 87.8932 63.7867L87.8814 63.9248C87.8618 64.1262 87.7127 64.217 87.544 64.1222L82.6327 61.2287C82.464 61.134 82.3463 60.8774 82.362 60.6761L82.3738 60.5379C82.3934 60.3287 82.5424 60.2458 82.7072 60.3484L87.6186 63.2419V63.234V63.234Z" fill="#8AD4DE"/>
<path d="M103.162 58.5983C103.358 58.7128 103.503 59.0009 103.487 59.2496C103.468 59.4904 103.287 59.5931 103.091 59.4786L91.6756 52.7639C91.4795 52.6494 91.3343 52.3613 91.35 52.1126C91.3697 51.8718 91.5501 51.7691 91.7462 51.8836L103.158 58.5983H103.162Z" fill="#BDC0FF"/>
<path d="M90.7068 55.1798C90.9029 55.2943 91.052 55.5982 91.0324 55.8311C91.0127 56.064 90.8323 56.1785 90.6283 56.0601L82.7003 51.3862C82.5041 51.2718 82.359 50.9757 82.3747 50.727C82.3943 50.4862 82.5748 50.3836 82.7709 50.4981L90.6989 55.164V55.1798H90.7068Z" fill="#C2A1D7"/>
<path d="M107.273 58.843C107.458 58.9535 107.599 59.222 107.576 59.4509C107.552 59.6799 107.383 59.7667 107.199 59.6641L83.1834 45.5282C82.9912 45.4176 82.8578 45.1492 82.8814 44.9202C82.9049 44.6913 83.0657 44.5966 83.2579 44.7071L107.277 58.843H107.273Z" fill="#C2A1D7"/>
<path d="M90.0775 50.8968C90.2737 51.0113 90.4266 51.3074 90.4031 51.5482C90.3796 51.789 90.203 51.8916 89.9991 51.7692L83.0204 47.6599C82.8242 47.5454 82.6791 47.2573 82.6948 47.0086C82.7144 46.7678 82.8948 46.6651 83.091 46.7796L90.0736 50.8929H90.0814L90.0775 50.8968Z" fill="#8AD4DE"/>
<path d="M109.532 62.3523C109.728 62.4707 109.873 62.755 109.858 63.0037C109.838 63.2445 109.658 63.3471 109.462 63.2326L104.323 60.2049C104.126 60.0904 103.981 59.8022 103.997 59.5536C104.017 59.3128 104.197 59.2101 104.393 59.3246L109.532 62.3523V62.3523Z" fill="#8AD4DE"/>
<path d="M116.1 66.2248C116.296 66.3392 116.441 66.6274 116.426 66.8761C116.406 67.1169 116.226 67.2195 116.029 67.105L110.89 64.0773C110.694 63.9629 110.549 63.6747 110.565 63.426C110.584 63.1852 110.765 63.0826 110.961 63.197L116.1 66.2248Z" fill="#8AD4DE"/>
<path d="M112.756 80.4255C112.909 80.5203 113.023 80.7374 113.003 80.9269L112.984 81.1282C112.968 81.3177 112.831 81.3887 112.678 81.3019L107.876 78.4794C107.723 78.3847 107.61 78.1676 107.629 77.9781L107.649 77.7768C107.664 77.5873 107.802 77.5163 107.955 77.6031L112.756 80.4334V80.4255Z" fill="#8AD4DE"/>
<path d="M87.8786 70.3436C88.0277 70.4304 88.1336 70.6436 88.1179 70.8173L88.0983 71.0581C88.0826 71.2357 87.9531 71.3068 87.8041 71.2199L82.0218 67.8133C81.8728 67.7264 81.7669 67.5132 81.7825 67.3396L81.8022 67.0988C81.8179 66.9211 81.9473 66.8501 82.0964 66.933L87.8747 70.3317V70.3396L87.8786 70.3436Z" fill="#C2A1D7"/>
<path d="M88.0728 59.3782C88.2455 59.4808 88.371 59.7374 88.3553 59.9506L88.3474 60.0611C88.3278 60.2742 88.1788 60.369 87.9983 60.2585L82.7221 57.1518C82.5495 57.0492 82.4161 56.7847 82.4358 56.5794L82.4436 56.4689C82.4632 56.2557 82.6201 56.1689 82.7927 56.2676L88.0689 59.3742V59.3821L88.0728 59.3782Z" fill="#C2A1D7"/>
<path d="M86.5181 55.853C86.6672 55.9399 86.7731 56.153 86.7574 56.3267L86.7378 56.5675C86.7221 56.7451 86.5927 56.8162 86.4436 56.7294L82.8856 54.6372C82.7365 54.5503 82.6306 54.3372 82.6463 54.1635L82.6659 53.9227C82.6816 53.7451 82.8111 53.674 82.9601 53.7648L86.5181 55.857V55.8491V55.853Z" fill="#8AD4DE"/>
<path d="M114.652 92.0848C114.849 92.1992 114.994 92.4874 114.978 92.7361C114.958 92.9769 114.778 93.0835 114.582 92.9651L109.443 89.9373C109.247 89.8229 109.102 89.5268 109.117 89.2781C109.137 89.0373 109.317 88.9347 109.514 89.0492L114.652 92.0769V92.0848Z" fill="#8AD4DE"/>
<path d="M86.7472 85.228C86.9198 85.3307 87.0453 85.5872 87.0296 85.8004L87.0218 85.9109C87.0022 86.1241 86.8531 86.2188 86.6726 86.1083L81.3964 83.0016C81.2238 82.899 81.0905 82.6385 81.1101 82.4293L81.1179 82.3187C81.1375 82.1056 81.2944 82.0187 81.467 82.1174L86.7432 85.2241V85.232L86.7472 85.228Z" fill="#C2A1D7"/>
<path d="M85.1881 81.7027C85.3371 81.7895 85.443 82.0027 85.4274 82.1764L85.4077 82.4172C85.392 82.5948 85.2626 82.6659 85.1135 82.583L81.5555 80.4908C81.4065 80.404 81.3005 80.1908 81.3162 80.0171L81.3359 79.7763C81.3515 79.5987 81.481 79.5276 81.6301 79.6145L85.1881 81.7066V81.7027Z" fill="#C2A1D7"/>
<path d="M87.0779 53.4335V104.535L90.1964 102.709V51.5247L87.0779 53.4335Z" fill="#6368D7" stroke="#220E6E" stroke-width="0.5" stroke-linecap="round" stroke-linejoin="round"/>
<path d="M87.0909 53.4333V104.535L28.4246 71.2606V20.0764L87.0909 53.4333Z" fill="url(#paint2_linear_30_1457)" stroke="#220E6E" stroke-width="0.5" stroke-linejoin="round"/>
<path d="M28.4246 20.0762L87.0909 53.4332L90.1976 51.5244L31.5116 18.1989L28.4246 20.0762Z" fill="#67A3FD" stroke="#220E6E" stroke-width="0.5" stroke-linecap="round" stroke-linejoin="round"/>
<path d="M46.4892 36.3246L35.6373 30.0483C33.7403 28.9525 32.2007 30.1151 32.2007 32.6445V45.2049C32.2007 47.7342 33.7403 50.6721 35.6373 51.7679L46.4892 58.0442C48.3863 59.1399 49.9259 57.9774 49.9259 55.448V42.8876C49.9259 40.3582 48.3863 37.4204 46.4892 36.3246V36.3246Z" fill="#0977AB" stroke="#220E6E" stroke-width="0.5" stroke-linecap="round" stroke-linejoin="round"/>
<path d="M47.8283 57.0192L36.9764 50.7429C35.0794 49.6471 33.5398 46.7093 33.5398 44.1799V31.6195C33.5398 30.8183 33.6929 30.1585 33.9639 29.6597C32.9114 29.8325 32.1965 30.9204 32.1965 32.6407V45.2011C32.1965 47.7305 33.7361 50.6683 35.6332 51.7641L46.4851 58.0404C47.7812 58.7906 48.9123 58.4803 49.4936 57.4041C48.9987 57.4866 48.4292 57.3688 47.8244 57.0192H47.8283Z" fill="#084C94" stroke="#220E6E" stroke-width="0.5" stroke-linecap="round" stroke-linejoin="round"/>
<path d="M36.2886 36.0656L25.4366 29.7894C23.5396 28.6936 22 29.8561 22 32.3855V44.9459C22 47.4753 23.5396 50.4131 25.4366 51.5089L36.2886 57.7852C38.1856 58.881 39.7252 57.7184 39.7252 55.189V42.6286C39.7252 40.0993 38.1856 37.1614 36.2886 36.0656V36.0656Z" fill="url(#paint3_linear_30_1457)" stroke="#220E6E" stroke-width="0.5" stroke-linecap="round" stroke-linejoin="round"/>
<path d="M38.057 35.0288L27.2051 28.7485C26.392 28.2812 25.6458 28.2262 25.0606 28.5168L25.041 28.4972L23.1636 29.6008L23.1714 29.6244C23.7763 29.2631 24.5657 29.2866 25.4376 29.7894L36.2896 36.0656C38.1866 37.1614 39.7262 40.0993 39.7262 42.6286V55.189C39.7262 56.4184 39.3609 57.3217 38.7679 57.8009L39.8165 57.1096C40.6963 56.6069 41.4975 55.8214 41.4975 54.1482V41.5878C41.4975 39.0585 39.9579 36.1206 38.0609 35.0248L38.057 35.0288Z" fill="#23A0DC" stroke="#220E6E" stroke-width="0.5" stroke-linecap="round" stroke-linejoin="round"/>
<path d="M34.0681 42.6053C34.0681 43.5479 33.4044 43.9249 32.5835 43.4536C31.7626 42.9784 31.0989 41.8315 31.0989 40.8889C31.0989 39.9463 31.7626 39.5692 32.5835 40.0406C33.4044 40.5158 34.0681 41.6626 34.0681 42.6053Z" fill="white"/>
<path d="M25.2739 43.8111L28.3374 39.8521L31.4481 47.723L33.7104 45.8849L36.2083 52.6717L36.1612 53.3591L25.3211 47.562L25.2739 43.8111Z" fill="white"/>
<path d="M58.168 44.9114C58.3097 44.9924 58.4271 45.2474 58.4231 45.4579V45.9154C58.415 46.1259 58.2976 46.2392 58.1518 46.1461L55.1441 44.3204C54.9943 44.2273 54.885 43.9844 54.889 43.7739V43.3165C54.8971 43.106 55.0145 42.9926 55.1603 43.0857L58.168 44.9155V44.9114Z" fill="white"/>
<path d="M67.3044 62.7597C67.4461 62.8407 67.5635 63.0876 67.5595 63.3062V63.7556C67.5514 63.9742 67.434 64.0794 67.2882 63.9863L66.1912 63.3265C66.0414 63.2334 65.9321 62.9986 65.9361 62.78V62.3306C65.9442 62.112 66.0616 62.0068 66.2074 62.0999L67.3044 62.7597Z" fill="white"/>
<path d="M67.4241 59.319C67.5657 59.3999 67.6831 59.655 67.6791 59.8655V60.3229C67.671 60.5334 67.5536 60.6468 67.4038 60.5536L64.6875 58.906C64.5458 58.8251 64.4284 58.5701 64.4325 58.3595V57.9021C64.4406 57.6916 64.558 57.5783 64.7077 57.6714L67.4241 59.319Z" fill="white"/>
<path d="M65.2767 54.5055C65.4184 54.5865 65.5358 54.8415 65.5317 55.052V55.5095C65.5236 55.72 65.4063 55.8333 65.2565 55.7402L59.5283 52.2629C59.3866 52.1819 59.2692 51.9269 59.2733 51.7164V51.2589C59.2814 51.0484 59.3988 50.9351 59.5445 51.0282L65.2727 54.5055H65.2767Z" fill="white"/>
<path d="M64.1544 48.5431C64.3042 48.6362 64.4216 48.8872 64.4175 49.1017V49.5592C64.4094 49.7697 64.292 49.883 64.1423 49.7899L59.1023 46.7295C58.9606 46.6485 58.8432 46.3935 58.8473 46.183V45.7256C58.8554 45.5151 58.9768 45.4139 59.1185 45.4948L64.1584 48.5552L64.1504 48.5471L64.1544 48.5431Z" fill="#91E7FF"/>
<path d="M66.0007 46.7252C66.1343 46.8062 66.2476 47.041 66.2436 47.2434V47.6725C66.2355 47.8749 66.1262 47.9761 65.9926 47.8951L55.1678 41.3331C55.0342 41.2521 54.9209 41.0173 54.9249 40.8149V40.3898C54.933 40.1793 55.0423 40.0741 55.1759 40.155L66.0007 46.7252Z" fill="#D591FF"/>
<path d="M61.4132 55.6717C61.5387 55.7526 61.6359 55.9591 61.6359 56.1453L61.6278 56.712C61.6278 56.8942 61.5225 56.9914 61.397 56.9104L57.7213 54.6839C57.5999 54.6111 57.4946 54.3965 57.4986 54.2103L57.5067 53.6435C57.5067 53.4614 57.612 53.3642 57.7375 53.4452L61.4132 55.6717Z" fill="white"/>
<path d="M65.5632 67.5732C65.6847 67.6461 65.7818 67.8526 65.7778 68.0347L65.7697 68.6015C65.7697 68.7836 65.6644 68.8727 65.547 68.7998L64.0654 67.9052C63.944 67.8323 63.8428 67.6178 63.8428 67.4315L63.8509 66.8648C63.8509 66.6826 63.9561 66.5976 64.0816 66.6786L65.5632 67.5732Z" fill="white"/>
<path d="M64.117 60.8371C64.2587 60.918 64.3761 61.165 64.372 61.3836V61.8329C64.3639 62.0515 64.2465 62.1568 64.1008 62.0637L58.656 58.7604C58.5062 58.6673 58.3969 58.4325 58.401 58.2139V57.7645C58.4091 57.5459 58.5265 57.4407 58.6722 57.5338L64.117 60.8371V60.8371Z" fill="white"/>
<path d="M58.548 50.4172C58.6896 50.4982 58.807 50.7532 58.803 50.9637V51.4212C58.7949 51.6317 58.6775 51.745 58.5277 51.6519L55.0908 49.5711C54.9411 49.478 54.8318 49.2352 54.8358 49.0246V48.5672C54.8439 48.3567 54.9613 48.2434 55.1111 48.3365L58.552 50.4213L58.548 50.4172Z" fill="#D591FF"/>
<path d="M67.0823 50.3198C67.224 50.4008 67.3414 50.6558 67.3374 50.8663V51.3238C67.3293 51.5343 67.2119 51.6476 67.0661 51.5545L64.9085 50.2429C64.7587 50.1498 64.6494 49.9069 64.6534 49.6964V49.239C64.6615 49.0285 64.7789 48.9151 64.9247 49.0082L67.0823 50.3198Z" fill="white"/>
<path d="M70.0913 52.1418C70.2411 52.2349 70.3585 52.4859 70.3544 52.7004V53.1579C70.3463 53.3684 70.2289 53.4817 70.0832 53.3886L67.9255 52.077C67.7839 51.996 67.6665 51.741 67.6705 51.5305V51.0731C67.6786 50.8626 67.796 50.7492 67.9458 50.8423L70.0994 52.1458L70.0913 52.1418Z" fill="white"/>
<path d="M57.6898 66.0148C57.8032 66.0876 57.8922 66.286 57.8922 66.4479L57.8841 67.0794C57.8841 67.2454 57.7951 67.3304 57.6736 67.2495L54.848 65.533C54.7347 65.4602 54.6497 65.282 54.6537 65.1161L54.6618 64.4846C54.6618 64.3186 54.7509 64.2255 54.8642 64.2943L57.6898 66.0107V66.0148Z" fill="white"/>
<path d="M57.0106 62.3795C57.1321 62.4524 57.2292 62.6588 57.2252 62.841L57.2171 63.4077C57.2171 63.5899 57.1118 63.679 56.9944 63.6061L54.9056 62.3431C54.7841 62.2702 54.687 62.0637 54.691 61.8816L54.6991 61.3148C54.6991 61.1327 54.8044 61.0477 54.9218 61.1165L57.0106 62.3795V62.3795Z" fill="white"/>
<path d="M64.7018 72.9128C64.8354 72.9938 64.9406 73.2204 64.9366 73.4229L64.9285 73.937C64.9285 74.1394 64.8192 74.2406 64.6815 74.1596L62.8477 73.0504C62.7141 72.9695 62.6008 72.7347 62.6048 72.5323L62.6129 72.0181C62.6129 71.8157 62.7222 71.7226 62.8599 71.8036L64.6937 72.9128H64.7018V72.9128Z" fill="#D591FF"/>
<path d="M64.582 76.3536C64.6873 76.4144 64.7723 76.5925 64.7683 76.7585L64.7602 77.4183C64.7602 77.5721 64.6711 77.6531 64.5658 77.5883L62.7523 76.4913C62.647 76.4306 62.562 76.2524 62.5661 76.0865L62.5742 75.4266C62.5742 75.2728 62.6632 75.1918 62.7685 75.2566L64.582 76.3536Z" fill="white"/>
<path d="M63.1673 69.3381C63.2807 69.411 63.3697 69.6053 63.3697 69.7713L63.3616 70.4028C63.3616 70.5687 63.2645 70.6457 63.1511 70.5728L58.4715 67.7269C58.3581 67.6541 58.269 67.4679 58.269 67.3019L58.2771 66.6704C58.2771 66.5044 58.3662 66.4113 58.4876 66.4923L63.1673 69.3381Z" fill="#91E7FF"/>
<path d="M61.3065 64.9907C61.428 65.0635 61.5251 65.27 61.5211 65.4522L61.513 66.0189C61.513 66.2011 61.4077 66.2861 61.2903 66.2173L57.7441 64.0636C57.6227 63.9908 57.5215 63.7762 57.5215 63.59L57.5296 63.0233C57.5296 62.8411 57.6348 62.752 57.7603 62.8371L61.3065 64.9907Z" fill="#D591FF"/>
<path d="M63.4031 66.2616C63.5245 66.3345 63.6217 66.5409 63.6176 66.7231L63.6095 67.2898C63.6095 67.472 63.5043 67.561 63.3869 67.4882L61.9012 66.5854C61.7798 66.5126 61.6826 66.3061 61.6866 66.124L61.6947 65.5572C61.6947 65.375 61.8 65.29 61.9174 65.3589L63.4031 66.2616Z" fill="white"/>
<path d="M62.1971 74.9128C62.3023 74.9735 62.3873 75.1516 62.3833 75.3176L62.3752 75.9774C62.3752 76.1312 62.2861 76.2122 62.1809 76.1474L58.0194 73.6254C57.9141 73.5647 57.8291 73.3825 57.8331 73.2206L57.8412 72.5608C57.8412 72.4069 57.9303 72.326 58.0356 72.3908L62.1971 74.9128Z" fill="white"/>
<path d="M57.2929 68.5126C57.4224 68.5935 57.5155 68.8 57.5155 68.9862V69.4436C57.5074 69.638 57.4062 69.7311 57.2767 69.6501L54.8478 68.1766C54.7182 68.0956 54.6211 67.8892 54.6251 67.6948V67.2374C54.6332 67.0431 54.7344 66.95 54.864 67.0309L57.2929 68.5045V68.5126Z" fill="white"/>
<path d="M62.1972 71.488C62.3268 71.5689 62.4239 71.7754 62.4199 71.9697V72.4272C62.4118 72.6215 62.3106 72.7146 62.1811 72.6336L58.0884 70.1521C57.9588 70.0711 57.8657 69.8647 57.8657 69.6704V69.2129C57.8738 69.0186 57.975 68.9255 58.1046 69.0065L62.1972 71.488Z" fill="white"/>
<path d="M65.8419 70.9615C65.9553 71.0343 66.0443 71.2327 66.0443 71.3946L66.0362 72.0261C66.0362 72.1921 65.9472 72.2771 65.8257 72.1961L63.7733 70.9453C63.66 70.8724 63.5749 70.6943 63.579 70.5283L63.5871 69.8968C63.5871 69.7308 63.6762 69.6377 63.7895 69.7065L65.8419 70.9574V70.9615Z" fill="white"/>
<path d="M68.593 72.6295C68.7064 72.6983 68.7914 72.8886 68.7873 73.0545L68.7793 73.6861C68.7793 73.852 68.6902 73.937 68.5768 73.8682L66.5244 72.6173C66.4111 72.5485 66.322 72.3583 66.322 72.1923L66.3301 71.5608C66.3301 71.3948 66.4192 71.3017 66.5406 71.3786L68.593 72.6295V72.6295Z" fill="white"/>
<path d="M57.2931 71.9209C57.3983 71.9816 57.4833 72.1638 57.4793 72.3257L57.4712 72.9855C57.4712 73.1394 57.3821 73.2203 57.2769 73.1556L54.7711 71.6294C54.6658 71.5687 54.5808 71.3865 54.5849 71.2246L54.593 70.5647C54.593 70.4109 54.682 70.3299 54.7873 70.3947L57.2931 71.9209V71.9209Z" fill="#D591FF"/>
<path d="M67.0525 77.8596C67.1577 77.9203 67.2428 78.0985 67.2387 78.2644L67.2306 78.9243C67.2306 79.0781 67.1416 79.1591 67.0363 79.0943L65.2227 77.9973C65.1175 77.9365 65.0325 77.7544 65.0365 77.5925L65.0446 76.9326C65.0446 76.7788 65.1337 76.6978 65.2389 76.7626L67.0525 77.8596Z" fill="#91E7FF"/>
<path d="M57.1108 53.0567C57.212 53.1174 57.3011 53.3077 57.297 53.4615L57.2889 54.1214C57.2889 54.2752 57.1999 54.3562 57.1027 54.3035L55.609 53.3967C55.5037 53.336 55.4187 53.1539 55.4227 52.9919L55.4308 52.3321C55.4308 52.1782 55.5199 52.0973 55.6252 52.1621L57.1189 53.0688L57.1108 53.0607V53.0567Z" fill="white"/>
<path d="M63.9543 57.2141C64.0758 57.287 64.1729 57.5015 64.1689 57.6837L64.1608 58.2504C64.1608 58.4447 64.0555 58.5297 63.9381 58.4569L62.0274 57.2991C61.906 57.2262 61.8088 57.0198 61.8129 56.8295L61.821 56.2628C61.821 56.0806 61.9262 55.9834 62.0436 56.0563L63.9543 57.2141Z" fill="#D591FF"/>
<path d="M57.8693 57.036C57.9988 57.117 58.1 57.3356 58.1 57.5177L58.0919 58.0683C58.0919 58.2626 57.9826 58.3476 57.8531 58.2666L55.6104 56.9065C55.4808 56.8255 55.3796 56.6069 55.3796 56.4247L55.3877 55.8742C55.3877 55.6799 55.497 55.5949 55.6266 55.6758L57.8693 57.036V57.036Z" fill="#D591FF"/>
<path d="M65.5412 61.6912C65.691 61.7843 65.8084 62.0272 65.8043 62.2498V62.6992C65.7962 62.9178 65.6788 63.023 65.5331 62.9299L64.8814 62.5332C64.7397 62.4522 64.6223 62.2053 64.6263 61.9867V61.5374C64.6344 61.3188 64.7518 61.2135 64.8975 61.3066L65.5493 61.7033L65.5412 61.6952V61.6912Z" fill="#91E7FF"/>
<path d="M65.5992 83.126C65.7327 83.207 65.8461 83.4418 65.842 83.6442V84.0652C65.8339 84.2757 65.7246 84.381 65.5911 84.3L54.7703 77.7339C54.6367 77.6529 54.5234 77.4181 54.5274 77.2157V76.7947C54.5355 76.5923 54.6448 76.4911 54.7784 76.5721L65.6032 83.1422V83.1341L65.5992 83.126Z" fill="#D591FF"/>
<path d="M57.7691 81.3045C57.9108 81.3854 58.0282 81.6324 58.0241 81.851V82.3003C58.016 82.5189 57.8986 82.6242 57.7529 82.5311L54.7451 80.7013C54.5954 80.6082 54.4861 80.3734 54.4901 80.1548V79.7054C54.4982 79.4868 54.6156 79.3816 54.7613 79.4747L57.7691 81.3045Z" fill="#D591FF"/>
<path d="M63.7588 84.9437C63.9085 85.0368 64.0259 85.2797 64.0219 85.5024V85.9517C64.0138 86.1703 63.8964 86.2756 63.7507 86.1825L58.7107 83.1221C58.569 83.0411 58.4516 82.7942 58.4557 82.5756V82.1262C58.4638 81.9076 58.5812 81.8024 58.7269 81.8955L63.7668 84.9559L63.7588 84.9478V84.9437Z" fill="#91E7FF"/>
<path d="M66.6763 86.7129C66.818 86.7939 66.9354 87.0408 66.9313 87.2594V87.7088C66.9233 87.9274 66.8018 88.0205 66.6601 87.9395L64.5025 86.6279C64.3527 86.5348 64.2434 86.3 64.2474 86.0814V85.6321C64.2555 85.4135 64.3729 85.3082 64.5186 85.4013L66.6763 86.7129V86.7129Z" fill="#D591FF"/>
<path d="M69.6897 88.5427C69.8395 88.6358 69.9569 88.8787 69.9528 89.0973V89.5466C69.9447 89.7652 69.8273 89.8705 69.6816 89.7773L67.5239 88.4657C67.3822 88.3848 67.2649 88.1378 67.2689 87.9192V87.4699C67.277 87.2513 67.3984 87.1582 67.5401 87.2392L69.6978 88.5508L69.6897 88.5427V88.5427Z" fill="white"/>
<path d="M109.03 90.5217V141.361L112.136 139.544V88.6227L109.03 90.5217Z" fill="#6368D7" stroke="#220E6E" stroke-width="0.5" stroke-linecap="round" stroke-linejoin="round"/>
<path d="M109.042 90.5215V141.361L61.6565 113.692V62.7711L109.042 90.5215Z" fill="url(#paint4_linear_30_1457)" stroke="#220E6E" stroke-width="0.5" stroke-linejoin="round"/>
<path d="M61.6565 62.7711L109.042 90.5215L112.136 88.6225L64.7277 60.9033L61.6565 62.7711Z" fill="#67A3FD" stroke="#220E6E" stroke-width="0.5" stroke-linecap="round" stroke-linejoin="round"/>
<path d="M89.0707 104.536C89.2629 104.647 89.3963 104.915 89.3728 105.144V105.211C89.3453 105.44 89.1805 105.535 88.9922 105.424L84.6065 102.843C84.4222 102.732 84.2888 102.464 84.3045 102.227V102.164C84.3319 101.935 84.4928 101.848 84.6811 101.951L89.0668 104.532V104.54L89.0707 104.536Z" fill="#D591FF"/>
<path d="M93.2941 109.319C93.4432 109.406 93.5491 109.619 93.5334 109.793L93.5138 110.034C93.4981 110.211 93.3686 110.283 93.2196 110.196L88.9515 107.681C88.8025 107.594 88.6965 107.381 88.7122 107.207L88.7318 106.967C88.7475 106.789 88.877 106.718 89.0261 106.805L93.2941 109.319Z" fill="#91E7FF"/>
<path d="M91.6332 104.082C91.7862 104.177 91.9 104.394 91.8804 104.584L91.8608 104.785C91.8451 104.975 91.7078 105.046 91.5548 104.959L86.7532 102.128C86.6003 102.034 86.4865 101.817 86.5061 101.627L86.5257 101.426C86.5414 101.236 86.6787 101.165 86.8317 101.252L91.6332 104.082V104.082Z" fill="white"/>
<path d="M91.1635 101.418C91.3322 101.513 91.4577 101.769 91.4381 101.971L91.4263 102.109C91.4067 102.31 91.2576 102.401 91.089 102.306L87.4996 100.19C87.327 100.088 87.2054 99.8389 87.225 99.6376L87.2367 99.4994C87.2564 99.2902 87.4054 99.2073 87.5741 99.3021L91.1635 101.418Z" fill="white"/>
<path d="M89.7397 96.4527C89.9359 96.5672 90.081 96.8553 90.0653 97.104C90.0457 97.3448 89.8653 97.4514 89.6691 97.333L87.8215 96.2474C87.6253 96.1329 87.4763 95.829 87.4959 95.5882C87.5155 95.3474 87.6959 95.2448 87.8999 95.3671L89.7476 96.4527H89.7397V96.4527Z" fill="#91E7FF"/>
<path d="M90.2864 91.0306C90.4826 91.145 90.6277 91.4411 90.612 91.6819C90.5924 91.9227 90.412 92.0293 90.2158 91.9108L77.3137 84.3159C77.1175 84.2014 76.9684 83.8975 76.9881 83.6567C77.0077 83.4159 77.1881 83.3132 77.3921 83.4356L90.2943 91.0306H90.2864Z" fill="white"/>
<path d="M93.5797 98.7147C93.7758 98.8291 93.921 99.1173 93.9053 99.366C93.8857 99.6068 93.7052 99.7134 93.5091 99.595L90.6847 97.9331C90.4885 97.8186 90.3434 97.5225 90.3591 97.2738C90.3787 97.033 90.5591 96.9304 90.7553 97.0449L93.5797 98.7068V98.7147Z" fill="white"/>
<path d="M93.9667 96.3342C94.1628 96.4487 94.308 96.7369 94.2923 96.9856C94.2727 97.2264 94.0922 97.329 93.8961 97.2145L87.545 93.4763C87.3489 93.3618 87.1959 93.0657 87.2194 92.8249C87.243 92.5841 87.4195 92.4815 87.6235 92.6039L93.9745 96.3421V96.3342H93.9667Z" fill="white"/>
<path d="M92.2482 124.564C92.4443 124.679 92.5895 124.975 92.5738 125.224C92.5541 125.465 92.3737 125.567 92.1776 125.453L89.3531 123.791C89.157 123.676 89.0118 123.388 89.0275 123.139C89.0471 122.899 89.2276 122.792 89.4237 122.91L92.2482 124.572V124.564V124.564Z" fill="#91E7FF"/>
<path d="M88.4062 122.307C88.6023 122.421 88.7474 122.717 88.7318 122.966C88.7121 123.207 88.5317 123.309 88.3355 123.195L86.4879 122.109C86.2918 121.995 86.1388 121.699 86.1623 121.458C86.1858 121.217 86.3624 121.11 86.5664 121.229L88.414 122.314V122.307H88.4062Z" fill="white"/>
<path d="M92.6259 122.184C92.8221 122.299 92.9672 122.587 92.9515 122.835C92.9319 123.076 92.7515 123.183 92.5553 123.064L86.2043 119.326C86.0081 119.212 85.8591 118.908 85.8787 118.667C85.8983 118.426 86.0788 118.323 86.2827 118.446L92.6338 122.184H92.6259Z" fill="white"/>
<path d="M88.8237 116.895C89.0199 117.009 89.165 117.297 89.1493 117.546C89.1297 117.787 88.9492 117.885 88.7531 117.775L75.8509 110.18C75.6548 110.065 75.5018 109.769 75.5253 109.529C75.5489 109.288 75.7254 109.185 75.9294 109.308L88.8316 116.903V116.895H88.8237Z" fill="white"/>
<path d="M79.4967 114.451C79.6693 114.554 79.7949 114.81 79.7792 115.011L79.7674 115.134C79.7478 115.347 79.5987 115.434 79.4183 115.331L71.0391 110.397C70.8665 110.294 70.741 110.038 70.7567 109.832L70.7685 109.71C70.7881 109.501 70.945 109.418 71.1176 109.521L79.4967 114.455V114.451Z" fill="white"/>
<path d="M85.2843 120.467C85.4804 120.581 85.6295 120.885 85.6099 121.126C85.5903 121.367 85.4098 121.469 85.2058 121.347L72.9156 114.115C72.7195 114.001 72.5743 113.713 72.59 113.464C72.6096 113.223 72.7901 113.117 72.9862 113.235L85.2764 120.467H85.2843V120.467Z" fill="white"/>
<path d="M85.0222 117.708C85.1948 117.81 85.3164 118.059 85.2968 118.26L85.285 118.391C85.2654 118.6 85.1163 118.691 84.9437 118.588L80.4207 115.919C80.2481 115.817 80.1265 115.568 80.1461 115.359L80.1579 115.229C80.1775 115.027 80.3266 114.937 80.4952 115.031L85.0183 117.7V117.708H85.0222Z" fill="#91E7FF"/>
<path d="M86.5928 111.664C86.7889 111.779 86.9341 112.067 86.9184 112.315C86.8988 112.556 86.7183 112.663 86.5222 112.544L75.1107 105.83C74.9145 105.715 74.7694 105.419 74.7851 105.17C74.8047 104.93 74.9852 104.831 75.1813 104.941L86.5928 111.656V111.664V111.664Z" fill="white"/>
<path d="M92.9628 115.418C93.1589 115.537 93.3041 115.821 93.2884 116.069C93.2688 116.31 93.0883 116.417 92.8922 116.298L87.7533 113.271C87.5571 113.156 87.412 112.86 87.4277 112.611C87.4473 112.371 87.6277 112.268 87.8239 112.383L92.9628 115.41V115.418V115.418Z" fill="#D591FF"/>
<path d="M73.5143 103.959C73.7104 104.073 73.8634 104.369 73.8399 104.61C73.8163 104.851 73.6398 104.957 73.4358 104.839L66.461 100.733C66.2649 100.619 66.1197 100.323 66.1354 100.074C66.1551 99.8334 66.3355 99.7308 66.5316 99.8452L73.5143 103.959V103.959Z" fill="#D591FF"/>
<path d="M74.1433 108.246C74.3394 108.36 74.4924 108.656 74.4689 108.897C74.4454 109.138 74.2688 109.236 74.0648 109.118L66.1368 104.452C65.9407 104.338 65.7955 104.049 65.8112 103.801C65.8308 103.56 66.0113 103.461 66.2074 103.572L74.1354 108.238V108.246H74.1433Z" fill="#D591FF"/>
<path d="M88.6676 106.905C88.8167 106.992 88.9226 107.205 88.9069 107.379L88.8873 107.619C88.8716 107.797 88.7421 107.868 88.5931 107.781L84.329 105.267C84.1799 105.18 84.074 104.967 84.0897 104.793L84.1093 104.552C84.125 104.375 84.2544 104.304 84.4035 104.39L88.6676 106.905Z" fill="white"/>
<path d="M86.4472 98.6388C86.6159 98.7335 86.7336 98.9822 86.7179 99.1914L86.7061 99.3296C86.6865 99.5309 86.5374 99.6217 86.3727 99.5191L82.7833 97.4072C82.6146 97.3124 82.4969 97.0559 82.5126 96.8545L82.5244 96.7164C82.544 96.5072 82.6931 96.4243 82.8578 96.5269L86.4472 98.6388Z" fill="white"/>
<path d="M83.4542 103.834C83.6033 103.921 83.7092 104.134 83.6935 104.307L83.6739 104.548C83.6582 104.726 83.5287 104.797 83.3797 104.71L73.9806 99.1757C73.8315 99.0889 73.7256 98.8757 73.7413 98.702L73.7609 98.4612C73.7766 98.2836 73.906 98.2125 74.0551 98.2994L83.4542 103.834V103.834Z" fill="white"/>
<path d="M83.6102 101.39C83.7828 101.493 83.9084 101.749 83.8927 101.955V102.006C83.8691 102.215 83.7122 102.306 83.5396 102.199L74.2386 96.7243C74.066 96.6217 73.9405 96.3651 73.9562 96.1598V96.1085C73.9797 95.8954 74.1288 95.8085 74.3092 95.9111L83.6102 101.386V101.39Z" fill="white"/>
<path d="M86.3508 91.8578C86.5234 91.9605 86.645 92.2013 86.6254 92.4105L86.6136 92.5408C86.594 92.75 86.4449 92.8329 86.2723 92.7302L81.7493 90.0617C81.5767 89.9591 81.4551 89.7104 81.4747 89.5091L81.4865 89.3788C81.5061 89.1696 81.6552 89.0867 81.8239 89.1814L86.3469 91.8499V91.8578H86.3508Z" fill="#D591FF"/>
<path d="M85.0578 99.9045C85.2108 99.9993 85.3246 100.216 85.305 100.406L85.2854 100.607C85.2697 100.797 85.1324 100.868 84.9794 100.781L74.4466 94.5754C74.2936 94.4807 74.1799 94.2636 74.1995 94.0741L74.2191 93.8728C74.2348 93.6833 74.3721 93.6123 74.5251 93.6991L85.0578 99.9045V99.9045Z" fill="#91E7FF"/>
<path d="M90.7088 111.917C90.8932 112.027 91.0304 112.303 91.0108 112.525C90.9912 112.746 90.8186 112.848 90.6342 112.738L66.6148 98.5978C66.4226 98.4873 66.2931 98.211 66.3128 97.982C66.3324 97.7531 66.4971 97.6583 66.6893 97.7688L90.7127 111.913L90.7088 111.917Z" fill="#D591FF"/>
<path d="M81.8798 95.9586C82.0524 96.0613 82.174 96.31 82.1544 96.5113L82.1426 96.6495C82.123 96.8508 81.9739 96.9416 81.8052 96.8468L73.7164 92.0862C73.5438 91.9835 73.4222 91.7348 73.4418 91.5335L73.4535 91.3954C73.4732 91.1861 73.6222 91.1032 73.7909 91.198L81.8798 95.9586Z" fill="#D591FF"/>
<path d="M86.6188 94.6173C86.8149 94.7317 86.9679 95.0278 86.9443 95.2686C86.9208 95.5094 86.7443 95.616 86.5403 95.4976L74.2501 88.2658C74.054 88.1513 73.9088 87.8552 73.9245 87.6065C73.9441 87.3657 74.1246 87.2631 74.3207 87.3776L86.6109 94.6094V94.6173H86.6188Z" fill="white"/>
<path d="M72.9128 95.0902C73.0854 95.1928 73.2109 95.4494 73.1952 95.6547V95.706C73.1717 95.9152 73.0226 96.006 72.8422 95.9034L67.1698 92.5638C66.9971 92.4612 66.8716 92.2046 66.8873 91.9993V91.948C66.9108 91.7348 67.0599 91.648 67.2404 91.7506L72.9128 95.0902Z" fill="white"/>
<path d="M73.8508 93.6178C74.0038 93.7125 74.1175 93.9296 74.0979 94.1191L74.0783 94.3204C74.0626 94.5099 73.9253 94.5809 73.7723 94.4941L67.2918 90.6769C67.1388 90.5821 67.0251 90.365 67.0447 90.1756L67.0643 89.9742C67.08 89.7848 67.2173 89.7137 67.3703 89.8005L73.8586 93.6217H73.8508V93.6178Z" fill="white"/>
<path d="M80.8324 88.6052C81.005 88.7079 81.1306 88.9645 81.1149 89.1658L81.1031 89.2881C81.0835 89.4974 80.9344 89.5882 80.754 89.4776L72.3748 84.5433C72.2022 84.4406 72.0767 84.1841 72.0924 83.9827L72.1042 83.8604C72.1238 83.6511 72.2807 83.5682 72.4533 83.6709L80.8324 88.6052Z" fill="white"/>
<path d="M72.4999 90.432C72.6725 90.5347 72.7941 90.7834 72.7745 90.9847L72.7628 91.1228C72.7431 91.3242 72.5941 91.415 72.4254 91.3202L67.514 88.4267C67.3453 88.332 67.2277 88.0754 67.2433 87.8741L67.2551 87.7359C67.2747 87.5267 67.4238 87.4438 67.5886 87.5464L72.4999 90.4399V90.432V90.432Z" fill="white"/>
<path d="M88.0486 85.7962C88.2448 85.9107 88.3899 86.1989 88.3742 86.4476C88.3546 86.6884 88.1741 86.791 87.978 86.6765L76.5626 79.9619C76.3665 79.8474 76.2213 79.5592 76.237 79.3105C76.2566 79.0697 76.4371 78.9671 76.6332 79.0816L88.0447 85.7962H88.0486Z" fill="#91E7FF"/>
<path d="M75.5937 82.3777C75.7899 82.4921 75.9389 82.7961 75.9193 83.029C75.8997 83.2619 75.7193 83.3764 75.5153 83.2579L67.5873 78.5841C67.3911 78.4696 67.246 78.1736 67.2617 77.9249C67.2813 77.6841 67.4617 77.5815 67.6579 77.6959L75.5859 82.3619V82.3777H75.5937Z" fill="#D591FF"/>
<path d="M92.1546 86.0409C92.3389 86.1514 92.4802 86.4198 92.4566 86.6488C92.4331 86.8778 92.2644 86.9646 92.08 86.862L68.0645 72.726C67.8723 72.6155 67.7389 72.3471 67.7625 72.1181C67.786 71.8892 67.9468 71.7944 68.139 71.905L92.1585 86.0409H92.1546Z" fill="#D591FF"/>
<path d="M74.9642 78.0948C75.1604 78.2093 75.3134 78.5053 75.2898 78.7461C75.2663 78.9869 75.0898 79.0895 74.8858 78.9672L67.9071 74.8578C67.7109 74.7434 67.5658 74.4552 67.5815 74.2065C67.6011 73.9657 67.7815 73.8631 67.9777 73.9776L74.9603 78.0908H74.9682L74.9642 78.0948Z" fill="white"/>
<path d="M94.4191 89.5503C94.6152 89.6687 94.7604 89.9529 94.7447 90.2016C94.7251 90.4424 94.5446 90.545 94.3485 90.4305L89.2096 87.4028C89.0134 87.2884 88.8683 87.0002 88.884 86.7515C88.9036 86.5107 89.084 86.4081 89.2802 86.5225L94.4191 89.5503V89.5503Z" fill="white"/>
<path d="M100.987 93.4227C101.183 93.5372 101.328 93.8253 101.313 94.074C101.293 94.3148 101.113 94.4175 100.917 94.303L95.7777 91.2753C95.5815 91.1608 95.4364 90.8726 95.4521 90.6239C95.4717 90.3831 95.6522 90.2805 95.8483 90.395L100.987 93.4227Z" fill="white"/>
<path d="M97.6432 107.623C97.7962 107.718 97.91 107.935 97.8904 108.125L97.8708 108.326C97.8551 108.516 97.7178 108.587 97.5648 108.5L92.7633 105.677C92.6103 105.583 92.4965 105.365 92.5161 105.176L92.5357 104.975C92.5514 104.785 92.6887 104.714 92.8417 104.801L97.6432 107.631V107.623Z" fill="white"/>
<path d="M72.7656 97.5415C72.9146 97.6284 73.0206 97.8415 73.0049 98.0152L72.9853 98.256C72.9696 98.4337 72.8401 98.5047 72.691 98.4179L66.9088 95.0112C66.7597 94.9243 66.6538 94.7112 66.6695 94.5375L66.6891 94.2967C66.7048 94.1191 66.8343 94.048 66.9833 94.1309L72.7616 97.5297V97.5376L72.7656 97.5415Z" fill="#D591FF"/>
<path d="M72.9598 86.5761C73.1324 86.6787 73.2579 86.9353 73.2423 87.1485L73.2344 87.259C73.2148 87.4722 73.0657 87.5669 72.8853 87.4564L67.6091 84.3497C67.4365 84.2471 67.3031 83.9826 67.3227 83.7773L67.3306 83.6668C67.3502 83.4536 67.5071 83.3668 67.6797 83.4655L72.9559 86.5722V86.5801L72.9598 86.5761Z" fill="#D591FF"/>
<path d="M71.4051 83.051C71.5542 83.1378 71.6601 83.351 71.6444 83.5246L71.6248 83.7654C71.6091 83.9431 71.4796 84.0141 71.3306 83.9273L67.7726 81.8351C67.6235 81.7483 67.5176 81.5351 67.5333 81.3614L67.5529 81.1206C67.5686 80.943 67.698 80.8719 67.8471 80.9627L71.4051 83.0549V83.047V83.051Z" fill="white"/>
<path d="M99.5394 119.283C99.7356 119.397 99.8807 119.685 99.865 119.934C99.8454 120.175 99.665 120.281 99.4688 120.163L94.3299 117.135C94.1338 117.021 93.9886 116.725 94.0043 116.476C94.0239 116.235 94.2044 116.133 94.4005 116.247L99.5394 119.275V119.283Z" fill="white"/>
<path d="M71.6341 112.426C71.8067 112.528 71.9323 112.785 71.9166 112.998L71.9087 113.109C71.8891 113.322 71.74 113.417 71.5596 113.306L66.2834 110.199C66.1108 110.097 65.9774 109.836 65.997 109.627L66.0049 109.517C66.0245 109.303 66.1814 109.217 66.354 109.315L71.6302 112.422V112.43L71.6341 112.426Z" fill="#D591FF"/>
<path d="M70.0709 108.901C70.2199 108.987 70.3259 109.201 70.3102 109.374L70.2906 109.615C70.2749 109.793 70.1454 109.864 69.9963 109.781L66.4383 107.689C66.2893 107.602 66.1834 107.389 66.1991 107.215L66.2187 106.974C66.2344 106.797 66.3638 106.726 66.5129 106.812L70.0709 108.905V108.901Z" fill="#D591FF"/>
<path d="M105.419 52.7327C100.887 50.117 97.2146 43.7818 97.2146 38.5816C97.2146 36.6532 97.7252 35.1607 98.5932 34.171C96.107 34.3516 94.426 36.4332 94.426 39.9445C94.426 45.1446 98.0983 51.4798 102.631 54.0956C105.478 55.7373 107.976 55.5135 109.445 53.8324C108.255 53.9189 106.884 53.5732 105.419 52.7288V52.7327Z" fill="#66BDFF" stroke="#220E6E" stroke-width="0.5" stroke-linecap="round" stroke-linejoin="round"/>
<path d="M113.394 51.0164C113.394 50.3645 113.339 49.7007 113.252 49.0291L116.567 48.6088C116.23 46.9396 115.719 45.2507 115.063 43.5894L111.285 42.4465C110.625 41.0325 109.832 39.6657 108.932 38.3893L109.839 34.5756C108.72 33.1774 107.506 31.8891 106.222 30.7619L104.188 33.3934C103.646 32.9849 103.092 32.6 102.526 32.274C101.961 31.948 101.407 31.6927 100.865 31.4767L98.8304 26.4965C97.546 26.1431 96.3324 26.0252 95.2131 26.1313L96.1203 30.9897C95.2209 31.2253 94.4275 31.677 93.7677 32.329L89.9894 29.1084C89.3335 30.0156 88.8229 31.1154 88.4851 32.3918L91.8 36.6415C91.7175 37.2149 91.6586 37.8198 91.6586 38.4678C91.6586 39.1159 91.7136 39.7836 91.8 40.4552L88.4851 40.8754C88.8229 42.5446 89.3335 44.2335 89.9894 45.8949L93.7677 47.0378C94.4275 48.4517 95.2209 49.8185 96.1203 51.095L95.2131 54.9087C96.3324 56.3069 97.546 57.5951 98.8304 58.7224L100.865 56.0909C101.407 56.4994 101.961 56.8843 102.526 57.2102C103.092 57.5362 103.646 57.7915 104.188 58.0075L106.222 62.9877C107.506 63.3412 108.72 63.459 109.839 63.353L108.932 58.4946C109.832 58.2589 110.625 57.8072 111.285 57.1553L115.063 60.3759C115.719 59.4686 116.23 58.3689 116.567 57.0924L113.252 52.8428C113.335 52.2693 113.394 51.6645 113.394 51.0164V51.0164ZM102.632 54.0957C98.0998 51.4799 94.4275 45.1447 94.4275 39.9446C94.4275 34.7445 98.0998 32.6511 102.632 35.2668C107.165 37.8826 110.837 44.2178 110.837 49.4179C110.837 54.618 107.165 56.7114 102.632 54.0957Z" fill="#ABD9FF" stroke="#220E6E" stroke-width="0.5" stroke-linecap="round" stroke-linejoin="round"/>
<path d="M104.041 29.6463L102.007 24.6661L98.8291 26.4925L100.86 31.4726L104.041 29.6463Z" fill="#66BDFF" stroke="#220E6E" stroke-width="0.5" stroke-linecap="round" stroke-linejoin="round"/>
<path d="M100.859 31.4728C101.401 31.6888 101.955 31.9441 102.521 32.27C103.086 32.596 103.64 32.9809 104.182 33.3894L106.217 30.7579C106.217 30.7579 105.875 30.5419 105.698 30.4437C105.133 30.1177 104.579 29.8624 104.037 29.6464L100.859 31.4728V31.4728Z" fill="#D1EBFF" stroke="#220E6E" stroke-width="0.5" stroke-linecap="round" stroke-linejoin="round"/>
<path d="M102.005 24.6662C100.721 24.3127 99.5075 24.1949 98.3881 24.3009L95.2107 26.1273C96.3301 26.0212 97.5437 26.1391 98.828 26.4925L102.005 24.6662V24.6662Z" fill="#D1EBFF" stroke="#220E6E" stroke-width="0.5" stroke-linecap="round" stroke-linejoin="round"/>
<path d="M113.017 32.7491C111.898 31.3509 110.684 30.0626 109.4 28.9354L106.222 30.7618C107.506 31.889 108.72 33.1772 109.839 34.5754L113.017 32.7491Z" fill="#D1EBFF" stroke="#220E6E" stroke-width="0.5" stroke-linecap="round" stroke-linejoin="round"/>
<path d="M109.84 34.5755L108.937 38.3892L112.114 36.5629L113.021 32.7492L109.84 34.5755Z" fill="#66BDFF" stroke="#220E6E" stroke-width="0.5" stroke-linecap="round" stroke-linejoin="round"/>
<path d="M108.937 38.3892C109.836 39.6657 110.629 41.0325 111.289 42.4464L114.467 40.6201C113.807 39.2061 113.013 37.8393 112.114 36.5629L108.937 38.3892Z" fill="#66BDFF" stroke="#220E6E" stroke-width="0.5" stroke-linecap="round" stroke-linejoin="round"/>
<path d="M111.29 42.4464L115.068 43.5894L118.245 41.763L114.467 40.6201L111.29 42.4464Z" fill="#D1EBFF" stroke="#220E6E" stroke-width="0.5" stroke-linecap="round" stroke-linejoin="round"/>
<path d="M115.066 43.5893C115.722 45.2506 116.232 46.9395 116.57 48.6087L119.747 46.7824C119.41 45.1132 118.899 43.4243 118.243 41.7629L115.066 43.5893Z" fill="#66BDFF" stroke="#220E6E" stroke-width="0.5" stroke-linecap="round" stroke-linejoin="round"/>
<path d="M96.1151 30.9857L95.8519 29.5717L93.1615 27.278L89.9841 29.1043L93.7625 32.325C94.4223 31.673 95.2157 31.2213 96.1151 30.9857Z" fill="#66BDFF" stroke="#220E6E" stroke-width="0.5" stroke-linecap="round" stroke-linejoin="round"/>
<path d="M116.566 57.0921C116.228 58.3725 115.717 59.4683 115.061 60.3756L118.239 58.5493C118.895 57.642 119.405 56.5423 119.743 55.2658L116.566 57.0921Z" fill="#66BDFF" stroke="#220E6E" stroke-width="0.5" stroke-linecap="round" stroke-linejoin="round"/>
<path d="M116.428 51.0202C116.511 50.4468 116.57 49.8419 116.57 49.1939C116.57 49.0014 116.558 48.809 116.546 48.6126L113.251 49.0289C113.333 49.7005 113.392 50.3682 113.392 51.0163C113.392 51.6643 113.337 52.2692 113.251 52.8426L116.428 51.0163V51.0202Z" fill="#66BDFF" stroke="#220E6E" stroke-width="0.5" stroke-linecap="round" stroke-linejoin="round"/>
<path d="M113.251 52.8426L116.566 57.0922L119.747 55.2659L116.428 51.0202L113.251 52.8426Z" fill="#D1EBFF" stroke="#220E6E" stroke-width="0.5" stroke-linecap="round" stroke-linejoin="round"/>
<path d="M111.289 57.1591C110.629 57.8111 109.836 58.2628 108.937 58.4984L109.844 63.3568L113.021 61.5305L112.381 58.086L111.293 57.1591H111.289Z" fill="#66BDFF" stroke="#220E6E" stroke-width="0.5" stroke-linecap="round" stroke-linejoin="round"/>
<path d="M91.6778 39.0018L88.4807 40.8792L91.7956 40.4589C91.7328 39.968 91.6974 39.4849 91.6778 39.0018Z" fill="#D1EBFF" stroke="#220E6E" stroke-width="0.5" stroke-linecap="round" stroke-linejoin="round"/>
<path d="M100.859 56.0907L98.825 58.7222L102.026 56.8998C101.633 56.6484 101.24 56.3813 100.859 56.0907V56.0907Z" fill="#66BDFF" stroke="#220E6E" stroke-width="0.5" stroke-linecap="round" stroke-linejoin="round"/>
<defs>
<linearGradient id="paint0_linear_30_1457" x1="49.197" y1="26.5297" x2="105.857" y2="99.0548" gradientUnits="userSpaceOnUse">
<stop stop-color="#F3E0FF"/>
<stop offset="0.40625" stop-color="#DBE3FF"/>
<stop offset="1" stop-color="#BFF2FD"/>
</linearGradient>
<linearGradient id="paint1_linear_30_1457" x1="64.0339" y1="34.3931" x2="136.419" y2="50.1988" gradientUnits="userSpaceOnUse">
<stop stop-color="#E6C1FF"/>
<stop offset="0.40625" stop-color="#B6C7FF"/>
<stop offset="1" stop-color="#AFF1FF"/>
</linearGradient>
<linearGradient id="paint2_linear_30_1457" x1="28.7993" y1="19.7301" x2="76.0162" y2="88.4778" gradientUnits="userSpaceOnUse">
<stop stop-color="#F45FAE"/>
<stop offset="0.21" stop-color="#874AE4"/>
<stop offset="0.46" stop-color="#1B87FF"/>
<stop offset="0.77" stop-color="#1DA4FF"/>
<stop offset="1" stop-color="#4AEAFF"/>
</linearGradient>
<linearGradient id="paint3_linear_30_1457" x1="30.8626" y1="29.3768" x2="30.8626" y2="58.1977" gradientUnits="userSpaceOnUse">
<stop stop-color="#43FFFD"/>
<stop offset="1" stop-color="#1E94D7"/>
</linearGradient>
<linearGradient id="paint4_linear_30_1457" x1="61.9592" y1="62.4488" x2="107.771" y2="120.347" gradientUnits="userSpaceOnUse">
<stop stop-color="#F45FAE"/>
<stop offset="0.21" stop-color="#874AE4"/>
<stop offset="0.46" stop-color="#1B87FF"/>
<stop offset="0.77" stop-color="#1DA4FF"/>
<stop offset="1" stop-color="#4AEAFF"/>
</linearGradient>
</defs>
</svg>
