<svg width="722" height="467" viewBox="0 0 722 467" fill="none" xmlns="http://www.w3.org/2000/svg">
<path d="M529.185 -42.2192L529.063 -42.1316C522.02 -37.3138 515.591 -31.953 509.739 -26.1542C507.006 -23.4563 504.414 -20.6533 501.943 -17.7626C499.666 -15.0997 497.494 -12.3493 495.444 -9.54621C493.867 -7.39137 492.378 -5.2015 490.941 -2.97658C488.226 1.2455 485.738 5.59021 483.513 10.0576C482.059 12.9482 480.728 15.8914 479.484 18.8521L479.186 19.5529C476.401 26.3678 474.141 33.3754 472.476 40.5056C470.637 48.3191 469.481 56.2902 469.008 64.3315C468.447 73.9844 468.885 83.7075 470.357 93.3605C473.405 113.315 480.868 132.901 493.026 150.665C535.387 212.542 618.97 229.378 681.794 189.522C683.178 188.646 684.544 187.753 685.911 186.807C687.575 185.668 689.204 184.512 690.798 183.321C692.585 181.989 694.337 180.605 696.054 179.186C699.172 176.628 702.133 173.948 704.954 171.162C707.511 168.64 709.964 166.029 712.294 163.349C712.96 162.596 713.608 161.825 714.256 161.054C717.655 156.972 720.791 152.732 723.664 148.335C725.381 145.69 727.01 143.009 728.552 140.276C736.768 125.648 742.199 109.688 744.704 93.2553C745.528 87.9121 746.036 82.5162 746.228 77.1028C746.474 70.3405 746.228 63.5606 745.458 56.7983C744.915 51.8579 744.091 46.9176 742.987 42.0298C739.256 25.2816 732.336 8.95387 722.052 -6.05993C721.649 -6.65557 721.229 -7.25122 720.808 -7.82935C719.477 -9.72141 718.11 -11.5609 716.674 -13.3829C716.411 -13.7157 716.131 -14.0661 715.868 -14.399C715.202 -15.2224 714.537 -16.0458 713.871 -16.8516C713.556 -17.2371 713.24 -17.605 712.907 -17.9904C712.627 -18.3232 712.329 -18.6561 712.049 -18.989C711.804 -19.2693 711.558 -19.5496 711.313 -19.8299C711.015 -20.1452 710.717 -20.4781 710.437 -20.8109C710.157 -21.1263 709.877 -21.4241 709.596 -21.7394C709.316 -22.0548 709.036 -22.3526 708.738 -22.668C708.458 -22.9658 708.16 -23.2811 707.879 -23.5789C707.599 -23.8768 707.301 -24.1921 707.003 -24.4899C706.565 -24.9454 706.11 -25.4184 705.654 -25.8739C705.339 -26.1893 705.024 -26.5046 704.708 -26.82C704.638 -26.89 704.551 -26.9776 704.481 -27.0477C704.2 -27.328 703.903 -27.6083 703.622 -27.8886C702.886 -28.6069 702.133 -29.3077 701.38 -29.9909C700.924 -30.3938 700.486 -30.8143 700.013 -31.2172C699.575 -31.6026 699.137 -32.0056 698.699 -32.3735C696.842 -34.0028 694.933 -35.5795 692.988 -37.0861C692.025 -37.8394 691.061 -38.5752 690.08 -39.2935C689.519 -39.6964 688.959 -40.1169 688.398 -40.5198C687.96 -40.8177 687.54 -41.133 687.102 -41.4308C686.594 -41.7812 686.103 -42.1316 685.595 -42.4644C685.087 -42.8148 684.579 -43.1477 684.071 -43.4805C683.563 -43.8134 683.055 -44.1463 682.529 -44.4791C681.513 -45.1448 680.462 -45.7931 679.428 -46.4062C678.903 -46.7216 678.377 -47.0369 677.852 -47.3347C677.326 -47.6501 676.801 -47.9479 676.275 -48.2457C675.749 -48.5435 675.206 -48.8414 674.681 -49.1392C673.612 -49.7348 672.526 -50.313 671.457 -50.8736C670.371 -51.4342 669.285 -51.9773 668.199 -52.5028C667.761 -52.7131 667.323 -52.9233 666.867 -53.1335C666.359 -53.3613 665.851 -53.6065 665.343 -53.8343C664.958 -54.0095 664.555 -54.2022 664.152 -54.3774C663.539 -54.6577 662.908 -54.938 662.277 -55.2008C661.769 -55.4285 661.244 -55.6387 660.736 -55.849C660.158 -56.0942 659.562 -56.3395 658.984 -56.5672C658.283 -56.8475 657.565 -57.1279 656.864 -57.3906C656.321 -57.5833 655.795 -57.7936 655.252 -57.9863C654.727 -58.179 654.201 -58.3717 653.658 -58.5644C653.132 -58.7396 652.607 -58.9323 652.081 -59.1075C651.801 -59.2126 651.538 -59.3002 651.258 -59.3878C650.978 -59.4754 650.697 -59.5805 650.399 -59.6681C632.6 -65.4494 613.785 -67.6042 595.092 -65.9399C595.092 -65.9399 595.092 -65.9399 595.057 -65.9399C594.724 -65.9224 594.409 -65.8874 594.076 -65.8523C590.993 -65.5545 587.909 -65.1516 584.843 -64.6435C581.532 -64.1004 578.239 -63.4347 574.963 -62.6463C573.071 -62.1908 571.179 -61.7003 569.321 -61.1572C560.212 -58.5469 551.277 -54.973 542.64 -50.4006C538.05 -47.9654 533.565 -45.25 529.168 -42.2542L529.185 -42.2192Z" fill="url(#paint0_linear_30_2013)"/>
<g style="mix-blend-mode:screen">
<path d="M480.167 102.575C487.735 108.304 496.284 113.84 499.823 122.635C501.767 127.47 502.013 132.901 504.465 137.491C507.566 143.237 513.768 146.758 520.092 148.318C526.434 149.894 533.039 149.807 539.556 150.087C550.628 150.578 561.823 152.312 572.141 156.499C577.485 158.671 585.438 161.842 588.539 166.993C589.59 168.727 589.993 170.759 590.992 172.511C591.728 173.825 592.779 174.947 592.586 176.593C592.323 178.801 589.538 179.799 587.348 179.396C583.599 178.696 580.165 177.452 576.346 176.821C573.963 176.436 570.915 176.856 570.827 179.712C570.722 183.443 575.943 184.459 578.413 185.563C586.139 189.049 592.078 192.028 600.82 192.536C609.247 193.026 617.831 192.378 626.03 194.375C630.164 195.374 634.159 197.038 638.381 197.476C646.527 198.317 649.015 192.395 655.584 189.47C662.137 186.544 669.687 188.086 676.817 189.032C678.429 189.242 680.111 189.4 681.775 189.47C618.952 229.326 535.351 212.507 493.008 150.613C480.885 132.883 473.404 113.297 470.373 93.3429C473.141 96.8292 476.663 99.9126 480.184 102.575H480.167ZM559.615 181.061C559.212 179.519 558.179 178.223 557.11 177.049C551.259 170.619 543.06 166.345 534.44 165.223C532.303 164.943 529.535 165.241 528.869 167.291C528.519 168.359 528.939 169.516 529.412 170.549C532.654 177.627 538.908 182.883 546.196 185.423C549.927 186.737 561.683 188.769 559.615 181.043V181.061ZM610.368 183.986C610.928 183.899 611.524 183.741 611.857 183.303C612.435 182.532 611.892 181.446 611.314 180.675C608.721 177.294 605.06 174.736 600.995 173.457C596.773 172.143 597.316 178.117 599.243 180.132C602.046 183.075 606.356 184.599 610.368 183.986ZM594.25 -65.7647C596.02 -63.5223 598.262 -60.1061 600.838 -58.687C603.991 -56.9527 608.581 -56.9527 612.032 -55.8139C619.758 -53.2562 626.958 -49.0341 632.897 -43.463C634.894 -41.5885 636.804 -39.5388 639.309 -38.4526C641.814 -37.3664 645.126 -37.5766 646.79 -39.749C648.314 -41.7462 647.981 -44.6894 649.488 -46.6865C651.73 -49.6472 656.373 -48.7888 659.807 -47.3522C672.665 -42.0265 684.298 -32.4961 692.059 -20.9161C697.525 -12.7697 700.643 -3.23937 705.882 5.06464C714.273 17.7309 726.221 26.7882 737.433 36.7916C739.36 38.5084 741.2 40.2428 742.987 42.0473C739.255 25.2991 732.335 8.97138 722.052 -6.04242C721.649 -6.63806 721.228 -7.2337 720.808 -7.81183C719.476 -9.70388 718.11 -11.5434 716.673 -13.3654C716.41 -13.6982 716.13 -14.0486 715.867 -14.3815C715.202 -15.2049 714.536 -16.0282 713.87 -16.8341C713.555 -17.2195 713.24 -17.5874 712.907 -17.9729C712.626 -18.3057 712.329 -18.6386 712.048 -18.9714C711.803 -19.2517 711.558 -19.5321 711.312 -19.8124C711.015 -20.1277 710.717 -20.4606 710.436 -20.7934C710.156 -21.1088 709.876 -21.4066 709.596 -21.7219C709.315 -22.0373 709.035 -22.3351 708.737 -22.6504C708.457 -22.9483 708.159 -23.2636 707.879 -23.5614C707.598 -23.8592 707.301 -24.1746 707.003 -24.4724C706.565 -24.9279 706.109 -25.4009 705.654 -25.8564C705.338 -26.1718 705.023 -26.4871 704.708 -26.8024C704.638 -26.8725 704.55 -26.9601 704.48 -27.0302C704.2 -27.3105 703.902 -27.5908 703.622 -27.8711C702.886 -28.5894 702.132 -29.2901 701.379 -29.9734C700.924 -30.3763 700.486 -30.7968 700.013 -31.1997C699.575 -31.5851 699.137 -31.9881 698.699 -32.356C696.842 -33.9852 694.932 -35.5619 692.988 -37.0686C692.024 -37.8219 691.043 -38.5577 690.079 -39.276C689.519 -39.6789 688.958 -40.0994 688.398 -40.5023C687.96 -40.8001 687.539 -41.1155 687.101 -41.4133C686.593 -41.7637 686.103 -42.1141 685.595 -42.4469C685.086 -42.7973 684.578 -43.1302 684.07 -43.463C683.562 -43.7959 683.054 -44.1287 682.529 -44.4616C681.495 -45.1273 680.461 -45.758 679.428 -46.3887C678.902 -46.704 678.377 -47.0194 677.851 -47.3172C677.326 -47.6325 676.8 -47.9304 676.274 -48.2282C675.749 -48.526 675.206 -48.8238 674.68 -49.1217C673.611 -49.7173 672.525 -50.2954 671.457 -50.856C670.37 -51.4167 669.284 -51.9597 668.198 -52.4853C667.76 -52.6955 667.322 -52.9058 666.867 -53.116C666.359 -53.3437 665.851 -53.589 665.343 -53.8168C664.957 -53.9919 664.554 -54.1847 664.151 -54.3598C663.538 -54.6402 662.907 -54.9205 662.277 -55.1832C661.769 -55.411 661.243 -55.6212 660.735 -55.8314C660.157 -56.0767 659.561 -56.322 658.983 -56.5497C658.282 -56.83 657.564 -57.1103 656.863 -57.3731C656.32 -57.5658 655.795 -57.7761 655.252 -57.9688C654.726 -58.1615 654.2 -58.3542 653.657 -58.5469C653.132 -58.7221 652.606 -58.9148 652.081 -59.09C651.8 -59.1951 651.538 -59.2827 651.257 -59.3703C650.977 -59.4579 650.697 -59.563 650.399 -59.6506C632.599 -65.4494 613.784 -67.6042 595.091 -65.9399C595.091 -65.9399 595.091 -65.9399 595.056 -65.9399C594.793 -65.8874 594.513 -65.8348 594.25 -65.7822V-65.7647ZM666.569 -32.2684C663.941 -33.3545 652.887 -36.578 653.167 -32.7063C653.237 -31.8129 653.675 -30.9895 654.148 -30.2362C658.528 -22.9307 665.115 -16.9743 672.823 -13.3654C674.26 -12.6996 676.047 -12.1215 677.343 -13.0325C678.71 -13.9785 678.727 -15.9932 678.394 -17.6225C676.975 -23.8768 672.613 -29.7807 666.569 -32.2684ZM580.953 131.377C579.061 128.521 576.486 126.086 573.385 124.667C570.284 123.248 566.623 122.898 563.399 124.036C561.683 124.649 559.983 125.823 559.475 127.575C558.844 129.747 560.193 131.955 561.525 133.777C563.767 136.86 566.325 139.979 569.864 141.38C576.223 143.885 585.631 138.419 580.953 131.377ZM521.406 139.33C526.242 141.047 531.234 140.574 535.982 142.589C538.242 143.552 541.133 144.131 542.902 142.431C544.251 141.135 544.321 138.91 543.55 137.211C542.78 135.511 541.308 134.232 539.836 133.076C533.056 127.768 525.138 124.141 517.307 120.567C514.889 119.464 511.999 118.378 509.704 119.727C508.074 120.69 507.268 122.705 507.356 124.597C507.444 126.489 508.285 128.258 509.318 129.853C512.139 134.25 516.501 137.596 521.424 139.348L521.406 139.33ZM626.503 179.694C626.363 180.903 627.063 182.042 627.817 183.023C630.672 186.789 634.649 189.96 639.327 190.731C646.527 191.905 650.714 185.931 656.46 182.97C661.436 180.412 667.27 179.466 672.771 180.518C678.78 181.656 684.684 182.585 690.798 183.321C692.585 181.989 694.336 180.605 696.053 179.186C693.461 179.028 690.885 178.748 688.363 178.153C681.845 176.611 677.431 170.707 670.458 171.268C664.361 171.776 659.526 176.979 653.5 177.96C649.33 178.643 645.143 177.241 641.044 176.225C636.944 175.209 632.337 174.684 628.71 176.856C627.642 177.504 626.643 178.468 626.503 179.712V179.694ZM479.483 18.8346L479.185 19.5353C476.4 26.3502 474.14 33.3578 472.476 40.4881C472.546 40.6107 472.616 40.7333 472.668 40.8385C475.682 46.1467 481.516 50.071 482.374 56.1151C483.197 61.8788 479.15 67.0469 477.276 72.5479C471.67 89.0333 486.438 100.421 498.772 107.901C499.893 108.584 501.067 109.233 502.381 109.39C503.677 109.548 505.131 109.11 505.832 108.006C506.743 106.552 506.077 104.678 505.324 103.136C501.014 94.2539 491.694 85.5645 493.253 74.7553C494.059 69.1667 498.264 64.2789 497.966 58.6553C497.721 53.6098 493.954 49.5805 491.081 45.4109C485.703 37.5799 482.689 28.47 479.641 19.3602C479.571 19.185 479.518 18.9922 479.466 18.8171L479.483 18.8346ZM490.923 -2.9941C488.208 1.22798 485.72 5.57269 483.495 10.04C485.58 13.1759 488.821 15.5585 492.482 16.487C493.569 16.7673 494.777 16.9075 495.758 16.3469C496.74 15.7863 497.265 14.63 497.335 13.4913C497.405 12.3701 497.072 11.2488 496.722 10.1627C495.688 6.97421 493.919 0.807526 490.923 -2.9941ZM574.979 -62.6288C579.569 -56.8475 586.77 -54.5876 592.516 -50.1027C595.897 -47.4574 596.966 -43.9711 599.839 -41.0454C602.712 -38.1197 606.654 -36.3328 610.49 -35.0889C616.132 -33.2494 622.141 -32.2158 627.134 -28.9923C630.97 -26.5046 633.913 -22.8782 636.716 -19.2693C641.727 -12.8047 646.527 -6.14753 651.065 0.667374C653.92 4.95953 656.723 9.33928 660.455 12.9132C664.169 16.4695 669.004 19.1674 674.155 19.255C679.042 19.3426 683.983 17.0827 688.695 18.3966C691.726 19.2375 694.161 21.4274 696.456 23.5647C707.651 33.9535 719.862 44.1671 729.707 55.7471C735.524 62.5971 741.41 69.5346 746.245 77.0678C746.491 70.3054 746.245 63.5256 745.475 56.7632C740.447 49.5454 734.14 43.151 727.92 36.8792C721.579 30.4847 715.237 24.0728 708.895 17.6783C696.859 5.52013 683.965 -7.12859 667.375 -11.3507C664.87 -11.9814 662.294 -12.4193 659.912 -13.4179C654.796 -15.5552 651.117 -20.0226 647.228 -23.9994C636.384 -35.124 622.719 -43.2528 608.195 -48.7713C603.851 -50.4356 599.366 -51.8721 595.442 -54.3949C591.255 -57.0753 587.979 -60.7718 584.86 -64.6435C581.549 -64.1004 578.256 -63.4347 574.979 -62.6463V-62.6288ZM710.016 105.781C711.137 105.501 712.258 104.923 712.907 103.959C714.256 101.91 712.942 99.1943 711.558 97.1621C707.756 91.5385 703.096 86.1952 697.21 82.6739C694.564 81.0972 692.515 80.6767 689.606 80.2738C686.908 79.8883 683.755 78.0138 681.11 78.1715C680.374 78.224 679.673 78.5744 679.06 78.9773C676.537 80.5891 674.487 83.5323 675.171 86.458C675.416 87.4566 675.942 88.3675 676.572 89.1909C678.307 91.4509 680.777 93.1327 683.51 93.9211C685.577 94.5167 687.767 94.6218 689.782 95.3226C696.526 97.6701 701.922 107.884 710.016 105.799V105.781ZM610.403 -27.3455C607.652 -28.0813 604.727 -28.5543 601.959 -27.8711C599.191 -27.1879 596.633 -25.0681 596.16 -22.2475C595.634 -19.1291 597.702 -16.1334 600.137 -14.1362C602.327 -12.3317 604.884 -11.0003 607.407 -9.70389C616.026 -5.23654 624.646 -0.751671 633.283 3.71568C634.579 4.39892 636.401 4.97704 637.33 3.83831C637.908 3.12003 637.785 2.08641 637.575 1.19294C634.719 -11.2456 622.614 -24.087 610.42 -27.363L610.403 -27.3455ZM665.64 34.2688C667.743 34.7418 669.985 34.5667 671.982 33.7433C673.541 33.0951 674.768 32.9199 676.397 32.552C678.096 32.1665 679.463 31.4132 680.111 29.7139C680.216 29.4336 680.286 29.1182 680.181 28.8555C680.059 28.5576 679.778 28.3824 679.515 28.2073C676.695 26.4904 673.804 24.7735 670.563 24.0903C667.34 23.4246 663.661 23.9852 661.348 26.3327C660.244 27.4539 659.509 29.1182 660.017 30.6074C660.753 32.7272 663.661 33.8133 665.658 34.2688H665.64ZM542.639 -50.383C548.841 -44.0587 558.336 -41.4834 565.397 -35.8773C572.632 -30.096 577.695 -20.8635 586.647 -18.5159C587.19 -18.3758 587.803 -18.2707 588.259 -18.5685C588.644 -18.8138 588.819 -19.2868 588.995 -19.7248C590.606 -24.1746 592.236 -28.8522 591.552 -33.5122C590.571 -40.2045 585.298 -44.8996 580.568 -49.2093C576.486 -52.9408 573.193 -57.268 569.338 -61.1397C560.228 -58.5294 551.294 -54.9555 542.657 -50.383H542.639ZM534.511 -30.5865C537.857 -24.8228 543.095 -20.4606 547.299 -15.2924C557.408 -2.88899 561.683 14.2972 574.489 23.9326C582.04 29.6088 591.71 31.9213 599.278 37.5624C610.035 45.5686 615.151 59.1108 624.646 68.5536C633.738 77.5934 646.72 82.779 653.552 93.6408C656.951 99.0541 658.493 105.431 661.436 111.107C665.675 119.271 672.63 125.508 680.409 130.238C684.421 132.673 688.66 134.74 692.97 136.597C700.906 139.996 707.914 144.936 716.568 146.671C718.951 147.161 721.456 147.424 723.681 148.37C720.808 152.75 717.672 157.007 714.273 161.089C706.933 158.128 700.24 153.486 693.951 148.773C687.399 143.868 680.426 141.257 672.07 142.151C665.202 142.887 659.947 145.725 653.324 141.958C647.981 138.927 641.341 138.139 636.506 134.215C631.934 130.518 629.674 124.737 627.204 119.376C617.393 98.0731 601.205 79.7482 581.269 67.3623C576.118 64.1738 570.302 61.2831 564.31 62.0189C561.998 62.2992 559.773 63.1226 557.443 63.4029C548.158 64.5066 540.099 56.7632 535.667 48.5293C533.267 44.097 531.462 39.3318 530.411 34.3915C529.29 29.2058 528.992 23.8976 528.274 18.6419C526.031 2.47182 519.549 -13.0675 509.756 -26.1192C515.608 -31.918 522.055 -37.2788 529.08 -42.0965C531.112 -38.365 532.408 -34.2305 534.546 -30.5515L534.511 -30.5865ZM564.643 43.5539C567.183 42.713 569.916 43.2911 572.404 42.5553C578.799 40.6633 573.525 33.936 570.687 30.8877C562.786 22.3909 554.903 13.8942 547.002 5.3975C545.162 3.41785 542.447 1.24549 540.047 2.52438C538.242 3.47041 537.839 5.83547 537.769 7.86768C537.296 20.7792 542.359 33.7958 551.416 43.0108C552.976 44.605 554.833 46.1467 557.057 46.2869C559.878 46.4445 562.103 44.4123 564.643 43.5714V43.5539ZM652.133 129.502C654.744 130.588 665.395 131.99 661.751 126.156C658.458 120.9 652.676 117.449 649.856 111.931C648.752 109.776 648.156 107.393 647.21 105.151C646.264 102.926 644.845 100.736 642.673 99.6498C641.832 99.2293 640.886 98.9841 639.975 99.1593C639.379 99.2644 638.819 99.5447 638.311 99.8951C635.77 101.647 634.754 105.028 635.105 108.094C635.455 111.16 636.927 113.98 638.521 116.626C641.867 122.197 646.019 126.962 652.133 129.52V129.502ZM547.86 -34.0028C551.346 -33.9327 554.605 -32.2859 557.513 -30.3938C564.118 -26.1192 569.636 -20.443 574.682 -14.4691C579.762 -8.46003 581.742 -4.27299 590.098 -4.04525C613.889 -3.41456 634.246 12.7555 651.029 29.6438C656.11 34.7418 661.961 40.383 669.162 40.1377C672.946 40.0151 676.485 38.2106 680.216 37.5799C686.803 36.4587 693.478 39.0165 699.294 42.3101C707.178 46.7774 714.186 52.6463 720.37 59.2685C729.602 69.1667 738.187 81.0796 744.739 93.2553C742.233 109.671 736.785 125.63 728.586 140.276C728.341 140.276 728.096 140.276 727.85 140.276C717.164 140.066 706.6 136.702 697.63 130.956C689.011 125.438 677.098 116.258 674.908 105.729C674.47 103.592 674.943 100.683 677.098 100.298C677.921 100.14 678.745 100.438 679.533 100.736C686.453 103.346 694.564 105.834 700.643 110.039C705.268 113.227 710.314 117.835 716.445 115.627C721.176 113.928 723.558 108.287 723.015 103.294C722.455 98.3008 719.599 93.8685 716.516 89.8917C711.295 83.1469 705.006 76.9452 697.175 73.5289C694.074 72.18 690.78 71.269 687.784 69.6572C680.006 65.4702 674.54 56.6231 665.798 55.4493C664.169 55.2216 662.049 55.6595 661.699 57.2713C661.576 57.7794 661.699 58.3224 661.821 58.8305C662.995 63.7533 665.36 68.3959 668.619 72.2501C669.249 73.0034 669.933 73.7567 670.195 74.7027C671.317 78.8722 666.113 81.3775 662.89 80.3789C657.582 78.7321 653.5 73.599 649.05 70.5332C642.778 66.1885 636.243 62.1766 629.849 58.0071C627.677 56.5881 625.469 55.134 623.857 53.0843C622.263 51.0345 621.37 48.249 622.193 45.7963C622.544 44.7802 623.157 43.8517 623.227 42.8006C623.332 41.5567 622.666 40.4005 622.036 39.3318C620.336 36.4412 618.462 33.4104 615.483 31.8863C614.257 31.2556 612.891 30.9227 611.577 30.5373C605.48 28.7503 599.208 26.1225 593.304 23.8275C586.262 21.1121 579.184 16.7323 574.279 10.9335C569.461 5.25735 568.007 -2.41599 563.294 -8.49508C558.284 -14.9246 552.135 -20.373 546.126 -25.8389C544.374 -27.4506 542.447 -29.7807 543.463 -31.9355C544.216 -33.4947 546.178 -34.0378 547.895 -33.9852L547.86 -34.0028ZM700.941 64.5417C702.343 64.7344 708.474 65.4527 709.263 64.3139C709.438 64.0687 709.438 63.7358 709.385 63.4205C709.105 61.178 707.493 59.3736 705.917 57.7618C700.328 52.1032 693.478 46.7949 685.524 46.6197C684.175 46.5847 682.581 46.8475 681.916 48.0213C681.022 49.5805 682.318 51.4375 683.545 52.7689C686.26 55.7121 689.011 58.6728 692.304 60.9678C694.88 62.7548 697.805 64.1037 700.924 64.5417H700.941ZM506.866 -11.5083C510.229 -6.16505 512.069 0.474655 510.317 6.55376C508.81 11.8445 504.711 16.4695 504.763 21.9705C504.833 29.1883 511.736 34.1812 515.205 40.5056C518.551 46.6197 518.603 53.9252 519.392 60.8627C519.847 64.822 520.46 70.5682 523.298 73.5815C526.031 76.4896 529.956 78.9073 532.881 81.8154C535.965 84.8813 539.398 87.842 543.603 88.9457C547.807 90.0319 552.941 88.6654 554.92 84.8112C556.339 82.0782 555.954 78.5919 557.653 76.0166C559.44 73.2837 563.154 72.3377 566.378 72.9333C569.584 73.5289 572.422 75.3684 575.102 77.2255C594.391 90.6275 611.419 107.884 621.895 128.907C622.929 130.991 623.928 133.216 623.857 135.546C623.787 137.876 622.333 140.329 620.038 140.767C619.145 140.942 618.041 140.872 617.533 141.643C616.938 142.536 617.708 143.693 618.479 144.463C623.963 149.912 633.931 158.163 642.288 154.204C644.547 153.135 646.667 151.506 649.172 151.296C655.532 150.753 659.526 157.743 666.201 155.886C670.125 154.782 673.594 152.259 677.623 151.611C683.895 150.613 689.484 154.292 694.774 157.077C697.49 158.496 700.363 160.108 703.394 160.669C704.2 160.826 713.117 162.473 712.293 163.401C709.963 166.082 707.511 168.692 704.953 171.215C704.357 171.092 703.814 170.987 703.341 170.917C699.592 170.339 695.65 170.041 691.971 169.305C687.732 168.464 684.263 165.451 680.094 164.242C675.749 162.964 670.773 163.016 666.937 165.434C663.591 167.536 661.05 171.39 657.126 171.811C653.727 172.161 650.679 169.778 647.333 169.165C643.899 168.535 640.448 169.778 636.997 170.374C622.982 172.809 609.317 164.383 599.243 155.483C594.723 151.489 586.91 145.304 588.609 138.349C589.24 135.809 591.132 133.672 591.605 131.096C592.534 126.016 588.294 121.829 584.317 119.639C577.38 115.82 570.039 108.514 562.191 106.815C560.106 106.377 557.741 106.692 556.199 108.164C552.976 111.247 555.06 117.011 552.713 120.795C548.841 127.05 542.044 123.038 537.489 120.13C528.151 114.173 519.199 108.567 511.666 100.28C506.357 94.4466 499.105 86.3879 500.121 77.8211C500.594 73.9319 503.449 70.7785 504.798 67.0995C507.636 59.4086 503.554 51.017 499.227 44.0444C496.372 39.4369 493.218 34.3564 494.059 28.9956C495.075 22.5136 501.575 18.1338 503.327 11.8095C505.201 5.04712 501.224 -1.87289 497.002 -7.47897C496.494 -8.16222 495.986 -8.82794 495.461 -9.49366C497.51 -12.3142 499.683 -15.0472 501.96 -17.7101C503.73 -15.7479 505.446 -13.7333 506.883 -11.4558L506.866 -11.5083ZM571.668 82.8666C570.022 82.2884 567.762 81.3074 566.202 82.341C564.889 83.1994 563.837 86.1952 563.942 87.6843C564.048 89.1033 564.906 90.3472 565.799 91.4684C570.039 96.8292 575.347 101.349 581.321 104.678C582.863 105.536 584.79 106.325 586.332 105.431C587.488 104.765 588.014 103.294 587.926 101.962C587.838 100.631 587.243 99.3695 586.647 98.1782C585.158 95.1824 583.546 92.2217 581.391 89.6464C578.886 86.6857 575.382 84.1455 571.686 82.8666H571.668Z" fill="#302A46"/>
<path d="M480.167 102.575C487.735 108.304 496.284 113.84 499.823 122.635C501.767 127.47 502.013 132.901 504.465 137.491C507.566 143.237 513.768 146.758 520.092 148.318C526.434 149.894 533.039 149.807 539.556 150.087C550.628 150.578 561.823 152.312 572.141 156.499C577.485 158.671 585.438 161.842 588.539 166.993C589.59 168.727 589.993 170.759 590.992 172.511C591.728 173.825 592.779 174.947 592.586 176.593C592.323 178.801 589.538 179.799 587.348 179.396C583.599 178.696 580.165 177.452 576.346 176.821C573.963 176.436 570.915 176.856 570.827 179.712C570.722 183.443 575.943 184.459 578.413 185.563C586.139 189.049 592.078 192.028 600.82 192.536C609.247 193.026 617.831 192.378 626.03 194.375C630.164 195.374 634.159 197.038 638.381 197.476C646.527 198.317 649.015 192.395 655.584 189.47C662.137 186.544 669.687 188.086 676.817 189.032C678.429 189.242 680.111 189.4 681.775 189.47C618.952 229.326 535.351 212.507 493.008 150.613C480.885 132.883 473.404 113.297 470.373 93.3429C473.141 96.8292 476.663 99.9126 480.184 102.575H480.167ZM559.615 181.061C559.212 179.519 558.179 178.223 557.11 177.049C551.259 170.619 543.06 166.345 534.44 165.223C532.303 164.943 529.535 165.241 528.869 167.291C528.519 168.359 528.939 169.516 529.412 170.549C532.654 177.627 538.908 182.883 546.196 185.423C549.927 186.737 561.683 188.769 559.615 181.043V181.061ZM610.368 183.986C610.928 183.899 611.524 183.741 611.857 183.303C612.435 182.532 611.892 181.446 611.314 180.675C608.721 177.294 605.06 174.736 600.995 173.457C596.773 172.143 597.316 178.117 599.243 180.132C602.046 183.075 606.356 184.599 610.368 183.986ZM594.25 -65.7647C596.02 -63.5223 598.262 -60.1061 600.838 -58.687C603.991 -56.9527 608.581 -56.9527 612.032 -55.8139C619.758 -53.2562 626.958 -49.0341 632.897 -43.463C634.894 -41.5885 636.804 -39.5388 639.309 -38.4526C641.814 -37.3664 645.126 -37.5766 646.79 -39.749C648.314 -41.7462 647.981 -44.6894 649.488 -46.6865C651.73 -49.6472 656.373 -48.7888 659.807 -47.3522C672.665 -42.0265 684.298 -32.4961 692.059 -20.9161C697.525 -12.7697 700.643 -3.23937 705.882 5.06464C714.273 17.7309 726.221 26.7882 737.433 36.7916C739.36 38.5084 741.2 40.2428 742.987 42.0473C739.255 25.2991 732.335 8.97138 722.052 -6.04242C721.649 -6.63806 721.228 -7.2337 720.808 -7.81183C719.476 -9.70388 718.11 -11.5434 716.673 -13.3654C716.41 -13.6982 716.13 -14.0486 715.867 -14.3815C715.202 -15.2049 714.536 -16.0282 713.87 -16.8341C713.555 -17.2195 713.24 -17.5874 712.907 -17.9729C712.626 -18.3057 712.329 -18.6386 712.048 -18.9714C711.803 -19.2517 711.558 -19.5321 711.312 -19.8124C711.015 -20.1277 710.717 -20.4606 710.436 -20.7934C710.156 -21.1088 709.876 -21.4066 709.596 -21.7219C709.315 -22.0373 709.035 -22.3351 708.737 -22.6504C708.457 -22.9483 708.159 -23.2636 707.879 -23.5614C707.598 -23.8592 707.301 -24.1746 707.003 -24.4724C706.565 -24.9279 706.109 -25.4009 705.654 -25.8564C705.338 -26.1718 705.023 -26.4871 704.708 -26.8024C704.638 -26.8725 704.55 -26.9601 704.48 -27.0302C704.2 -27.3105 703.902 -27.5908 703.622 -27.8711C702.886 -28.5894 702.132 -29.2901 701.379 -29.9734C700.924 -30.3763 700.486 -30.7968 700.013 -31.1997C699.575 -31.5851 699.137 -31.9881 698.699 -32.356C696.842 -33.9852 694.932 -35.5619 692.988 -37.0686C692.024 -37.8219 691.043 -38.5577 690.079 -39.276C689.519 -39.6789 688.958 -40.0994 688.398 -40.5023C687.96 -40.8001 687.539 -41.1155 687.101 -41.4133C686.593 -41.7637 686.103 -42.1141 685.595 -42.4469C685.086 -42.7973 684.578 -43.1302 684.07 -43.463C683.562 -43.7959 683.054 -44.1287 682.529 -44.4616C681.495 -45.1273 680.461 -45.758 679.428 -46.3887C678.902 -46.704 678.377 -47.0194 677.851 -47.3172C677.326 -47.6325 676.8 -47.9304 676.274 -48.2282C675.749 -48.526 675.206 -48.8238 674.68 -49.1217C673.611 -49.7173 672.525 -50.2954 671.457 -50.856C670.37 -51.4167 669.284 -51.9597 668.198 -52.4853C667.76 -52.6955 667.322 -52.9058 666.867 -53.116C666.359 -53.3437 665.851 -53.589 665.343 -53.8168C664.957 -53.9919 664.554 -54.1847 664.151 -54.3598C663.538 -54.6402 662.907 -54.9205 662.277 -55.1832C661.769 -55.411 661.243 -55.6212 660.735 -55.8314C660.157 -56.0767 659.561 -56.322 658.983 -56.5497C658.282 -56.83 657.564 -57.1103 656.863 -57.3731C656.32 -57.5658 655.795 -57.7761 655.252 -57.9688C654.726 -58.1615 654.2 -58.3542 653.657 -58.5469C653.132 -58.7221 652.606 -58.9148 652.081 -59.09C651.8 -59.1951 651.538 -59.2827 651.257 -59.3703C650.977 -59.4579 650.697 -59.563 650.399 -59.6506C632.599 -65.4494 613.784 -67.6042 595.091 -65.9399C595.091 -65.9399 595.091 -65.9399 595.056 -65.9399C594.793 -65.8874 594.513 -65.8348 594.25 -65.7822V-65.7647ZM666.569 -32.2684C663.941 -33.3545 652.887 -36.578 653.167 -32.7063C653.237 -31.8129 653.675 -30.9895 654.148 -30.2362C658.528 -22.9307 665.115 -16.9743 672.823 -13.3654C674.26 -12.6996 676.047 -12.1215 677.343 -13.0325C678.71 -13.9785 678.727 -15.9932 678.394 -17.6225C676.975 -23.8768 672.613 -29.7807 666.569 -32.2684ZM580.953 131.377C579.061 128.521 576.486 126.086 573.385 124.667C570.284 123.248 566.623 122.898 563.399 124.036C561.683 124.649 559.983 125.823 559.475 127.575C558.844 129.747 560.193 131.955 561.525 133.777C563.767 136.86 566.325 139.979 569.864 141.38C576.223 143.885 585.631 138.419 580.953 131.377ZM521.406 139.33C526.242 141.047 531.234 140.574 535.982 142.589C538.242 143.552 541.133 144.131 542.902 142.431C544.251 141.135 544.321 138.91 543.55 137.211C542.78 135.511 541.308 134.232 539.836 133.076C533.056 127.768 525.138 124.141 517.307 120.567C514.889 119.464 511.999 118.378 509.704 119.727C508.074 120.69 507.268 122.705 507.356 124.597C507.444 126.489 508.285 128.258 509.318 129.853C512.139 134.25 516.501 137.596 521.424 139.348L521.406 139.33ZM626.503 179.694C626.363 180.903 627.063 182.042 627.817 183.023C630.672 186.789 634.649 189.96 639.327 190.731C646.527 191.905 650.714 185.931 656.46 182.97C661.436 180.412 667.27 179.466 672.771 180.518C678.78 181.656 684.684 182.585 690.798 183.321C692.585 181.989 694.336 180.605 696.053 179.186C693.461 179.028 690.885 178.748 688.363 178.153C681.845 176.611 677.431 170.707 670.458 171.268C664.361 171.776 659.526 176.979 653.5 177.96C649.33 178.643 645.143 177.241 641.044 176.225C636.944 175.209 632.337 174.684 628.71 176.856C627.642 177.504 626.643 178.468 626.503 179.712V179.694ZM479.483 18.8346L479.185 19.5353C476.4 26.3502 474.14 33.3578 472.476 40.4881C472.546 40.6107 472.616 40.7333 472.668 40.8385C475.682 46.1467 481.516 50.071 482.374 56.1151C483.197 61.8788 479.15 67.0469 477.276 72.5479C471.67 89.0333 486.438 100.421 498.772 107.901C499.893 108.584 501.067 109.233 502.381 109.39C503.677 109.548 505.131 109.11 505.832 108.006C506.743 106.552 506.077 104.678 505.324 103.136C501.014 94.2539 491.694 85.5645 493.253 74.7553C494.059 69.1667 498.264 64.2789 497.966 58.6553C497.721 53.6098 493.954 49.5805 491.081 45.4109C485.703 37.5799 482.689 28.47 479.641 19.3602C479.571 19.185 479.518 18.9922 479.466 18.8171L479.483 18.8346ZM490.923 -2.9941C488.208 1.22798 485.72 5.57269 483.495 10.04C485.58 13.1759 488.821 15.5585 492.482 16.487C493.569 16.7673 494.777 16.9075 495.758 16.3469C496.74 15.7863 497.265 14.63 497.335 13.4913C497.405 12.3701 497.072 11.2488 496.722 10.1627C495.688 6.97421 493.919 0.807526 490.923 -2.9941ZM574.979 -62.6288C579.569 -56.8475 586.77 -54.5876 592.516 -50.1027C595.897 -47.4574 596.966 -43.9711 599.839 -41.0454C602.712 -38.1197 606.654 -36.3328 610.49 -35.0889C616.132 -33.2494 622.141 -32.2158 627.134 -28.9923C630.97 -26.5046 633.913 -22.8782 636.716 -19.2693C641.727 -12.8047 646.527 -6.14753 651.065 0.667374C653.92 4.95953 656.723 9.33928 660.455 12.9132C664.169 16.4695 669.004 19.1674 674.155 19.255C679.042 19.3426 683.983 17.0827 688.695 18.3966C691.726 19.2375 694.161 21.4274 696.456 23.5647C707.651 33.9535 719.862 44.1671 729.707 55.7471C735.524 62.5971 741.41 69.5346 746.245 77.0678C746.491 70.3054 746.245 63.5256 745.475 56.7632C740.447 49.5454 734.14 43.151 727.92 36.8792C721.579 30.4847 715.237 24.0728 708.895 17.6783C696.859 5.52013 683.965 -7.12859 667.375 -11.3507C664.87 -11.9814 662.294 -12.4193 659.912 -13.4179C654.796 -15.5552 651.117 -20.0226 647.228 -23.9994C636.384 -35.124 622.719 -43.2528 608.195 -48.7713C603.851 -50.4356 599.366 -51.8721 595.442 -54.3949C591.255 -57.0753 587.979 -60.7718 584.86 -64.6435C581.549 -64.1004 578.256 -63.4347 574.979 -62.6463V-62.6288ZM710.016 105.781C711.137 105.501 712.258 104.923 712.907 103.959C714.256 101.91 712.942 99.1943 711.558 97.1621C707.756 91.5385 703.096 86.1952 697.21 82.6739C694.564 81.0972 692.515 80.6767 689.606 80.2738C686.908 79.8883 683.755 78.0138 681.11 78.1715C680.374 78.224 679.673 78.5744 679.06 78.9773C676.537 80.5891 674.487 83.5323 675.171 86.458C675.416 87.4566 675.942 88.3675 676.572 89.1909C678.307 91.4509 680.777 93.1327 683.51 93.9211C685.577 94.5167 687.767 94.6218 689.782 95.3226C696.526 97.6701 701.922 107.884 710.016 105.799V105.781ZM610.403 -27.3455C607.652 -28.0813 604.727 -28.5543 601.959 -27.8711C599.191 -27.1879 596.633 -25.0681 596.16 -22.2475C595.634 -19.1291 597.702 -16.1334 600.137 -14.1362C602.327 -12.3317 604.884 -11.0003 607.407 -9.70389C616.026 -5.23654 624.646 -0.751671 633.283 3.71568C634.579 4.39892 636.401 4.97704 637.33 3.83831C637.908 3.12003 637.785 2.08641 637.575 1.19294C634.719 -11.2456 622.614 -24.087 610.42 -27.363L610.403 -27.3455ZM665.64 34.2688C667.743 34.7418 669.985 34.5667 671.982 33.7433C673.541 33.0951 674.768 32.9199 676.397 32.552C678.096 32.1665 679.463 31.4132 680.111 29.7139C680.216 29.4336 680.286 29.1182 680.181 28.8555C680.059 28.5576 679.778 28.3824 679.515 28.2073C676.695 26.4904 673.804 24.7735 670.563 24.0903C667.34 23.4246 663.661 23.9852 661.348 26.3327C660.244 27.4539 659.509 29.1182 660.017 30.6074C660.753 32.7272 663.661 33.8133 665.658 34.2688H665.64ZM542.639 -50.383C548.841 -44.0587 558.336 -41.4834 565.397 -35.8773C572.632 -30.096 577.695 -20.8635 586.647 -18.5159C587.19 -18.3758 587.803 -18.2707 588.259 -18.5685C588.644 -18.8138 588.819 -19.2868 588.995 -19.7248C590.606 -24.1746 592.236 -28.8522 591.552 -33.5122C590.571 -40.2045 585.298 -44.8996 580.568 -49.2093C576.486 -52.9408 573.193 -57.268 569.338 -61.1397C560.228 -58.5294 551.294 -54.9555 542.657 -50.383H542.639ZM534.511 -30.5865C537.857 -24.8228 543.095 -20.4606 547.299 -15.2924C557.408 -2.88899 561.683 14.2972 574.489 23.9326C582.04 29.6088 591.71 31.9213 599.278 37.5624C610.035 45.5686 615.151 59.1108 624.646 68.5536C633.738 77.5934 646.72 82.779 653.552 93.6408C656.951 99.0541 658.493 105.431 661.436 111.107C665.675 119.271 672.63 125.508 680.409 130.238C684.421 132.673 688.66 134.74 692.97 136.597C700.906 139.996 707.914 144.936 716.568 146.671C718.951 147.161 721.456 147.424 723.681 148.37C720.808 152.75 717.672 157.007 714.273 161.089C706.933 158.128 700.24 153.486 693.951 148.773C687.399 143.868 680.426 141.257 672.07 142.151C665.202 142.887 659.947 145.725 653.324 141.958C647.981 138.927 641.341 138.139 636.506 134.215C631.934 130.518 629.674 124.737 627.204 119.376C617.393 98.0731 601.205 79.7482 581.269 67.3623C576.118 64.1738 570.302 61.2831 564.31 62.0189C561.998 62.2992 559.773 63.1226 557.443 63.4029C548.158 64.5066 540.099 56.7632 535.667 48.5293C533.267 44.097 531.462 39.3318 530.411 34.3915C529.29 29.2058 528.992 23.8976 528.274 18.6419C526.031 2.47182 519.549 -13.0675 509.756 -26.1192C515.608 -31.918 522.055 -37.2788 529.08 -42.0965C531.112 -38.365 532.408 -34.2305 534.546 -30.5515L534.511 -30.5865ZM564.643 43.5539C567.183 42.713 569.916 43.2911 572.404 42.5553C578.799 40.6633 573.525 33.936 570.687 30.8877C562.786 22.3909 554.903 13.8942 547.002 5.3975C545.162 3.41785 542.447 1.24549 540.047 2.52438C538.242 3.47041 537.839 5.83547 537.769 7.86768C537.296 20.7792 542.359 33.7958 551.416 43.0108C552.976 44.605 554.833 46.1467 557.057 46.2869C559.878 46.4445 562.103 44.4123 564.643 43.5714V43.5539ZM652.133 129.502C654.744 130.588 665.395 131.99 661.751 126.156C658.458 120.9 652.676 117.449 649.856 111.931C648.752 109.776 648.156 107.393 647.21 105.151C646.264 102.926 644.845 100.736 642.673 99.6498C641.832 99.2293 640.886 98.9841 639.975 99.1593C639.379 99.2644 638.819 99.5447 638.311 99.8951C635.77 101.647 634.754 105.028 635.105 108.094C635.455 111.16 636.927 113.98 638.521 116.626C641.867 122.197 646.019 126.962 652.133 129.52V129.502ZM547.86 -34.0028C551.346 -33.9327 554.605 -32.2859 557.513 -30.3938C564.118 -26.1192 569.636 -20.443 574.682 -14.4691C579.762 -8.46003 581.742 -4.27299 590.098 -4.04525C613.889 -3.41456 634.246 12.7555 651.029 29.6438C656.11 34.7418 661.961 40.383 669.162 40.1377C672.946 40.0151 676.485 38.2106 680.216 37.5799C686.803 36.4587 693.478 39.0165 699.294 42.3101C707.178 46.7774 714.186 52.6463 720.37 59.2685C729.602 69.1667 738.187 81.0796 744.739 93.2553C742.233 109.671 736.785 125.63 728.586 140.276C728.341 140.276 728.096 140.276 727.85 140.276C717.164 140.066 706.6 136.702 697.63 130.956C689.011 125.438 677.098 116.258 674.908 105.729C674.47 103.592 674.943 100.683 677.098 100.298C677.921 100.14 678.745 100.438 679.533 100.736C686.453 103.346 694.564 105.834 700.643 110.039C705.268 113.227 710.314 117.835 716.445 115.627C721.176 113.928 723.558 108.287 723.015 103.294C722.455 98.3008 719.599 93.8685 716.516 89.8917C711.295 83.1469 705.006 76.9452 697.175 73.5289C694.074 72.18 690.78 71.269 687.784 69.6572C680.006 65.4702 674.54 56.6231 665.798 55.4493C664.169 55.2216 662.049 55.6595 661.699 57.2713C661.576 57.7794 661.699 58.3224 661.821 58.8305C662.995 63.7533 665.36 68.3959 668.619 72.2501C669.249 73.0034 669.933 73.7567 670.195 74.7027C671.317 78.8722 666.113 81.3775 662.89 80.3789C657.582 78.7321 653.5 73.599 649.05 70.5332C642.778 66.1885 636.243 62.1766 629.849 58.0071C627.677 56.5881 625.469 55.134 623.857 53.0843C622.263 51.0345 621.37 48.249 622.193 45.7963C622.544 44.7802 623.157 43.8517 623.227 42.8006C623.332 41.5567 622.666 40.4005 622.036 39.3318C620.336 36.4412 618.462 33.4104 615.483 31.8863C614.257 31.2556 612.891 30.9227 611.577 30.5373C605.48 28.7503 599.208 26.1225 593.304 23.8275C586.262 21.1121 579.184 16.7323 574.279 10.9335C569.461 5.25735 568.007 -2.41599 563.294 -8.49508C558.284 -14.9246 552.135 -20.373 546.126 -25.8389C544.374 -27.4506 542.447 -29.7807 543.463 -31.9355C544.216 -33.4947 546.178 -34.0378 547.895 -33.9852L547.86 -34.0028ZM700.941 64.5417C702.343 64.7344 708.474 65.4527 709.263 64.3139C709.438 64.0687 709.438 63.7358 709.385 63.4205C709.105 61.178 707.493 59.3736 705.917 57.7618C700.328 52.1032 693.478 46.7949 685.524 46.6197C684.175 46.5847 682.581 46.8475 681.916 48.0213C681.022 49.5805 682.318 51.4375 683.545 52.7689C686.26 55.7121 689.011 58.6728 692.304 60.9678C694.88 62.7548 697.805 64.1037 700.924 64.5417H700.941ZM506.866 -11.5083C510.229 -6.16505 512.069 0.474655 510.317 6.55376C508.81 11.8445 504.711 16.4695 504.763 21.9705C504.833 29.1883 511.736 34.1812 515.205 40.5056C518.551 46.6197 518.603 53.9252 519.392 60.8627C519.847 64.822 520.46 70.5682 523.298 73.5815C526.031 76.4896 529.956 78.9073 532.881 81.8154C535.965 84.8813 539.398 87.842 543.603 88.9457C547.807 90.0319 552.941 88.6654 554.92 84.8112C556.339 82.0782 555.954 78.5919 557.653 76.0166C559.44 73.2837 563.154 72.3377 566.378 72.9333C569.584 73.5289 572.422 75.3684 575.102 77.2255C594.391 90.6275 611.419 107.884 621.895 128.907C622.929 130.991 623.928 133.216 623.857 135.546C623.787 137.876 622.333 140.329 620.038 140.767C619.145 140.942 618.041 140.872 617.533 141.643C616.938 142.536 617.708 143.693 618.479 144.463C623.963 149.912 633.931 158.163 642.288 154.204C644.547 153.135 646.667 151.506 649.172 151.296C655.532 150.753 659.526 157.743 666.201 155.886C670.125 154.782 673.594 152.259 677.623 151.611C683.895 150.613 689.484 154.292 694.774 157.077C697.49 158.496 700.363 160.108 703.394 160.669C704.2 160.826 713.117 162.473 712.293 163.401C709.963 166.082 707.511 168.692 704.953 171.215C704.357 171.092 703.814 170.987 703.341 170.917C699.592 170.339 695.65 170.041 691.971 169.305C687.732 168.464 684.263 165.451 680.094 164.242C675.749 162.964 670.773 163.016 666.937 165.434C663.591 167.536 661.05 171.39 657.126 171.811C653.727 172.161 650.679 169.778 647.333 169.165C643.899 168.535 640.448 169.778 636.997 170.374C622.982 172.809 609.317 164.383 599.243 155.483C594.723 151.489 586.91 145.304 588.609 138.349C589.24 135.809 591.132 133.672 591.605 131.096C592.534 126.016 588.294 121.829 584.317 119.639C577.38 115.82 570.039 108.514 562.191 106.815C560.106 106.377 557.741 106.692 556.199 108.164C552.976 111.247 555.06 117.011 552.713 120.795C548.841 127.05 542.044 123.038 537.489 120.13C528.151 114.173 519.199 108.567 511.666 100.28C506.357 94.4466 499.105 86.3879 500.121 77.8211C500.594 73.9319 503.449 70.7785 504.798 67.0995C507.636 59.4086 503.554 51.017 499.227 44.0444C496.372 39.4369 493.218 34.3564 494.059 28.9956C495.075 22.5136 501.575 18.1338 503.327 11.8095C505.201 5.04712 501.224 -1.87289 497.002 -7.47897C496.494 -8.16222 495.986 -8.82794 495.461 -9.49366C497.51 -12.3142 499.683 -15.0472 501.96 -17.7101C503.73 -15.7479 505.446 -13.7333 506.883 -11.4558L506.866 -11.5083ZM571.668 82.8666C570.022 82.2884 567.762 81.3074 566.202 82.341C564.889 83.1994 563.837 86.1952 563.942 87.6843C564.048 89.1033 564.906 90.3472 565.799 91.4684C570.039 96.8292 575.347 101.349 581.321 104.678C582.863 105.536 584.79 106.325 586.332 105.431C587.488 104.765 588.014 103.294 587.926 101.962C587.838 100.631 587.243 99.3695 586.647 98.1782C585.158 95.1824 583.546 92.2217 581.391 89.6464C578.886 86.6857 575.382 84.1455 571.686 82.8666H571.668Z" stroke="black" stroke-width="0.5"/>
</g>
<path opacity="0.8" d="M480.167 102.575C487.735 108.304 496.284 113.84 499.823 122.635C501.767 127.47 502.013 132.901 504.465 137.491C507.566 143.237 513.768 146.758 520.092 148.318C526.434 149.894 533.039 149.807 539.556 150.087C550.628 150.578 561.823 152.312 572.141 156.499C577.485 158.671 585.438 161.842 588.539 166.993C589.59 168.727 589.993 170.759 590.992 172.511C591.728 173.825 592.779 174.947 592.586 176.593C592.323 178.801 589.538 179.799 587.348 179.396C583.599 178.696 580.165 177.452 576.346 176.821C573.963 176.436 570.915 176.856 570.827 179.712C570.722 183.443 575.943 184.459 578.413 185.563C586.139 189.049 592.078 192.028 600.82 192.536C609.247 193.026 617.831 192.378 626.03 194.375C630.164 195.374 634.159 197.038 638.381 197.476C646.527 198.317 649.015 192.395 655.584 189.47C662.137 186.544 669.687 188.086 676.817 189.032C678.429 189.242 680.111 189.4 681.775 189.47C618.952 229.326 535.351 212.507 493.008 150.613C480.885 132.883 473.404 113.297 470.373 93.343C473.141 96.8292 476.663 99.9126 480.184 102.575H480.167ZM559.615 181.061C559.212 179.519 558.179 178.223 557.11 177.049C551.259 170.619 543.06 166.345 534.44 165.223C532.303 164.943 529.535 165.241 528.869 167.291C528.519 168.359 528.939 169.516 529.412 170.549C532.654 177.627 538.908 182.883 546.196 185.423C549.927 186.737 561.683 188.769 559.615 181.043V181.061ZM610.368 183.986C610.928 183.899 611.524 183.741 611.857 183.303C612.435 182.532 611.892 181.446 611.314 180.675C608.721 177.294 605.06 174.736 600.995 173.457C596.773 172.143 597.316 178.117 599.243 180.132C602.046 183.075 606.356 184.599 610.368 183.986V183.986ZM594.25 -65.7647C596.02 -63.5223 598.262 -60.1061 600.838 -58.687C603.991 -56.9527 608.581 -56.9527 612.032 -55.8139C619.758 -53.2562 626.958 -49.0341 632.897 -43.463C634.894 -41.5885 636.804 -39.5388 639.309 -38.4526C641.814 -37.3664 645.126 -37.5766 646.79 -39.749C648.314 -41.7462 647.981 -44.6894 649.488 -46.6865C651.73 -49.6472 656.373 -48.7888 659.807 -47.3522C672.665 -42.0265 684.298 -32.4961 692.059 -20.9161C697.525 -12.7697 700.643 -3.23937 705.882 5.06464C714.273 17.7309 726.221 26.7882 737.433 36.7916C739.36 38.5084 741.2 40.2428 742.987 42.0473C739.255 25.2991 732.335 8.97138 722.052 -6.04241C721.649 -6.63806 721.228 -7.2337 720.808 -7.81183C719.476 -9.70389 718.11 -11.5434 716.673 -13.3654C716.41 -13.6982 716.13 -14.0486 715.867 -14.3815C715.202 -15.2049 714.536 -16.0282 713.87 -16.8341C713.555 -17.2195 713.24 -17.5874 712.907 -17.9729C712.626 -18.3057 712.329 -18.6386 712.048 -18.9714C711.803 -19.2517 711.558 -19.5321 711.312 -19.8124C711.015 -20.1277 710.717 -20.4606 710.436 -20.7934C710.156 -21.1088 709.876 -21.4066 709.596 -21.7219C709.315 -22.0373 709.035 -22.3351 708.737 -22.6504C708.457 -22.9483 708.159 -23.2636 707.879 -23.5614C707.598 -23.8592 707.301 -24.1746 707.003 -24.4724C706.565 -24.9279 706.109 -25.4009 705.654 -25.8564C705.338 -26.1718 705.023 -26.4871 704.708 -26.8024C704.638 -26.8725 704.55 -26.9601 704.48 -27.0302C704.2 -27.3105 703.902 -27.5908 703.622 -27.8711C702.886 -28.5894 702.132 -29.2901 701.379 -29.9734C700.924 -30.3763 700.486 -30.7968 700.013 -31.1997C699.575 -31.5851 699.137 -31.9881 698.699 -32.356C696.842 -33.9852 694.932 -35.5619 692.988 -37.0686C692.024 -37.8219 691.043 -38.5577 690.079 -39.276C689.519 -39.6789 688.958 -40.0994 688.398 -40.5023C687.96 -40.8001 687.539 -41.1155 687.101 -41.4133C686.593 -41.7637 686.103 -42.1141 685.595 -42.4469C685.086 -42.7973 684.578 -43.1302 684.07 -43.463C683.562 -43.7959 683.054 -44.1287 682.529 -44.4616C681.495 -45.1273 680.461 -45.758 679.428 -46.3887C678.902 -46.704 678.377 -47.0194 677.851 -47.3172C677.326 -47.6325 676.8 -47.9304 676.274 -48.2282C675.749 -48.526 675.206 -48.8238 674.68 -49.1217C673.611 -49.7173 672.525 -50.2954 671.457 -50.856C670.37 -51.4167 669.284 -51.9597 668.198 -52.4853C667.76 -52.6955 667.322 -52.9058 666.867 -53.116C666.359 -53.3437 665.851 -53.589 665.343 -53.8168C664.957 -53.9919 664.554 -54.1847 664.151 -54.3598C663.538 -54.6402 662.907 -54.9205 662.277 -55.1832C661.769 -55.411 661.243 -55.6212 660.735 -55.8314C660.157 -56.0767 659.561 -56.322 658.983 -56.5497C658.282 -56.83 657.564 -57.1103 656.863 -57.3731C656.32 -57.5658 655.795 -57.7761 655.252 -57.9688C654.726 -58.1615 654.2 -58.3542 653.657 -58.5469C653.132 -58.7221 652.606 -58.9148 652.081 -59.09C651.8 -59.1951 651.538 -59.2827 651.257 -59.3703C650.977 -59.4579 650.697 -59.563 650.399 -59.6506C632.599 -65.4494 613.784 -67.6042 595.091 -65.9399C595.091 -65.9399 595.091 -65.9399 595.056 -65.9399C594.793 -65.8874 594.513 -65.8348 594.25 -65.7822V-65.7647ZM666.569 -32.2684C663.941 -33.3546 652.887 -36.578 653.167 -32.7063C653.237 -31.8129 653.675 -30.9895 654.148 -30.2362C658.528 -22.9307 665.115 -16.9743 672.823 -13.3654C674.26 -12.6996 676.047 -12.1215 677.343 -13.0325C678.71 -13.9785 678.727 -15.9932 678.394 -17.6225C676.975 -23.8768 672.613 -29.7807 666.569 -32.2684V-32.2684ZM580.953 131.377C579.061 128.521 576.486 126.086 573.385 124.667C570.284 123.248 566.623 122.898 563.399 124.036C561.683 124.649 559.983 125.823 559.475 127.575C558.844 129.747 560.193 131.955 561.525 133.777C563.767 136.86 566.325 139.979 569.864 141.38C576.223 143.885 585.631 138.419 580.953 131.377V131.377ZM521.406 139.33C526.242 141.047 531.234 140.574 535.982 142.589C538.242 143.552 541.133 144.131 542.902 142.431C544.251 141.135 544.321 138.91 543.55 137.211C542.78 135.511 541.308 134.232 539.836 133.076C533.056 127.768 525.138 124.141 517.307 120.567C514.889 119.464 511.999 118.378 509.704 119.727C508.074 120.69 507.268 122.705 507.356 124.597C507.444 126.489 508.285 128.258 509.318 129.853C512.139 134.25 516.501 137.596 521.424 139.348L521.406 139.33ZM626.503 179.694C626.363 180.903 627.063 182.042 627.817 183.023C630.672 186.789 634.649 189.96 639.327 190.731C646.527 191.905 650.714 185.931 656.46 182.97C661.436 180.412 667.27 179.466 672.771 180.518C678.78 181.656 684.684 182.585 690.798 183.321C692.585 181.989 694.336 180.605 696.053 179.186C693.461 179.028 690.885 178.748 688.363 178.152C681.845 176.611 677.431 170.707 670.458 171.268C664.361 171.776 659.526 176.979 653.5 177.96C649.33 178.643 645.143 177.241 641.044 176.225C636.944 175.209 632.337 174.684 628.71 176.856C627.642 177.504 626.643 178.468 626.503 179.712V179.694ZM479.483 18.8346L479.185 19.5353C476.4 26.3502 474.14 33.3578 472.476 40.4881C472.546 40.6107 472.616 40.7333 472.668 40.8385C475.682 46.1467 481.516 50.071 482.374 56.115C483.197 61.8788 479.15 67.0469 477.276 72.5479C471.67 89.0333 486.438 100.421 498.772 107.901C499.893 108.584 501.067 109.233 502.381 109.39C503.677 109.548 505.131 109.11 505.832 108.006C506.743 106.552 506.077 104.678 505.324 103.136C501.014 94.2539 491.694 85.5645 493.253 74.7553C494.059 69.1667 498.264 64.2789 497.966 58.6553C497.721 53.6098 493.954 49.5804 491.081 45.4109C485.703 37.5799 482.689 28.47 479.641 19.3602C479.571 19.185 479.518 18.9923 479.466 18.8171L479.483 18.8346ZM490.923 -2.9941C488.208 1.22798 485.72 5.57269 483.495 10.04C485.58 13.1759 488.821 15.5585 492.482 16.487C493.569 16.7673 494.777 16.9075 495.758 16.3469C496.74 15.7863 497.265 14.63 497.335 13.4913C497.405 12.3701 497.072 11.2489 496.722 10.1627C495.688 6.97421 493.919 0.807522 490.923 -2.9941ZM574.979 -62.6288C579.569 -56.8475 586.77 -54.5876 592.516 -50.1027C595.897 -47.4574 596.966 -43.9711 599.839 -41.0454C602.712 -38.1197 606.654 -36.3328 610.49 -35.0889C616.132 -33.2494 622.141 -32.2158 627.134 -28.9923C630.97 -26.5046 633.913 -22.8782 636.716 -19.2693C641.727 -12.8047 646.527 -6.14753 651.065 0.667371C653.92 4.95953 656.723 9.33928 660.455 12.9132C664.169 16.4695 669.004 19.1674 674.155 19.255C679.042 19.3426 683.983 17.0827 688.695 18.3966C691.726 19.2375 694.161 21.4274 696.456 23.5647C707.651 33.9535 719.862 44.1671 729.707 55.7471C735.524 62.5971 741.41 69.5346 746.245 77.0678C746.491 70.3054 746.245 63.5256 745.475 56.7632C740.447 49.5454 734.14 43.151 727.92 36.8792C721.579 30.4847 715.237 24.0728 708.895 17.6783C696.859 5.52014 683.965 -7.12859 667.375 -11.3507C664.87 -11.9814 662.294 -12.4193 659.912 -13.4179C654.796 -15.5552 651.117 -20.0226 647.228 -23.9994C636.384 -35.124 622.719 -43.2528 608.196 -48.7713C603.851 -50.4356 599.366 -51.8721 595.442 -54.3949C591.255 -57.0753 587.979 -60.7718 584.86 -64.6435C581.549 -64.1004 578.256 -63.4347 574.979 -62.6463V-62.6288ZM710.016 105.781C711.137 105.501 712.258 104.923 712.907 103.959C714.256 101.91 712.942 99.1943 711.558 97.1621C707.756 91.5385 703.096 86.1952 697.21 82.6739C694.564 81.0972 692.515 80.6767 689.606 80.2738C686.908 79.8883 683.755 78.0138 681.11 78.1715C680.374 78.224 679.673 78.5744 679.06 78.9774C676.537 80.5891 674.487 83.5323 675.171 86.458C675.416 87.4566 675.942 88.3675 676.572 89.1909C678.307 91.4509 680.777 93.1327 683.51 93.9211C685.577 94.5167 687.767 94.6218 689.782 95.3226C696.526 97.6701 701.922 107.884 710.016 105.799V105.781ZM610.403 -27.3455C607.652 -28.0813 604.727 -28.5543 601.959 -27.8711C599.191 -27.1879 596.633 -25.0681 596.16 -22.2475C595.634 -19.1291 597.702 -16.1334 600.137 -14.1362C602.327 -12.3317 604.884 -11.0003 607.407 -9.70389C616.026 -5.23654 624.646 -0.751673 633.283 3.71567C634.579 4.39892 636.401 4.97704 637.33 3.83831C637.908 3.12003 637.785 2.08641 637.575 1.19294C634.719 -11.2456 622.614 -24.087 610.42 -27.363L610.403 -27.3455ZM665.64 34.2688C667.743 34.7418 669.985 34.5667 671.982 33.7433C673.541 33.0951 674.768 32.9199 676.397 32.552C678.096 32.1665 679.463 31.4132 680.111 29.7139C680.216 29.4336 680.286 29.1182 680.181 28.8555C680.058 28.5576 679.778 28.3824 679.515 28.2073C676.695 26.4904 673.804 24.7735 670.563 24.0903C667.34 23.4246 663.661 23.9852 661.348 26.3327C660.244 27.4539 659.509 29.1182 660.017 30.6074C660.753 32.7272 663.661 33.8133 665.658 34.2688H665.64ZM542.639 -50.383C548.841 -44.0587 558.336 -41.4834 565.397 -35.8773C572.632 -30.096 577.695 -20.8635 586.647 -18.5159C587.19 -18.3758 587.803 -18.2707 588.259 -18.5685C588.644 -18.8138 588.819 -19.2868 588.995 -19.7248C590.606 -24.1746 592.236 -28.8522 591.552 -33.5122C590.571 -40.2045 585.298 -44.8996 580.568 -49.2093C576.486 -52.9408 573.193 -57.268 569.338 -61.1397C560.228 -58.5294 551.294 -54.9555 542.657 -50.383H542.639ZM534.511 -30.5865C537.857 -24.8228 543.095 -20.4606 547.299 -15.2925C557.408 -2.88899 561.683 14.2972 574.489 23.9326C582.04 29.6088 591.71 31.9213 599.278 37.5624C610.035 45.5686 615.151 59.1108 624.646 68.5535C633.738 77.5934 646.72 82.779 653.552 93.6408C656.951 99.0541 658.493 105.431 661.436 111.107C665.675 119.271 672.63 125.508 680.409 130.238C684.421 132.673 688.66 134.74 692.97 136.597C700.906 139.996 707.914 144.936 716.568 146.671C718.951 147.161 721.456 147.424 723.681 148.37C720.808 152.75 717.672 157.007 714.273 161.089C706.933 158.128 700.24 153.486 693.951 148.773C687.399 143.868 680.426 141.257 672.07 142.151C665.202 142.887 659.947 145.725 653.324 141.958C647.981 138.927 641.341 138.139 636.506 134.215C631.934 130.518 629.674 124.737 627.204 119.376C617.393 98.0731 601.205 79.7482 581.269 67.3623C576.118 64.1738 570.302 61.2831 564.31 62.0189C561.998 62.2993 559.773 63.1226 557.443 63.403C548.158 64.5066 540.099 56.7632 535.667 48.5293C533.267 44.097 531.462 39.3318 530.411 34.3915C529.29 29.2058 528.992 23.8976 528.274 18.6419C526.031 2.47183 519.549 -13.0675 509.756 -26.1192C515.608 -31.918 522.055 -37.2788 529.08 -42.0965C531.112 -38.365 532.408 -34.2305 534.546 -30.5515L534.511 -30.5865ZM564.643 43.5539C567.183 42.713 569.916 43.2911 572.404 42.5553C578.799 40.6633 573.525 33.936 570.687 30.8877C562.786 22.3909 554.903 13.8942 547.002 5.3975C545.162 3.41785 542.447 1.24549 540.047 2.52438C538.242 3.47041 537.839 5.83547 537.769 7.86768C537.296 20.7792 542.359 33.7958 551.416 43.0108C552.976 44.6051 554.833 46.1467 557.057 46.2869C559.878 46.4446 562.103 44.4123 564.643 43.5714V43.5539ZM652.133 129.502C654.744 130.588 665.395 131.99 661.751 126.156C658.458 120.9 652.676 117.449 649.856 111.931C648.752 109.776 648.156 107.393 647.21 105.151C646.264 102.926 644.845 100.736 642.673 99.6498C641.832 99.2293 640.886 98.9841 639.975 99.1593C639.379 99.2644 638.819 99.5447 638.311 99.8951C635.77 101.647 634.754 105.028 635.105 108.094C635.455 111.16 636.927 113.98 638.521 116.626C641.867 122.197 646.019 126.962 652.133 129.52V129.502ZM547.86 -34.0028C551.346 -33.9327 554.605 -32.2859 557.513 -30.3938C564.118 -26.1192 569.636 -20.443 574.682 -14.4691C579.762 -8.46003 581.742 -4.273 590.098 -4.04525C613.889 -3.41456 634.246 12.7555 651.029 29.6438C656.11 34.7418 661.961 40.383 669.162 40.1377C672.946 40.0151 676.485 38.2106 680.216 37.5799C686.803 36.4587 693.478 39.0165 699.294 42.3101C707.178 46.7774 714.186 52.6463 720.37 59.2685C729.602 69.1667 738.187 81.0796 744.739 93.2553C742.233 109.671 736.785 125.63 728.586 140.276C728.341 140.276 728.096 140.276 727.85 140.276C717.164 140.066 706.6 136.702 697.63 130.956C689.011 125.438 677.098 116.258 674.908 105.729C674.47 103.592 674.943 100.683 677.098 100.298C677.921 100.14 678.745 100.438 679.533 100.736C686.453 103.346 694.564 105.834 700.643 110.039C705.268 113.227 710.314 117.835 716.445 115.627C721.176 113.928 723.558 108.287 723.015 103.294C722.455 98.3008 719.599 93.8685 716.516 89.8917C711.295 83.1469 705.006 76.9451 697.175 73.5289C694.074 72.18 690.78 71.269 687.784 69.6572C680.006 65.4702 674.54 56.6231 665.798 55.4493C664.169 55.2216 662.049 55.6595 661.699 57.2713C661.576 57.7793 661.699 58.3224 661.821 58.8305C662.995 63.7533 665.36 68.3959 668.619 72.2501C669.249 73.0034 669.933 73.7567 670.195 74.7027C671.317 78.8722 666.113 81.3775 662.89 80.3789C657.582 78.7321 653.5 73.599 649.05 70.5332C642.778 66.1885 636.243 62.1766 629.849 58.0071C627.677 56.5881 625.469 55.134 623.857 53.0843C622.263 51.0345 621.37 48.249 622.193 45.7963C622.544 44.7802 623.157 43.8517 623.227 42.8006C623.332 41.5567 622.666 40.4005 622.036 39.3318C620.336 36.4412 618.462 33.4104 615.483 31.8863C614.257 31.2556 612.891 30.9227 611.577 30.5373C605.48 28.7503 599.208 26.1225 593.304 23.8275C586.262 21.1121 579.184 16.7323 574.279 10.9335C569.461 5.25735 568.007 -2.41598 563.294 -8.49508C558.284 -14.9246 552.135 -20.373 546.126 -25.8389C544.374 -27.4506 542.447 -29.7807 543.463 -31.9355C544.216 -33.4947 546.178 -34.0378 547.895 -33.9852L547.86 -34.0028ZM700.941 64.5417C702.343 64.7344 708.474 65.4527 709.263 64.3139C709.438 64.0687 709.438 63.7358 709.385 63.4205C709.105 61.178 707.493 59.3736 705.917 57.7618C700.328 52.1032 693.478 46.7949 685.524 46.6197C684.175 46.5847 682.581 46.8475 681.916 48.0213C681.022 49.5805 682.318 51.4375 683.545 52.7689C686.26 55.7121 689.011 58.6728 692.304 60.9678C694.88 62.7547 697.805 64.1037 700.924 64.5417H700.941ZM506.866 -11.5083C510.229 -6.16505 512.069 0.474656 510.317 6.55375C508.81 11.8445 504.711 16.4695 504.763 21.9705C504.833 29.1883 511.736 34.1812 515.205 40.5056C518.551 46.6197 518.603 53.9252 519.392 60.8627C519.847 64.822 520.46 70.5682 523.298 73.5815C526.031 76.4896 529.956 78.9073 532.881 81.8154C535.965 84.8813 539.398 87.842 543.603 88.9457C547.807 90.0319 552.941 88.6654 554.92 84.8112C556.339 82.0782 555.954 78.5919 557.653 76.0166C559.44 73.2837 563.154 72.3377 566.378 72.9333C569.584 73.5289 572.422 75.3684 575.102 77.2255C594.391 90.6275 611.419 107.884 621.895 128.907C622.929 130.991 623.928 133.216 623.857 135.546C623.787 137.876 622.333 140.329 620.038 140.767C619.145 140.942 618.041 140.872 617.533 141.643C616.937 142.536 617.708 143.693 618.479 144.463C623.963 149.912 633.931 158.163 642.288 154.204C644.547 153.135 646.667 151.506 649.172 151.296C655.532 150.753 659.526 157.743 666.201 155.886C670.125 154.782 673.594 152.259 677.623 151.611C683.895 150.613 689.484 154.292 694.774 157.077C697.49 158.496 700.363 160.108 703.394 160.669C704.2 160.826 713.117 162.473 712.293 163.401C709.963 166.082 707.511 168.692 704.953 171.215C704.357 171.092 703.814 170.987 703.341 170.917C699.592 170.339 695.65 170.041 691.971 169.305C687.732 168.464 684.263 165.451 680.094 164.242C675.749 162.964 670.773 163.016 666.937 165.434C663.591 167.536 661.05 171.39 657.126 171.811C653.727 172.161 650.679 169.778 647.333 169.165C643.899 168.535 640.448 169.778 636.997 170.374C622.982 172.809 609.317 164.383 599.243 155.483C594.723 151.489 586.91 145.304 588.609 138.349C589.24 135.809 591.132 133.672 591.605 131.096C592.533 126.016 588.294 121.829 584.317 119.639C577.38 115.82 570.039 108.514 562.191 106.815C560.106 106.377 557.741 106.692 556.199 108.164C552.976 111.247 555.06 117.011 552.713 120.795C548.841 127.05 542.044 123.038 537.489 120.13C528.151 114.173 519.199 108.567 511.666 100.28C506.357 94.4466 499.105 86.3879 500.121 77.8211C500.594 73.9319 503.449 70.7785 504.798 67.0995C507.636 59.4086 503.554 51.017 499.227 44.0444C496.372 39.4369 493.218 34.3564 494.059 28.9956C495.075 22.5136 501.575 18.1338 503.327 11.8095C505.201 5.04712 501.224 -1.87289 497.002 -7.47897C496.494 -8.16221 495.986 -8.82794 495.461 -9.49366C497.51 -12.3142 499.683 -15.0472 501.96 -17.7101C503.73 -15.7479 505.446 -13.7333 506.883 -11.4558L506.866 -11.5083ZM571.668 82.8666C570.022 82.2884 567.762 81.3074 566.202 82.341C564.889 83.1994 563.837 86.1952 563.942 87.6843C564.048 89.1033 564.906 90.3472 565.799 91.4684C570.039 96.8292 575.347 101.349 581.321 104.678C582.863 105.536 584.79 106.325 586.332 105.431C587.488 104.765 588.014 103.294 587.926 101.962C587.838 100.631 587.243 99.3695 586.647 98.1782C585.158 95.1824 583.546 92.2217 581.391 89.6464C578.886 86.6857 575.382 84.1455 571.686 82.8666H571.668Z" stroke="#3215AB" stroke-width="0.5"/>
<path style="mix-blend-mode:screen" d="M666.515 56.1577C672.192 6.40988 636.465 -38.5206 586.718 -44.1975C536.97 -49.8743 492.039 -14.1478 486.363 35.6C480.686 85.3478 516.412 130.278 566.16 135.955C615.908 141.632 660.838 105.905 666.515 56.1577Z" fill="url(#paint1_linear_30_2013)"/>
<path d="M529.185 -42.2192L529.063 -42.1316C522.02 -37.3138 515.591 -31.953 509.739 -26.1542C507.006 -23.4563 504.414 -20.6533 501.943 -17.7626C499.666 -15.0997 497.494 -12.3493 495.444 -9.54621C493.867 -7.39137 492.378 -5.2015 490.941 -2.97658C488.226 1.2455 485.738 5.59021 483.513 10.0576C482.059 12.9482 480.728 15.8914 479.484 18.8521L479.186 19.5529C476.401 26.3678 474.141 33.3754 472.476 40.5056C470.637 48.3191 469.481 56.2902 469.008 64.3315C468.447 73.9844 468.885 83.7075 470.357 93.3605C473.405 113.315 480.868 132.901 493.026 150.665C535.387 212.542 618.97 229.378 681.794 189.522C683.178 188.646 684.544 187.753 685.911 186.807C687.575 185.668 689.204 184.512 690.798 183.321C692.585 181.989 694.337 180.605 696.054 179.186C699.172 176.628 702.133 173.948 704.954 171.162C707.511 168.64 709.964 166.029 712.294 163.349C712.96 162.596 713.608 161.825 714.256 161.054C717.655 156.972 720.791 152.732 723.664 148.335C725.381 145.69 727.01 143.009 728.552 140.276C736.768 125.648 742.199 109.688 744.704 93.2554C745.528 87.9121 746.036 82.5162 746.228 77.1028C746.474 70.3405 746.228 63.5606 745.458 56.7983C744.915 51.8579 744.091 46.9176 742.987 42.0298C739.256 25.2816 732.336 8.95387 722.052 -6.05993C721.649 -6.65557 721.229 -7.25122 720.808 -7.82935C719.477 -9.7214 718.11 -11.5609 716.674 -13.3829C716.411 -13.7157 716.131 -14.0661 715.868 -14.399C715.202 -15.2224 714.537 -16.0458 713.871 -16.8516C713.556 -17.2371 713.24 -17.605 712.907 -17.9904C712.627 -18.3232 712.329 -18.6561 712.049 -18.989C711.804 -19.2693 711.558 -19.5496 711.313 -19.8299C711.015 -20.1452 710.717 -20.4781 710.437 -20.8109C710.157 -21.1263 709.877 -21.4241 709.596 -21.7394C709.316 -22.0548 709.036 -22.3526 708.738 -22.668C708.458 -22.9658 708.16 -23.2811 707.879 -23.5789C707.599 -23.8768 707.301 -24.1921 707.003 -24.4899C706.565 -24.9454 706.11 -25.4184 705.654 -25.8739C705.339 -26.1893 705.024 -26.5046 704.708 -26.82C704.638 -26.89 704.551 -26.9776 704.481 -27.0477C704.2 -27.328 703.903 -27.6083 703.622 -27.8886C702.886 -28.6069 702.133 -29.3077 701.38 -29.9909C700.924 -30.3938 700.486 -30.8143 700.013 -31.2172C699.575 -31.6027 699.137 -32.0056 698.699 -32.3735C696.842 -34.0028 694.933 -35.5795 692.988 -37.0861C692.025 -37.8394 691.061 -38.5752 690.08 -39.2935C689.519 -39.6964 688.959 -40.1169 688.398 -40.5198C687.96 -40.8177 687.54 -41.133 687.102 -41.4308C686.594 -41.7812 686.103 -42.1316 685.595 -42.4644C685.087 -42.8148 684.579 -43.1477 684.071 -43.4805C683.563 -43.8134 683.055 -44.1463 682.529 -44.4791C681.513 -45.1448 680.462 -45.7931 679.428 -46.4062C678.903 -46.7216 678.377 -47.0369 677.852 -47.3347C677.326 -47.6501 676.801 -47.9479 676.275 -48.2457C675.749 -48.5435 675.206 -48.8414 674.681 -49.1392C673.612 -49.7348 672.526 -50.313 671.457 -50.8736C670.371 -51.4342 669.285 -51.9773 668.199 -52.5028C667.761 -52.7131 667.323 -52.9233 666.867 -53.1335C666.359 -53.3613 665.851 -53.6065 665.343 -53.8343C664.958 -54.0095 664.555 -54.2022 664.152 -54.3774C663.539 -54.6577 662.908 -54.938 662.277 -55.2008C661.769 -55.4285 661.244 -55.6387 660.736 -55.849C660.158 -56.0942 659.562 -56.3395 658.984 -56.5672C658.283 -56.8475 657.565 -57.1279 656.864 -57.3906C656.321 -57.5833 655.795 -57.7936 655.252 -57.9863C654.727 -58.179 654.201 -58.3717 653.658 -58.5644C653.132 -58.7396 652.607 -58.9323 652.081 -59.1075C651.801 -59.2126 651.538 -59.3002 651.258 -59.3878C650.978 -59.4754 650.697 -59.5805 650.399 -59.6681C632.6 -65.4494 613.785 -67.6042 595.092 -65.9399C595.092 -65.9399 595.092 -65.9399 595.057 -65.9399C594.724 -65.9224 594.409 -65.8874 594.076 -65.8523C590.992 -65.5545 587.909 -65.1516 584.843 -64.6435C581.532 -64.1004 578.239 -63.4347 574.963 -62.6463C573.071 -62.1908 571.179 -61.7003 569.321 -61.1572C560.212 -58.5469 551.277 -54.973 542.64 -50.4006C538.05 -47.9654 533.565 -45.25 529.168 -42.2542L529.185 -42.2192Z" stroke="#3215AB" stroke-width="0.5"/>
<path d="M469.698 52.2492C351.217 119.388 280.765 185.207 295.904 221.002C316.874 270.557 498.888 240.906 702.435 154.741C905.983 68.5767 1053.99 -41.4406 1033.02 -90.9954C1019.01 -124.095 933.221 -121.869 817.155 -91.0581" stroke="white" stroke-width="0.75" stroke-miterlimit="10" stroke-linecap="round"/>
<path d="M469.389 55.6417C367.302 114.85 307.127 171.729 320.197 202.666C339.097 247.299 507.226 218.776 695.791 138.943C884.357 59.1102 1021.86 -41.7233 1002.96 -86.3571C991.02 -114.535 919.525 -113.532 820.948 -88.8646" stroke="white" stroke-width="0.75" stroke-miterlimit="10" stroke-linecap="round"/>
<path d="M468.772 59.3425C384.99 109.336 336.493 155.712 347.182 180.944C363.543 219.591 515.906 192.04 687.514 119.416C859.122 46.7918 984.968 -43.4475 968.607 -82.0946C959.078 -104.6 903.474 -104.662 824.832 -86.4514" stroke="white" stroke-width="0.75" stroke-miterlimit="10" stroke-linecap="round"/>
<path d="M468.464 62.7349C395.777 105.958 353.483 144.993 362.039 165.147C375.768 197.557 517.787 168.407 679.303 100.014C840.818 31.6532 960.615 -50.0292 946.886 -82.4388C939.426 -100.054 894.009 -99.4586 828.155 -84.2881" stroke="white" stroke-width="0.75" stroke-miterlimit="10" stroke-linecap="round"/>
<path d="M201.174 200.847L310.772 197.507L274.149 206.081L331.333 242.034L262.243 270.954L201.174 200.847Z" fill="url(#paint2_linear_30_2013)" stroke="#220E6E" stroke-width="0.5"/>
<path d="M255.004 278.893L201.174 200.847L262.243 270.954L255.004 278.893Z" fill="url(#paint3_linear_30_2013)" stroke="#220E6E" stroke-width="0.5"/>
<path d="M505.082 213.283C503.409 222.8 485.96 243.906 461.359 268.698C427.272 303.058 379.457 344.481 340.917 371.934C349.218 365.108 356.848 357.434 362.745 348.477C366.785 342.343 369.97 335.613 371.886 328.506C372.867 324.909 373.375 321.289 373.781 317.589C374.113 314.5 373.257 311.47 374.548 308.506C375.58 306.125 377.334 304.142 379.067 302.203C390.729 289.14 402.384 276.077 414.039 263.007C421.396 254.772 428.753 246.523 436.111 238.281C422.06 248.41 407.662 257.876 392.992 266.936C382.826 273.232 372.528 279.321 362.126 285.329C359.516 286.833 356.671 287.953 353.781 288.322C351.156 288.646 348.495 288.374 345.93 287.238C339.339 284.297 332.727 281.496 325.9 279.114C319.671 276.954 313.361 275.111 307.006 273.571C297.481 271.249 287.824 269.59 278.049 268.455C273.773 267.968 269.365 267.835 265.259 269.118C264.765 269.273 264.278 269.457 263.806 269.671C308.009 249.45 357.821 231.064 416.98 215.259C423.807 213.445 430.759 211.661 437.836 209.899C448.37 207.297 459.48 207.695 469.675 211.374L469.852 211.44C475.609 211.175 481.301 211.138 486.933 211.381H486.94C493.081 211.646 499.133 212.258 505.082 213.305V213.283Z" fill="url(#paint4_linear_30_2013)" stroke="#220E6E" stroke-width="0.5"/>
<path d="M325.907 279.1C319.678 276.94 313.367 275.097 307.013 273.556C319.516 266.309 332.778 259.851 347.057 260.006C359.523 260.132 371.399 265.351 383.799 266.648C386.88 266.973 389.954 267.054 393.006 266.921C382.841 273.217 372.542 279.306 362.14 285.314C359.53 286.818 356.685 287.939 353.795 288.307C351.171 288.632 348.509 288.359 345.944 287.223C339.353 284.282 332.741 281.481 325.914 279.1H325.907Z" fill="url(#paint5_linear_30_2013)" stroke="#220E6E" stroke-width="0.5"/>
<path d="M505.082 213.283C503.409 222.8 485.959 243.906 461.359 268.698C427.271 303.058 379.457 344.481 340.917 371.934C349.217 365.108 356.847 357.434 362.745 348.477C366.785 342.343 369.969 335.613 371.886 328.506C372.867 324.909 373.375 321.289 373.781 317.588C374.112 314.5 373.257 311.47 374.547 308.506C375.579 306.125 377.334 304.142 379.066 302.203C390.729 289.14 402.384 276.077 414.039 263.007C426.114 259.225 437.813 253.246 449.056 247.371C456.929 243.257 464.625 238.797 472.012 233.865C477.474 230.231 487.154 226.162 488.392 219.048C488.842 216.438 488.296 213.659 486.933 211.381C493.073 211.639 499.126 212.251 505.075 213.29L505.082 213.283Z" fill="url(#paint6_linear_30_2013)" stroke="#220E6E" stroke-width="0.5"/>
<g style="mix-blend-mode:multiply">
<path d="M418.167 304.717C398.698 323.906 376.921 340.567 355.203 357.176C360.88 343.309 366.556 329.443 372.225 315.576C373.721 311.912 375.247 308.211 377.54 304.99C380.526 300.795 384.691 297.611 388.812 294.529C398.454 287.319 408.266 280.323 418.064 273.327C425.848 267.776 433.633 262.225 441.411 256.667C445.237 253.939 449.063 251.212 452.889 248.477C456.405 245.963 460.364 242.093 464.315 240.493C464.831 240.286 463.961 242.911 463.983 242.844C463.482 244.267 462.605 245.661 461.919 247.002C460.578 249.619 459.177 252.199 457.71 254.75C450.058 268.071 440.732 280.404 430.485 291.824C426.512 296.247 422.391 300.545 418.159 304.717H418.167Z" fill="#CCB1E0"/>
</g>
<path d="M466.947 238.318C455.543 248.278 444.507 257.537 433.759 266.169C413.088 282.771 393.456 297.058 374.208 309.472L370.264 307.614L436.118 238.274C437.659 238.075 439.199 237.898 440.733 237.765C449.586 236.954 458.315 237.234 466.947 238.311V238.318Z" fill="url(#paint7_linear_30_2013)" stroke="#220E6E" stroke-width="0.5"/>
<g style="mix-blend-mode:multiply">
<path d="M434.407 221.053C425.457 225.152 416.25 229.568 407.344 233.843C398.439 238.119 389.224 242.542 380.275 246.641L380.149 246.7L380.024 246.641C374.591 243.958 368.089 240.891 361.093 238.421C335.947 247.644 309.261 257.691 283.614 270.091L283.363 269.575C309.069 257.146 335.807 247.091 360.997 237.846L361.093 237.809L361.189 237.846C368.2 240.308 374.709 243.375 380.164 246.066C389.077 241.982 398.24 237.588 407.101 233.327C416.006 229.052 425.221 224.628 434.171 220.53L434.407 221.053Z" fill="#220E6E"/>
</g>
<g style="mix-blend-mode:multiply">
<path d="M410.221 232.443C409.343 231.956 408.488 231.396 407.655 230.858C406.866 230.349 406.055 229.818 405.237 229.361C400.003 231.13 395.469 233.762 391.267 236.342L394.909 239.173L394.555 239.623L390.265 236.283L390.619 236.07C394.975 233.386 399.693 230.614 405.186 228.779L405.303 228.735L405.414 228.794C406.291 229.28 407.146 229.84 407.98 230.378C408.805 230.909 409.653 231.462 410.508 231.941L410.228 232.443H410.221Z" fill="#220E6E"/>
</g>
<g style="mix-blend-mode:multiply">
<path d="M468.216 217.463L467.855 217.61C465.651 218.51 463.129 219.785 460.697 221.016C459.569 221.584 458.478 222.137 457.46 222.631L457.269 222.726L457.121 222.564C454.409 219.542 452.308 219.048 448.835 218.222L448.253 218.082L448.386 217.522L448.968 217.662C452.484 218.495 454.63 219.011 457.402 222.019C458.36 221.554 459.385 221.031 460.439 220.5C462.754 219.328 465.135 218.126 467.273 217.227C465.732 215.539 463.439 214.735 460.277 214.779V214.204C463.8 214.153 466.322 215.119 467.973 217.153L468.216 217.455V217.463Z" fill="#220E6E"/>
</g>
<path d="M469.852 211.425C458.381 215.59 450.382 217.994 437.658 223.67C431.038 218.51 425.251 216.615 416.98 215.237C423.807 213.416 430.758 211.632 437.835 209.877C448.362 207.275 459.472 207.673 469.675 211.352L469.852 211.418V211.425Z" fill="#3215AB" stroke="#220E6E" stroke-width="0.5" stroke-linejoin="round"/>
<path style="mix-blend-mode:screen" d="M467.236 211.735C463.196 212.819 459.539 214.035 455.743 215.789C450.118 212.937 444.545 211.565 438.293 210.71C448.526 207.938 459.149 209.147 467.236 211.735Z" fill="url(#paint8_linear_30_2013)"/>
<g style="mix-blend-mode:multiply">
<path d="M386.628 272.155C363.259 275.17 338.652 265.366 323.156 247.629C308.213 253.519 293.263 259.409 278.32 265.299C275.113 266.56 272.039 268.764 268.714 269.664C296.809 271.978 323.576 280.574 348.375 293.984C351.11 295.458 354.096 297.05 357.155 296.483C359.013 296.136 360.62 295.03 362.161 293.939C371.044 287.629 378.379 279.269 386.636 272.155H386.628Z" fill="#CCB1E0"/>
</g>
<g style="mix-blend-mode:multiply">
<path d="M458.949 237.787L437.151 252.111C432.646 256.6 424.839 266.059 424.758 266.154L424.721 266.199L424.67 266.228C424.515 266.309 409.13 274.028 401.146 277.102L400.94 276.564C408.651 273.593 423.343 266.25 424.353 265.742C424.957 265.012 432.351 256.077 436.789 251.661L458.632 237.301L458.949 237.78V237.787Z" fill="#220E6E"/>
</g>
<g style="mix-blend-mode:multiply">
<path d="M441.611 238.075C440.549 241.562 439.503 245.049 438.441 248.536C436.782 254.013 434.129 259.955 433.819 265.653C433.812 265.823 433.797 266 433.767 266.169C413.096 282.771 393.465 297.058 374.217 309.472L370.273 307.614L436.126 238.274C437.667 238.075 439.208 237.898 440.741 237.765C441.043 237.854 441.338 237.949 441.618 238.067L441.611 238.075Z" fill="#CCB1E0"/>
</g>
<path d="M283.282 378.001L237.274 406.096L273.323 362.579L283.282 378.001Z" fill="url(#paint9_linear_30_2013)" stroke="#220E6E" stroke-width="0.5"/>
<path d="M353.779 288.307C351.155 288.646 348.494 288.366 345.928 287.223C339.338 284.282 332.725 281.481 325.906 279.107C310.336 273.696 294.369 270.327 278.047 268.447C273.779 267.953 269.371 267.828 265.272 269.103C257.023 271.676 253.27 280.788 252.172 288.757C251.162 296.136 252.283 303.641 253.882 310.917C257.052 325.351 262.161 339.321 268.515 352.649C273.868 363.884 279.625 376.881 290.182 384.216C295.607 387.99 302.058 389.679 308.641 389.089C318.084 388.241 326.496 382.926 334.096 377.257C345.014 369.126 355.261 359.83 362.758 348.469C366.798 342.336 369.983 335.598 371.9 328.499C372.873 324.901 373.389 321.274 373.787 317.574C374.118 314.485 373.263 311.455 374.553 308.491C375.593 306.11 377.347 304.127 379.08 302.196C398.092 280.891 417.112 259.579 436.124 238.274C412.342 255.421 387.528 270.651 362.132 285.314C359.522 286.818 356.676 287.931 353.787 288.307H353.779Z" fill="url(#paint10_linear_30_2013)" stroke="#220E6E" stroke-width="0.5"/>
<path d="M294.141 355.156C295.52 356.468 296.64 357.802 297.547 359.122C297.768 359.439 297.975 359.749 298.174 360.058C300.275 363.412 301.071 366.59 301.336 368.964C301.417 369.73 301.439 370.408 301.439 370.976V370.991C301.439 372.333 301.277 373.151 301.277 373.151C300.26 377.006 297.422 380.582 294.001 384.076L270.455 355.495C270.455 355.495 280.024 348.779 288.885 351.89C289.519 352.111 290.16 352.391 290.794 352.723C291.937 353.335 293.065 354.131 294.134 355.156H294.141Z" fill="#3215AB" stroke="#220E6E" stroke-width="0.5" stroke-linejoin="round"/>
<path d="M290.8 352.723C286.009 353.276 281.342 355.259 277.671 358.355L276.948 357.5C280.317 354.655 284.519 352.708 288.891 351.897C289.525 352.119 290.166 352.399 290.8 352.73V352.723Z" fill="#3215AB" stroke="#220E6E" stroke-width="0.5" stroke-linejoin="round"/>
<path d="M297.547 359.122C297.768 359.439 297.974 359.749 298.173 360.058C295.144 362.285 291.922 364.26 288.56 365.948L288.059 364.953C291.377 363.272 294.554 361.319 297.554 359.122H297.547Z" fill="#3215AB" stroke="#220E6E" stroke-width="0.5" stroke-linejoin="round"/>
<path d="M301.335 368.971C301.416 369.738 301.439 370.416 301.439 370.983V370.998C300.886 371.868 300.274 372.694 299.625 373.483C297.878 375.598 295.784 377.449 293.455 378.894L292.858 377.935C296.381 375.753 299.33 372.62 301.328 368.971H301.335Z" fill="#4966CE" stroke="#220E6E" stroke-width="0.5" stroke-linejoin="round"/>
<path d="M265.685 364.312C265.353 360.324 266.768 356.792 271.398 355.104C276.418 353.269 282.036 356.335 285.876 359.38C292.143 364.356 301.925 383.339 289.422 387.172C283.908 388.86 278.313 384.887 274.457 381.253C271.037 378.024 266.201 370.593 265.685 364.319V364.312Z" fill="#3215AB" stroke="#220E6E" stroke-width="0.5" stroke-linejoin="round"/>
<path d="M285.367 360.486C288.706 363.125 293.137 370.136 293.947 376.166C294.53 380.427 293.306 384.194 288.632 385.617C286.848 386.155 285.057 386.044 283.324 385.528C282.69 385.344 282.071 385.108 281.467 384.813C279.071 383.707 276.867 381.938 275.075 380.243C274.39 379.587 273.638 378.768 272.893 377.78C272.51 377.309 272.127 376.785 271.751 376.225C269.48 372.952 267.416 368.698 267.099 364.909C267.099 364.894 267.099 364.865 267.099 364.843C267.04 364.12 267.04 363.412 267.128 362.742C267.445 360.044 268.92 357.795 272.259 356.579C273.542 356.122 274.854 356.011 276.181 356.151C279.535 356.498 282.867 358.488 285.367 360.478V360.486Z" fill="#3D7985" stroke="#220E6E" stroke-width="0.5" stroke-linejoin="round"/>
<path d="M275.518 359.948L275.982 361.805C272.945 362.55 269.959 363.589 267.092 364.857C267.033 364.135 267.033 363.427 267.121 362.756C269.834 361.606 272.65 360.67 275.511 359.955L275.518 359.948Z" fill="#4B99A3" stroke="#220E6E" stroke-width="0.5" stroke-linejoin="round"/>
<path d="M281.328 369.9L282.124 371.64C278.725 373.195 275.622 375.259 272.887 377.78C272.504 377.309 272.12 376.785 271.744 376.225C274.597 373.637 277.819 371.514 281.32 369.9H281.328Z" fill="#4B99A3" stroke="#220E6E" stroke-width="0.5" stroke-linejoin="round"/>
<path d="M289.239 375.023C287.764 378.79 285.766 382.321 283.326 385.528C282.692 385.344 282.073 385.108 281.469 384.813C283.968 381.629 285.988 378.097 287.469 374.323L289.239 375.023Z" fill="#4B99A3" stroke="#220E6E" stroke-width="0.5" stroke-linejoin="round"/>
<path d="M285.369 360.486C288.384 362.874 292.306 368.846 293.626 374.441C293.758 375.016 293.884 375.598 293.95 376.166C292.874 376.549 291.739 376.726 290.596 376.734C289.674 376.734 288.753 376.63 287.868 376.417C285.531 375.856 283.394 374.633 281.558 373.077C279.464 371.308 277.754 369.081 276.582 366.597C275.498 364.319 274.348 361.053 275.049 358.54C275.292 357.692 275.66 356.874 276.184 356.151C277.363 356.276 278.535 356.608 279.678 357.065C281.779 357.891 283.755 359.188 285.377 360.478L285.369 360.486Z" fill="#53CFC5" stroke="#220E6E" stroke-width="0.5" stroke-linejoin="round"/>
<path d="M285.367 360.486C288.382 362.874 292.304 368.846 293.624 374.441C291.272 375.348 287.358 374.257 285.146 372.362C284.144 371.507 283.48 370.49 283.473 369.421C283.473 368.455 283.981 367.496 284.792 366.966C283.156 364.872 279.278 360.464 279.661 357.065C281.762 357.891 283.738 359.188 285.36 360.478L285.367 360.486Z" fill="#7FEBE2" stroke="#220E6E" stroke-width="0.5" stroke-linejoin="round"/>
<path d="M319.846 295.539C320.266 295.974 320.686 296.424 321.091 296.881C325.345 301.584 328.795 307.032 331.066 312.723C331.272 313.195 331.456 313.681 331.626 314.168C332.186 315.694 332.665 317.242 333.049 318.79C333.056 318.812 333.063 318.842 333.071 318.864C333.941 322.424 334.368 326.074 334.309 329.7C334.295 330.489 334.265 331.278 334.199 332.052C333.874 336.719 332.732 341.311 330.756 345.609C330.756 345.609 330.751 345.614 330.741 345.624C330.498 346.155 330.255 346.671 329.989 347.187C329.812 347.518 329.65 347.835 329.466 348.152C329.186 348.661 328.854 349.17 328.5 349.686C328.5 349.701 328.493 349.693 328.493 349.693C328.493 349.693 328.488 349.698 328.478 349.708L328.471 349.715C322.898 357.714 309.171 366.052 309.171 366.052C309.171 366.052 258.799 292.811 258.784 292.797C258.681 292.649 265.397 288.83 265.78 288.624C271.338 285.72 277.56 283.11 283.76 281.989C290.476 280.773 297.111 281.694 303.244 284.149C304.365 284.592 305.478 285.093 306.569 285.638C311.449 288.086 315.961 291.506 319.846 295.532V295.539Z" fill="#3215AB" stroke="#220E6E" stroke-width="0.5" stroke-linejoin="round"/>
<path d="M306.568 285.646C295.163 285.262 283.604 288.226 273.807 294.05L273.048 292.774C282.122 287.371 292.657 284.378 303.243 284.157C304.364 284.599 305.477 285.1 306.568 285.646Z" fill="#4966CE" stroke="#220E6E" stroke-width="0.5" stroke-linejoin="round"/>
<path d="M319.848 295.539C320.268 295.974 320.689 296.424 321.094 296.881C313.14 297.846 305.377 300.434 298.455 304.444L297.703 303.161C304.493 299.217 312.064 296.623 319.848 295.539Z" fill="#4966CE" stroke="#220E6E" stroke-width="0.5" stroke-linejoin="round"/>
<path d="M331.073 312.723C331.279 313.195 331.463 313.681 331.633 314.168C325.684 318.746 319.064 322.299 311.928 324.747L311.441 323.346C318.555 320.913 325.153 317.338 331.065 312.723H331.073Z" fill="#4966CE" stroke="#220E6E" stroke-width="0.5" stroke-linejoin="round"/>
<path d="M334.317 329.7C334.303 330.489 334.273 331.278 334.207 332.052C333.713 332.598 333.204 333.128 332.681 333.652C328.162 338.208 322.803 341.857 316.853 344.393L316.271 343.029C323.274 340.051 329.43 335.48 334.317 329.7Z" fill="#4966CE" stroke="#220E6E" stroke-width="0.5" stroke-linejoin="round"/>
<path d="M311.893 358.333C318.852 355.333 325.347 350.961 330.75 345.624C330.507 346.155 330.264 346.671 329.998 347.187C329.822 347.518 329.659 347.835 329.475 348.152C329.195 348.661 328.863 349.17 328.509 349.686C328.509 349.701 328.502 349.693 328.502 349.693C328.502 349.708 328.487 349.708 328.487 349.708C328.487 349.723 328.48 349.715 328.48 349.715C323.688 353.814 318.248 357.205 312.497 359.682L311.9 358.326L311.893 358.333Z" fill="#4966CE" stroke="#220E6E" stroke-width="0.5" stroke-linejoin="round"/>
<path d="M309.165 314.485C314.17 322.564 317.731 333.313 317.664 343.604C317.605 351.927 315.158 359.962 309.165 366.051C299.109 376.276 284.8 370.025 275.585 362.093C267.837 355.429 261.136 346.25 256.743 336.144C250.403 321.547 244.749 292.745 267.307 289.686C272.172 289.022 277.082 289.922 281.697 291.632C283.289 292.222 284.852 292.922 286.371 293.674C295.696 298.34 303.68 305.631 309.172 314.485H309.165Z" fill="#3215AB" stroke="#220E6E" stroke-width="0.5" stroke-linejoin="round"/>
<path d="M306.637 316.652C311.849 324.724 315.712 335.443 315.69 345.366C315.675 350.91 314.444 356.217 311.576 360.663C310.765 361.916 309.822 363.103 308.731 364.201C308.532 364.4 308.325 364.607 308.111 364.791C307.05 365.779 305.907 366.553 304.728 367.12C304.72 367.128 304.713 367.135 304.713 367.135C298.557 370.202 291.149 368.152 284.654 364.304C284.057 363.965 283.474 363.604 282.899 363.221C281.012 361.982 279.221 360.604 277.584 359.181C273.404 355.532 269.497 351.175 266.077 346.354C265.686 345.801 265.31 345.241 264.934 344.673C262.752 341.437 260.798 338.009 259.14 334.485C257.99 332.037 256.832 329.17 255.844 326.096C255.638 325.454 255.439 324.806 255.247 324.149C253.441 317.986 252.357 311.219 253.161 305.491C253.257 304.732 253.404 303.995 253.574 303.272C254.915 297.802 258.321 293.593 265.008 292.34C265.649 292.222 266.312 292.126 267.005 292.059C270.949 291.691 275.004 292.465 278.904 293.888C280.916 294.61 282.885 295.509 284.772 296.512C293.559 301.201 301.219 308.241 306.644 316.637L306.637 316.652Z" fill="#3D7985" stroke="#220E6E" stroke-width="0.5" stroke-linejoin="round"/>
<path d="M276.683 302.343L276.292 304.319C268.699 302.859 260.605 303.279 253.159 305.498C253.255 304.739 253.402 304.002 253.572 303.279C261.077 301.164 268.987 300.847 276.683 302.343Z" fill="#4B99A3" stroke="#220E6E" stroke-width="0.5" stroke-linejoin="round"/>
<path d="M277.368 317.065L277.751 319.055C270.195 320.53 262.838 322.904 255.842 326.103C255.635 325.462 255.436 324.813 255.245 324.157C262.307 320.935 269.73 318.561 277.36 317.065H277.368Z" fill="#4B99A3" stroke="#220E6E" stroke-width="0.5" stroke-linejoin="round"/>
<path d="M287.506 331.86L288.597 333.563C281.35 338.208 273.794 342.513 266.068 346.361C265.677 345.808 265.302 345.248 264.926 344.68C272.659 340.817 280.244 336.512 287.498 331.86H287.506Z" fill="#4B99A3" stroke="#220E6E" stroke-width="0.5" stroke-linejoin="round"/>
<path d="M299.184 343.294C295.343 350.932 290.456 358.016 284.654 364.312C284.057 363.973 283.475 363.611 282.9 363.228C288.687 356.991 293.559 349.988 297.378 342.38L299.177 343.294H299.184Z" fill="#4B99A3" stroke="#220E6E" stroke-width="0.5" stroke-linejoin="round"/>
<path d="M309.783 344.334C311.442 351.153 310.823 358.37 308.117 364.791C307.056 365.779 305.913 366.553 304.734 367.12C308.464 360.441 309.621 352.222 307.822 344.791L309.783 344.326V344.334Z" fill="#4B99A3" stroke="#220E6E" stroke-width="0.5" stroke-linejoin="round"/>
<path d="M306.636 316.652C310.728 322.97 313.971 330.924 315.173 338.834C315.512 341.024 315.689 343.206 315.689 345.366C312.983 347.386 309.548 348.484 305.7 348.197C301.903 347.909 298.306 346.317 295.055 344.334C284.226 337.721 276.485 326.258 274.377 313.74C273.514 308.654 273.595 303.257 275.711 298.561C276.492 296.844 277.583 295.244 278.896 293.902C280.547 294.5 282.169 295.207 283.724 296.003C284.078 296.173 284.425 296.342 284.756 296.527C293.544 301.215 301.203 308.256 306.629 316.652H306.636Z" fill="#53CFC5" stroke="#220E6E" stroke-width="0.5" stroke-linejoin="round"/>
<path d="M306.636 316.652C310.728 322.97 313.971 330.924 315.173 338.834C314.76 339.417 314.259 339.903 313.639 340.279C311.664 341.481 309.039 341.105 307.049 339.955C305.258 338.923 304.13 337.375 302.685 335.967C301.269 334.588 300.945 335.598 299.205 335.156C299.743 336.387 300.436 337.574 301.07 338.768C301.373 339.35 301.69 340.021 301.476 340.64C301.107 341.687 299.633 341.717 298.564 341.422C293.44 339.992 289.356 335.377 288.575 330.113C288.457 329.339 288.501 328.381 289.187 328.012C289.99 327.577 290.904 328.315 291.516 328.993C290.3 327.423 289.076 325.882 288.088 324.157C287.462 323.058 285.582 320.183 285.855 318.886C285.641 319.911 285.317 321.097 284.351 321.532C283.186 322.063 281.881 321.171 281.019 320.235C277.569 316.49 276.013 311.536 276.566 306.523C276.64 305.86 276.75 305.167 277.126 304.621C277.996 303.324 280.009 303.279 281.336 304.113C282.655 304.938 283.459 306.376 284.181 307.754C284.093 305.277 283.061 303.198 282.854 300.729C282.707 299.122 282.95 297.375 283.732 296.011C284.085 296.18 284.432 296.35 284.764 296.534C293.551 301.223 301.21 308.263 306.636 316.66V316.652Z" fill="#7FEBE2" stroke="#220E6E" stroke-width="0.5" stroke-linejoin="round"/>
<path d="M355.918 306.988C357.245 308.506 358.292 310.01 359.118 311.484C359.324 311.838 359.509 312.192 359.685 312.531C361.573 316.261 362.096 319.682 362.155 322.211C362.17 323.029 362.126 323.737 362.074 324.334V324.349C361.949 325.764 361.698 326.604 361.698 326.604C360.253 330.556 356.921 334.05 352.984 337.389L330.979 305.049C330.979 305.049 341.691 298.908 350.714 303.036C351.363 303.331 352.011 303.685 352.645 304.098C353.788 304.85 354.894 305.793 355.926 306.98L355.918 306.988Z" fill="#3215AB" stroke="#220E6E" stroke-width="0.5" stroke-linejoin="round"/>
<path d="M352.638 304.098C347.544 304.216 342.442 305.852 338.277 308.749L337.599 307.776C341.418 305.108 346.025 303.464 350.706 303.036C351.355 303.331 352.004 303.685 352.638 304.098Z" fill="#4966CE" stroke="#220E6E" stroke-width="0.5" stroke-linejoin="round"/>
<path d="M359.116 311.484C359.322 311.838 359.506 312.192 359.683 312.531C356.278 314.581 352.702 316.35 349.001 317.802L348.567 316.704C352.216 315.252 355.754 313.512 359.116 311.484Z" fill="#4966CE" stroke="#220E6E" stroke-width="0.5" stroke-linejoin="round"/>
<path d="M362.146 322.211C362.161 323.029 362.117 323.737 362.065 324.334V324.349C361.394 325.211 360.679 326.015 359.912 326.789C357.87 328.845 355.489 330.585 352.902 331.883L352.371 330.821C356.285 328.867 359.691 325.852 362.154 322.211H362.146Z" fill="#4966CE" stroke="#220E6E" stroke-width="0.5" stroke-linejoin="round"/>
<path d="M325.095 313.866C325.132 309.634 326.96 306.059 331.995 304.732C337.451 303.287 343.068 307.054 346.813 310.629C352.924 316.468 361.373 337.389 347.86 340.206C341.896 341.451 336.397 336.733 332.696 332.531C329.408 328.801 325.044 320.522 325.103 313.866H325.095Z" fill="#3215AB" stroke="#220E6E" stroke-width="0.5" stroke-linejoin="round"/>
<path d="M346.173 311.742C349.432 314.839 353.42 322.646 353.685 329.074C353.884 333.608 352.233 337.456 347.176 338.503C345.245 338.893 343.372 338.613 341.603 337.891C340.954 337.633 340.32 337.323 339.716 336.954C337.298 335.561 335.16 333.482 333.435 331.529C332.779 330.777 332.064 329.841 331.371 328.727C331.017 328.189 330.663 327.607 330.324 326.988C328.252 323.324 326.49 318.65 326.527 314.632C326.527 314.618 326.527 314.581 326.527 314.566C326.527 313.799 326.608 313.055 326.763 312.354C327.36 309.546 329.129 307.319 332.756 306.368C334.15 306.007 335.543 306.022 336.922 306.302C340.416 306.995 343.733 309.406 346.166 311.742H346.173Z" fill="#3D7985" stroke="#220E6E" stroke-width="0.5" stroke-linejoin="round"/>
<path d="M335.866 310.224L336.175 312.222C332.909 312.716 329.666 313.519 326.533 314.573C326.533 313.807 326.614 313.062 326.769 312.362C329.732 311.418 332.784 310.703 335.866 310.224Z" fill="#4B99A3" stroke="#220E6E" stroke-width="0.5" stroke-linejoin="round"/>
<path d="M341.018 321.26L341.689 323.162C337.966 324.466 334.501 326.339 331.375 328.727C331.022 328.189 330.668 327.607 330.329 326.988C333.58 324.54 337.177 322.616 341.018 321.26Z" fill="#4B99A3" stroke="#220E6E" stroke-width="0.5" stroke-linejoin="round"/>
<path d="M348.842 327.408C346.925 331.226 344.485 334.75 341.61 337.891C340.961 337.633 340.327 337.323 339.723 336.954C342.657 333.843 345.126 330.327 347.05 326.501L348.842 327.408Z" fill="#4B99A3" stroke="#220E6E" stroke-width="0.5" stroke-linejoin="round"/>
<path d="M346.172 311.742C349.113 314.544 352.659 321.208 353.507 327.224C353.595 327.843 353.662 328.469 353.684 329.074C352.519 329.369 351.303 329.45 350.094 329.347C349.128 329.258 348.17 329.059 347.248 328.75C344.845 327.939 342.707 326.442 340.93 324.621C338.896 322.557 337.318 320.051 336.323 317.323C335.409 314.824 334.509 311.271 335.49 308.698C335.829 307.828 336.301 307.002 336.92 306.295C338.151 306.545 339.353 307.002 340.503 307.592C342.633 308.668 344.587 310.224 346.164 311.735L346.172 311.742Z" fill="#53CFC5" stroke="#220E6E" stroke-width="0.5" stroke-linejoin="round"/>
<path d="M346.173 311.743C349.114 314.544 352.66 321.208 353.508 327.224C350.95 327.946 346.932 326.427 344.794 324.216C343.821 323.221 343.224 322.085 343.32 320.965C343.408 319.947 344.042 318.989 344.949 318.51C343.43 316.144 339.781 311.138 340.511 307.599C342.641 308.676 344.595 310.231 346.173 311.743Z" fill="#7FEBE2" stroke="#220E6E" stroke-width="0.5" stroke-linejoin="round"/>
<g style="mix-blend-mode:multiply">
<path d="M314.65 231.801L270.588 239.35L270.485 239.254C256.397 226.007 229.534 200.81 228.737 200.257L228.885 200.043V199.719C229.04 199.719 229.261 199.711 270.772 238.731L314.554 231.234L314.65 231.801Z" fill="#220E6E"/>
</g>
<g style="mix-blend-mode:multiply">
<path d="M301.654 245.189L263.829 254.684L272.911 265.461L272.469 265.837L262.797 254.345L300.777 244.82L294.997 234.979L295.491 234.684L301.654 245.189Z" fill="#220E6E"/>
</g>
<g style="mix-blend-mode:multiply">
<path d="M204.913 203.051L243.395 202.336C259.259 222.667 282.245 237.227 309.145 248.617L262.193 267.032L204.913 203.043V203.051Z" fill="#CCB1E0"/>
</g>
<path d="M486.946 211.374H486.939C481.299 211.116 475.608 211.16 469.858 211.425L469.681 211.359C469.091 211.145 468.494 210.946 467.89 210.754C458.196 207.643 447.764 207.437 437.842 209.884C436.382 210.246 434.945 210.614 433.5 210.983C427.926 212.384 422.412 213.799 416.994 215.244C385.965 223.53 357.525 232.538 331.096 242.144L331.339 242.041L314.605 231.521L314.553 231.241L314.237 231.293L275.932 207.201L272.268 208.056L312.349 233.261L312.666 233.209L312.718 233.489L329.452 244.009L329.209 244.112C355.637 234.507 384.071 225.506 415.107 217.212C420.525 215.767 426.039 214.352 431.612 212.951C433.065 212.583 434.495 212.214 435.962 211.853C445.885 209.398 456.316 209.612 466.01 212.723C466.607 212.914 467.204 213.113 467.801 213.327L467.978 213.394C473.736 213.128 479.427 213.091 485.059 213.335H485.066C491.207 213.6 497.26 214.212 503.209 215.259C501.779 223.397 488.819 239.991 469.733 260.117C489.851 239.107 503.614 221.68 505.089 213.283C499.139 212.244 493.087 211.632 486.946 211.374Z" fill="white"/>
<path d="M226.998 201.982V201.694C226.998 201.694 227.057 201.694 227.381 201.967L301.344 199.719L310.772 197.514L229.261 199.999C228.929 199.726 228.9 199.719 228.87 199.726V200.013L201.174 200.854L202.471 202.734L226.998 201.989V201.982Z" fill="white"/>
<path d="M267.566 358.016C267.507 357.95 267.456 357.883 267.397 357.817C267.235 358.016 267.08 358.23 266.94 358.444C267.139 358.296 267.345 358.156 267.566 358.016Z" fill="white"/>
<path d="M467.582 238.955C465.017 238.712 462.444 238.535 459.879 238.439C457.306 238.336 454.74 238.38 452.175 238.395C447.044 238.38 441.906 238.734 436.812 239.353L437.011 239.279C425.688 247.116 414.276 254.841 402.717 262.324C396.93 266.062 391.106 269.748 385.23 273.33L380.815 276.014C379.348 276.913 377.807 277.702 376.31 278.542C373.288 280.201 370.251 281.823 367.184 283.4C370.125 281.602 373.067 279.818 375.979 277.982C377.438 277.075 378.876 276.124 380.358 275.247C381.839 274.377 383.306 273.485 384.773 272.586C390.649 269.003 396.465 265.324 402.245 261.587C413.797 254.112 425.201 246.393 436.517 238.557L436.605 238.498L436.716 238.483C441.847 237.849 447.015 237.517 452.19 237.495C454.777 237.495 457.357 237.709 459.93 237.938C462.503 238.181 465.061 238.513 467.604 238.955H467.582Z" fill="white"/>
<g style="mix-blend-mode:screen">
<path d="M261.527 293.187C240.561 308.617 226.989 328.875 216.241 348.764L0 429.266L10.0406 451.345L219.669 357.795C245.714 368.882 270.86 371.662 301.335 368.971C301.335 368.971 329.658 359.395 307.196 317.537C283.525 284.098 261.519 293.187 261.519 293.187H261.527Z" fill="url(#paint11_linear_30_2013)"/>
</g>
<path d="M201.174 200.847L310.772 197.507L274.149 206.081L331.333 242.034L262.243 270.954L201.174 200.847Z" stroke="#220E6E" stroke-width="0.5" stroke-linejoin="round"/>
<path d="M505.082 213.283C503.409 222.8 485.959 243.906 461.359 268.698C427.271 303.058 379.457 344.481 340.917 371.934C349.217 365.108 356.847 357.434 362.745 348.477C366.785 342.343 369.969 335.613 371.886 328.506C372.867 324.909 373.375 321.289 373.781 317.589C374.112 314.5 373.257 311.47 374.547 308.506C375.579 306.125 377.334 304.142 379.066 302.203C390.729 289.14 402.384 276.077 414.039 263.007C421.396 254.772 428.753 246.523 436.11 238.281C422.059 248.41 407.662 257.876 392.992 266.936C382.826 273.232 372.527 279.321 362.126 285.329C359.516 286.833 356.67 287.953 353.781 288.322C351.156 288.646 348.495 288.374 345.929 287.238C339.339 284.297 332.726 281.496 325.9 279.114C319.671 276.954 313.36 275.111 307.006 273.571C297.481 271.249 287.824 269.59 278.049 268.455C273.773 267.968 269.365 267.835 265.258 269.118C264.765 269.273 264.278 269.457 263.806 269.671C308.008 249.45 357.82 231.064 416.98 215.259C423.807 213.445 430.758 211.661 437.835 209.899C448.37 207.297 459.479 207.695 469.675 211.374L469.852 211.44C475.609 211.175 481.3 211.138 486.933 211.381H486.94C493.081 211.646 499.133 212.258 505.082 213.305V213.283Z" stroke="#220E6E" stroke-width="0.5" stroke-linejoin="round"/>
<path d="M466.947 238.318C455.543 248.278 444.507 257.537 433.759 266.169C413.088 282.771 393.456 297.058 374.208 309.472L370.264 307.614L436.118 238.274C437.659 238.075 439.199 237.898 440.733 237.765C449.586 236.954 458.315 237.234 466.947 238.311V238.318Z" stroke="#220E6E" stroke-width="0.5" stroke-linejoin="round"/>
<path style="mix-blend-mode:lighten" d="M209.308 451.51L256.928 432.07C257.463 431.85 257.721 431.239 257.502 430.694C257.282 430.159 256.671 429.901 256.126 430.121L208.515 449.551C207.98 449.771 207.722 450.383 207.942 450.927H207.933C208.152 451.462 208.764 451.72 209.308 451.5V451.51Z" fill="url(#paint12_linear_30_2013)"/>
<path d="M481.946 408.333L529.566 388.894C530.101 388.674 530.359 388.062 530.139 387.518C529.92 386.983 529.308 386.725 528.764 386.945L481.143 406.385C480.608 406.604 480.35 407.216 480.57 407.76C480.79 408.295 481.401 408.553 481.946 408.333Z" fill="url(#paint13_linear_30_2013)"/>
<path style="mix-blend-mode:screen" d="M129.133 202.32L176.753 182.88C177.288 182.661 177.546 182.049 177.326 181.505C177.107 180.97 176.495 180.712 175.951 180.932L128.33 200.371C127.795 200.591 127.538 201.203 127.757 201.747C127.977 202.282 128.588 202.54 129.133 202.32Z" fill="url(#paint14_linear_30_2013)"/>
<path style="mix-blend-mode:screen" d="M260.512 126.453L308.133 107.013C308.668 106.794 308.926 106.182 308.706 105.638C308.486 105.103 307.875 104.845 307.33 105.065L259.71 124.504C259.175 124.724 258.917 125.335 259.137 125.88C259.357 126.415 259.968 126.673 260.512 126.453Z" fill="url(#paint15_linear_30_2013)"/>
<path d="M196.361 115.567L217.463 106.951C217.998 106.731 218.256 106.12 218.036 105.575C217.816 105.04 217.205 104.782 216.661 105.002L195.559 113.619C195.024 113.838 194.766 114.45 194.985 114.994C195.205 115.529 195.817 115.787 196.361 115.567Z" fill="url(#paint16_linear_30_2013)"/>
<path style="mix-blend-mode:lighten" d="M411.63 349.737L459.25 330.297C459.785 330.077 460.043 329.466 459.823 328.921C459.604 328.386 458.992 328.129 458.448 328.348L410.827 347.788C410.292 348.008 410.035 348.619 410.254 349.164C410.474 349.699 411.085 349.957 411.63 349.737Z" fill="url(#paint17_linear_30_2013)"/>
<path style="mix-blend-mode:lighten" d="M480.712 276.954L528.333 257.514C528.868 257.294 529.125 256.683 528.906 256.138C528.686 255.603 528.075 255.345 527.53 255.565L479.91 275.005C479.375 275.225 479.117 275.836 479.337 276.381C479.556 276.915 480.168 277.173 480.712 276.954Z" fill="url(#paint18_linear_30_2013)"/>
<defs>
<linearGradient id="paint0_linear_30_2013" x1="439.782" y1="-30.0943" x2="762.989" y2="354.792" gradientUnits="userSpaceOnUse">
<stop stop-color="#E6007A"/>
<stop offset="0.21" stop-color="#703AC2"/>
<stop offset="0.46" stop-color="#0070EB"/>
<stop offset="0.77" stop-color="#0297FB"/>
<stop offset="1" stop-color="#0AE2FF"/>
</linearGradient>
<linearGradient id="paint1_linear_30_2013" x1="474.058" y1="24.989" x2="635.099" y2="58.0687" gradientUnits="userSpaceOnUse">
<stop stop-color="#2C698B"/>
<stop offset="1"/>
</linearGradient>
<linearGradient id="paint2_linear_30_2013" x1="317.838" y1="204.378" x2="292.121" y2="284.246" gradientUnits="userSpaceOnUse">
<stop stop-color="#6D59FF"/>
<stop offset="0.78" stop-color="#1564AB"/>
</linearGradient>
<linearGradient id="paint3_linear_30_2013" x1="255.912" y1="208.148" x2="211.317" y2="269.296" gradientUnits="userSpaceOnUse">
<stop stop-color="#6340AE"/>
<stop offset="0.682292" stop-color="#1524AB"/>
</linearGradient>
<linearGradient id="paint4_linear_30_2013" x1="327.955" y1="237.197" x2="349.254" y2="315.544" gradientUnits="userSpaceOnUse">
<stop stop-color="#E7E3FF"/>
<stop offset="1" stop-color="#8ED0D1"/>
</linearGradient>
<linearGradient id="paint5_linear_30_2013" x1="384.091" y1="262.663" x2="377.874" y2="295.613" gradientUnits="userSpaceOnUse">
<stop stop-color="#6D59FF"/>
<stop offset="0.78" stop-color="#1564AB"/>
</linearGradient>
<linearGradient id="paint6_linear_30_2013" x1="488.062" y1="226.4" x2="406.062" y2="373.332" gradientUnits="userSpaceOnUse">
<stop stop-color="#6D59FF"/>
<stop offset="0.78" stop-color="#1564AB"/>
</linearGradient>
<linearGradient id="paint7_linear_30_2013" x1="486.811" y1="244.479" x2="459.555" y2="299.562" gradientUnits="userSpaceOnUse">
<stop stop-color="#F3D4FF"/>
<stop offset="1" stop-color="#828CD1"/>
</linearGradient>
<linearGradient id="paint8_linear_30_2013" x1="440.835" y1="195.554" x2="455.301" y2="214.593" gradientUnits="userSpaceOnUse">
<stop stop-color="#3D4A4A"/>
<stop offset="0.3" stop-color="#3A4747"/>
<stop offset="0.51" stop-color="#333D3D"/>
<stop offset="0.69" stop-color="#262E2E"/>
<stop offset="0.86" stop-color="#141818"/>
<stop offset="1"/>
</linearGradient>
<linearGradient id="paint9_linear_30_2013" x1="278.512" y1="366.65" x2="256.682" y2="407.096" gradientUnits="userSpaceOnUse">
<stop stop-color="#6340AE"/>
<stop offset="0.682292" stop-color="#1524AB"/>
</linearGradient>
<linearGradient id="paint10_linear_30_2013" x1="417.012" y1="252.393" x2="347.543" y2="401.079" gradientUnits="userSpaceOnUse">
<stop stop-color="#6340AE"/>
<stop offset="0.682292" stop-color="#1524AB"/>
</linearGradient>
<linearGradient id="paint11_linear_30_2013" x1="157.759" y1="378.562" x2="19.167" y2="436.063" gradientUnits="userSpaceOnUse">
<stop stop-color="#30BF9B"/>
<stop offset="1" stop-color="#30BF9B" stop-opacity="0"/>
</linearGradient>
<linearGradient id="paint12_linear_30_2013" x1="261.228" y1="432.631" x2="207.868" y2="455.33" gradientUnits="userSpaceOnUse">
<stop stop-color="#FFFFE4"/>
<stop offset="0.5" stop-color="#FFFFE4" stop-opacity="0.17"/>
<stop offset="1" stop-color="#FFFFE4" stop-opacity="0"/>
</linearGradient>
<linearGradient id="paint13_linear_30_2013" x1="527.161" y1="387.212" x2="479.039" y2="408.152" gradientUnits="userSpaceOnUse">
<stop stop-color="#FC49EF"/>
<stop offset="0.09" stop-color="#FC49EF" stop-opacity="0.96"/>
<stop offset="0.23" stop-color="#FC49EF" stop-opacity="0.86"/>
<stop offset="0.42" stop-color="#FC49EF" stop-opacity="0.68"/>
<stop offset="0.64" stop-color="#FC49EF" stop-opacity="0.45"/>
<stop offset="0.89" stop-color="#FC49EF" stop-opacity="0.15"/>
<stop offset="1" stop-color="#FC49EF" stop-opacity="0"/>
</linearGradient>
<linearGradient id="paint14_linear_30_2013" x1="181.124" y1="180.689" x2="130.146" y2="204.292" gradientUnits="userSpaceOnUse">
<stop stop-color="#26FFEF"/>
<stop offset="0.494792" stop-color="#26EDE5" stop-opacity="0.22"/>
<stop offset="1" stop-color="#27DBDA" stop-opacity="0"/>
</linearGradient>
<linearGradient id="paint15_linear_30_2013" x1="312.503" y1="104.822" x2="261.526" y2="128.425" gradientUnits="userSpaceOnUse">
<stop stop-color="#26FFEF"/>
<stop offset="0.494792" stop-color="#26EDE5" stop-opacity="0.22"/>
<stop offset="1" stop-color="#27DBDA" stop-opacity="0"/>
</linearGradient>
<linearGradient id="paint16_linear_30_2013" x1="216.688" y1="105.096" x2="193.79" y2="114.44" gradientUnits="userSpaceOnUse">
<stop stop-color="#FC49EF"/>
<stop offset="0.09" stop-color="#FC49EF" stop-opacity="0.96"/>
<stop offset="0.23" stop-color="#FC49EF" stop-opacity="0.86"/>
<stop offset="0.42" stop-color="#FC49EF" stop-opacity="0.68"/>
<stop offset="0.64" stop-color="#FC49EF" stop-opacity="0.45"/>
<stop offset="0.89" stop-color="#FC49EF" stop-opacity="0.15"/>
<stop offset="1" stop-color="#FC49EF" stop-opacity="0"/>
</linearGradient>
<linearGradient id="paint17_linear_30_2013" x1="463.55" y1="330.86" x2="410.176" y2="353.559" gradientUnits="userSpaceOnUse">
<stop stop-color="#FFFFE4"/>
<stop offset="0.5" stop-color="#FFFFE4" stop-opacity="0.17"/>
<stop offset="1" stop-color="#FFFFE4" stop-opacity="0"/>
</linearGradient>
<linearGradient id="paint18_linear_30_2013" x1="532.632" y1="258.077" x2="479.258" y2="280.776" gradientUnits="userSpaceOnUse">
<stop stop-color="#FFFFE4"/>
<stop offset="0.5" stop-color="#FFFFE4" stop-opacity="0.17"/>
<stop offset="1" stop-color="#FFFFE4" stop-opacity="0"/>
</linearGradient>
</defs>
</svg>
