<svg width="150" height="150" viewBox="0 0 150 150" fill="none" xmlns="http://www.w3.org/2000/svg">
<g clip-path="url(#clip0_30_1455)">
<path d="M102.745 108.944C102.745 110.892 101.381 113.262 99.667 114.254L46.9625 144.571C45.2667 145.563 43.884 144.773 43.8657 142.826L43.6812 74.3097L56.4013 66.9786C58.0971 66.0048 59.4612 63.6345 59.4612 61.6869L59.4243 47.1164L99.4087 24.1125C101.123 23.1202 102.505 23.9105 102.505 25.8581L102.745 108.944V108.944Z" fill="url(#paint0_linear_30_1455)" stroke="#29256A" stroke-width="0.5" stroke-linejoin="round"/>
<path d="M96.172 89.6769L96.181 92.8583L50.3258 119.246L50.3167 116.064L96.172 89.6769Z" fill="#CCCEFD" stroke="#29256A" stroke-width="0.5" stroke-linejoin="round"/>
<path d="M96.1212 71.7757L96.1302 74.9436L50.2749 101.331L50.2659 98.163L96.1212 71.7757Z" fill="#CCCEFD" stroke="#29256A" stroke-width="0.5" stroke-linejoin="round"/>
<path d="M96.0958 62.8116L96.1048 65.9929L50.2495 92.3802L50.2405 89.199L96.0958 62.8116Z" fill="#CCCEFD" stroke="#29256A" stroke-width="0.5" stroke-linejoin="round"/>
<path d="M66.9025 115.499L66.9115 118.667L50.3513 128.196L50.3423 125.029L66.9025 115.499Z" fill="#CCCEFD" stroke="#29256A" stroke-width="0.5" stroke-linejoin="round"/>
<path d="M96.1466 80.7265L96.1556 83.8942L50.3003 110.282L50.2913 107.114L96.1466 80.7265Z" fill="#CCCEFD" stroke="#29256A" stroke-width="0.5" stroke-linejoin="round"/>
<path d="M89.0668 53.5706L89.079 57.8842L57.2066 76.225L57.1943 71.9114L89.0668 53.5706Z" fill="#65C8FF" stroke="#29256A" stroke-width="0.5" stroke-linejoin="round"/>
<path d="M43.6788 74.3016L39.0076 73.5489L54.751 46.3698L59.4225 47.1224L43.6788 74.3016Z" fill="#8C8FD9" stroke="#29256A" stroke-width="0.5" stroke-linejoin="round"/>
<path d="M101.621 23.8921C101.049 23.5614 100.275 23.6165 99.4085 24.1126L59.4241 47.1167L54.7432 46.3632L94.746 23.3592C95.6124 22.8632 96.387 22.8079 96.9396 23.1386L101.621 23.8921Z" fill="#CCCEFD" stroke="#29256A" stroke-width="0.5" stroke-linejoin="round"/>
<path d="M44.7687 144.792L40.1058 144.038C39.5531 143.726 39.203 143.046 39.203 142.072L39 73.5565L43.6809 74.3099L43.8655 142.826C43.884 143.8 44.2156 144.479 44.7687 144.792Z" fill="#CCCEFD" stroke="#29256A" stroke-width="0.5" stroke-linejoin="round"/>
<path d="M107.713 86.8038L103.325 89.3393C103.049 89.4863 102.772 89.5231 102.57 89.4129L99.4728 87.649C99.2698 87.5203 98.9935 87.5756 98.7167 87.7224C98.4588 87.8694 98.1825 88.1451 97.9794 88.5126L94.8826 93.841C94.6981 94.1717 94.4398 94.4473 94.145 94.6126L89.7763 97.13C89.2047 97.4607 88.7254 98.2691 88.7254 98.949L88.744 103.965C88.744 104.277 88.6333 104.645 88.4307 104.994L85.3518 110.304C85.0016 110.91 84.9463 111.59 85.2225 111.902L88.4486 113.776C88.6516 113.887 88.7623 114.126 88.7807 114.438V119.454C88.7807 119.785 88.9095 120.023 89.094 120.134L85.1861 117.874C85.0016 117.764 84.8909 117.525 84.8909 117.212L84.8724 112.178C84.8724 111.939 84.8174 111.755 84.6883 111.627L81.4623 109.753C81.0383 109.514 81.0383 108.742 81.4623 108.044L84.5222 102.734C84.7252 102.385 84.8543 102.017 84.8355 101.705V96.6887C84.8355 96.0088 85.2963 95.2005 85.8679 94.8697L90.2555 92.3525C90.5319 92.1873 90.7898 91.9116 90.9928 91.5809L94.0717 86.2524C94.2927 85.9032 94.5507 85.6278 94.8273 85.4623C95.1037 85.3154 95.3616 85.2786 95.5646 85.3889L98.6804 87.1527C98.883 87.2629 99.1594 87.2262 99.4177 87.0793L103.823 84.5438C104.118 84.3785 104.376 84.36 104.561 84.4704L108.469 86.7303C108.266 86.6201 108.008 86.6384 107.713 86.8037L107.713 86.8038Z" fill="#B247A4" stroke="#29256A" stroke-width="0.5" stroke-linejoin="round"/>
<path d="M92.9653 129.835L89.0754 127.575C88.9283 127.483 88.836 127.318 88.836 127.042L88.7991 116.147L92.6889 118.407L92.7253 129.302C92.7253 129.578 92.8177 129.743 92.9653 129.835Z" fill="#B247A4" stroke="#29256A" stroke-width="0.5" stroke-linejoin="round"/>
<path d="M105.162 111.241L105.193 122.133C105.194 122.681 104.801 123.304 104.375 123.549C104.235 123.629 104.093 123.669 103.959 123.653L98.959 123.114L93.9666 129.403C93.8333 129.573 93.6908 129.697 93.5516 129.777C93.1254 130.022 92.7299 129.854 92.7285 129.305L92.6975 118.413L94.2392 117.526C94.51 117.37 94.7812 117.349 94.982 117.463L98.0875 119.227C98.2941 119.345 98.5651 119.307 98.8358 119.151C99.1066 118.995 99.3767 118.722 99.5823 118.367L102.668 113.041C102.855 112.703 103.126 112.413 103.408 112.25L105.162 111.241L105.162 111.241Z" fill="#DA5FCA" stroke="#29256A" stroke-width="0.5" stroke-linejoin="round"/>
<path d="M98.745 93.5731C103.5 90.8368 107.373 93.0232 107.389 98.4826C107.404 103.942 103.556 110.571 98.8011 113.308C94.0461 116.044 90.185 113.851 90.1695 108.391C90.154 102.932 93.99 96.3096 98.745 93.5733V93.5731Z" fill="url(#paint1_linear_30_1455)" stroke="#29256A" stroke-width="0.5" stroke-linejoin="round"/>
<path d="M112.2 94.8633C112.614 95.0981 112.616 95.8665 112.205 96.5753L109.12 101.888C108.932 102.226 108.815 102.603 108.816 102.913L108.831 107.928C108.833 108.588 108.363 109.399 107.787 109.73L105.162 111.241L103.408 112.25C103.126 112.412 102.855 112.703 102.668 113.041L99.5824 118.367C99.3768 118.722 99.1067 118.995 98.8359 119.151C98.5652 119.307 98.2942 119.345 98.0876 119.227L94.9821 117.463C94.7813 117.349 94.51 117.37 94.2393 117.526L92.6976 118.413L89.8375 120.059C89.2609 120.391 88.7884 120.123 88.7865 119.462L88.7722 114.434C88.7714 114.124 88.6529 113.882 88.4521 113.768L85.3582 112.011C84.945 111.776 84.9428 111.008 85.3534 110.299L88.4273 104.993C88.6268 104.648 88.7435 104.271 88.7425 103.961L88.7282 98.946C88.7262 98.2721 89.1957 97.4618 89.7723 97.1301L94.1505 94.6106C94.433 94.4481 94.6917 94.1778 94.8912 93.8334L97.9765 88.507C98.1818 88.1525 98.4522 87.8788 98.723 87.723C98.9937 87.5672 99.2648 87.5293 99.4713 87.6467L102.577 89.4106C102.778 89.5247 103.049 89.4901 103.32 89.3343L107.721 86.8012C108.298 86.4694 108.77 86.7376 108.772 87.4116L108.787 92.4261C108.788 92.7496 108.906 92.9921 109.095 93.1129L112.201 94.8633H112.2ZM98.8014 113.308C103.556 110.572 107.405 103.942 107.389 98.4827C107.374 93.0232 103.5 90.8371 98.7454 93.5732C93.9903 96.3095 90.1543 102.932 90.1698 108.391C90.1853 113.851 94.0464 116.044 98.8014 113.308" fill="#DA5FCA"/>
<path d="M98.8014 113.308C103.556 110.572 107.405 103.942 107.389 98.4827C107.374 93.0232 103.5 90.8371 98.7454 93.5732C93.9903 96.3095 90.1543 102.932 90.1698 108.391C90.1853 113.851 94.0464 116.044 98.8014 113.308M112.2 94.8633C112.614 95.0981 112.616 95.8665 112.205 96.5753L109.12 101.888C108.932 102.226 108.815 102.603 108.816 102.913L108.831 107.928C108.833 108.588 108.363 109.399 107.787 109.73L105.162 111.241L103.408 112.25C103.126 112.412 102.855 112.703 102.668 113.041L99.5824 118.367C99.3768 118.722 99.1067 118.995 98.8359 119.151C98.5652 119.307 98.2942 119.345 98.0876 119.227L94.9821 117.463C94.7813 117.349 94.51 117.37 94.2393 117.526L92.6976 118.413L89.8375 120.059C89.2609 120.391 88.7884 120.123 88.7865 119.462L88.7722 114.434C88.7714 114.124 88.6529 113.882 88.4521 113.768L85.3582 112.011C84.945 111.776 84.9428 111.008 85.3534 110.299L88.4273 104.993C88.6268 104.648 88.7435 104.271 88.7425 103.961L88.7282 98.946C88.7262 98.2721 89.1957 97.4618 89.7723 97.1301L94.1505 94.6106C94.433 94.4481 94.6917 94.1778 94.8912 93.8334L97.9765 88.507C98.1818 88.1525 98.4522 87.8788 98.723 87.723C98.9937 87.5672 99.2648 87.5293 99.4713 87.6467L102.577 89.4106C102.778 89.5247 103.049 89.4901 103.32 89.3343L107.721 86.8012C108.298 86.4694 108.77 86.7376 108.772 87.4116L108.787 92.4261C108.788 92.7496 108.906 92.9921 109.095 93.1129L112.201 94.8633H112.2Z" stroke="#29256A" stroke-width="0.5" stroke-linejoin="round"/>
<path d="M59.4223 47.1224L59.4638 61.6941C59.4692 63.6352 58.0967 66.0048 56.4016 66.9802L43.6787 74.3015L59.4222 47.1224H59.4223Z" fill="#CCCEFD" stroke="#29256A" stroke-width="0.5" stroke-linejoin="round"/>
<path fill-rule="evenodd" clip-rule="evenodd" d="M85.6659 14.6605L75.7658 28.8571L75.7837 28.8689C74.1374 31.4054 81.0153 38.8643 91.1315 45.5271C101.289 52.2001 110.854 55.5496 112.53 53.0248L112.53 53.0249L122.43 38.8283L85.6659 14.6605Z" fill="url(#paint2_linear_30_1455)"/>
<path d="M75.7658 28.8571L75.5608 28.7141C75.5222 28.7695 75.5076 28.8381 75.5204 28.9044C75.5331 28.9707 75.5721 29.029 75.6285 29.066L75.7658 28.8571ZM85.6659 14.6605L85.8032 14.4516C85.6901 14.3772 85.5383 14.4065 85.4608 14.5175L85.6659 14.6605ZM75.7837 28.8689L75.9934 29.005C76.0683 28.8897 76.036 28.7355 75.9211 28.66L75.7837 28.8689ZM91.1315 45.5271L90.994 45.7358L90.9942 45.736L91.1315 45.5271ZM112.53 53.0248L112.665 52.8145C112.55 52.7406 112.397 52.7727 112.322 52.8866L112.53 53.0248ZM112.53 53.0249L112.395 53.2352C112.508 53.3079 112.658 53.2781 112.735 53.1679L112.53 53.0249ZM122.43 38.8283L122.635 38.9713C122.674 38.9159 122.688 38.8473 122.676 38.781C122.663 38.7147 122.624 38.6564 122.567 38.6194L122.43 38.8283ZM75.9709 29.0001L85.8709 14.8035L85.4608 14.5175L75.5608 28.7141L75.9709 29.0001ZM75.9211 28.66L75.9032 28.6482L75.6285 29.066L75.6464 29.0778L75.9211 28.66ZM75.574 28.7328C75.0848 29.4866 75.2627 30.5423 75.8404 31.7153C76.4269 32.9061 77.4664 34.3048 78.8628 35.8201C81.6584 38.8536 85.924 42.3967 90.994 45.7358L91.269 45.3183C86.2228 41.9947 81.9913 38.477 79.2305 35.4812C77.8488 33.9819 76.8452 32.6238 76.289 31.4944C75.724 30.3474 75.6595 29.5195 75.9934 29.005L75.574 28.7328ZM90.9942 45.736C96.0849 49.0804 101.034 51.5967 104.929 52.9611C106.874 53.6426 108.57 54.0416 109.896 54.1065C111.202 54.1705 112.24 53.913 112.738 53.1631L112.322 52.8866C111.981 53.399 111.196 53.6696 109.92 53.6071C108.663 53.5456 107.019 53.1636 105.094 52.4892C101.248 51.1418 96.3357 48.6468 91.2687 45.3181L90.9942 45.736ZM112.665 52.8146L112.665 52.8145L112.395 53.2351L112.395 53.2352L112.665 52.8146ZM122.225 38.6853L112.325 52.8819L112.735 53.1679L122.635 38.9713L122.225 38.6853ZM85.5285 14.8694L122.293 39.0372L122.567 38.6194L85.8032 14.4516L85.5285 14.8694Z" fill="#29256A"/>
<path d="M122.43 38.8281C124.105 36.3031 117.222 28.8312 107.09 22.158C96.9319 15.4848 87.367 12.1354 85.6912 14.6603C84.0154 17.1853 90.8991 24.6572 101.031 31.3304C111.189 38.0036 120.754 41.3531 122.43 38.8281Z" fill="#29256A" stroke="#29256A" stroke-width="0.5" stroke-linejoin="round"/>
<path d="M65.5561 0L145.813 50.0618L144.885 51.685L107.992 38.957L64.6279 1.59744L65.5561 0Z" fill="#29256A" stroke="#29256A" stroke-width="0.5" stroke-linejoin="round"/>
<path d="M102.449 12.728L145.813 50.0618L108.92 37.3338L65.5559 0L102.449 12.728Z" fill="url(#paint3_linear_30_1455)" stroke="#29256A" stroke-width="0.5" stroke-linecap="round" stroke-linejoin="round"/>
<path d="M105.801 27.1823L116.913 35.3499L122.43 39.4723L125.163 41.5593L126.503 42.6157L127.122 43.1568C127.122 43.1568 127.328 43.3371 127.38 43.3886C127.818 44.4966 128.282 45.3983 128.72 46.4032L130.061 49.3404C130.938 51.2986 131.788 53.2825 132.588 55.2664C133.387 57.2503 134.134 59.26 134.805 61.2697C135.449 63.2794 136.042 65.3406 136.249 67.3245L138.414 67.1441C138.182 64.8253 137.563 62.7125 136.893 60.5998C136.197 58.5128 135.449 56.4774 134.624 54.4419C133.799 52.4322 132.949 50.4225 132.072 48.4386L129.416 42.5899C129.416 42.5899 129.339 42.3065 129.21 42.2034C129.133 42.0746 129.081 41.9458 128.978 41.8685C128.824 41.7139 128.72 41.6109 128.591 41.5078C128.359 41.3017 128.127 41.1213 127.895 40.9152L126.529 39.8331L123.77 37.7203L118.227 33.5721L107.09 25.3788L105.801 27.1308V27.1823Z" fill="#575CC2" stroke="#29256A" stroke-width="0.5" stroke-linejoin="round"/>
<path d="M109.359 27.0793L109.204 29.6558L106.935 28.0068L107.09 25.4303L109.359 27.0793Z" fill="#8C8FD9" stroke="#29256A" stroke-width="0.5" stroke-linejoin="round"/>
<path d="M110.905 28.213L110.751 30.7895L109.204 29.6558L109.359 27.0793L110.905 28.213Z" fill="#575CC2" stroke="#29256A" stroke-width="0.5" stroke-linejoin="round"/>
<path d="M113.2 29.8878L113.019 32.4643L110.75 30.7895L110.905 28.213L113.2 29.8878Z" fill="#8C8FD9" stroke="#29256A" stroke-width="0.5" stroke-linejoin="round"/>
<path d="M114.747 31.0212L114.566 33.5978L113.02 32.4641L113.2 29.8876L114.747 31.0212Z" fill="#575CC2" stroke="#29256A" stroke-width="0.5" stroke-linejoin="round"/>
<path d="M117.015 32.7218L116.835 35.2726L114.566 33.5978L114.747 31.0213L117.015 32.7218Z" fill="#8C8FD9" stroke="#29256A" stroke-width="0.5" stroke-linejoin="round"/>
<path d="M118.563 33.8554L118.382 36.4319L116.835 35.2725L117.016 32.7217L118.563 33.8554Z" fill="#575CC2" stroke="#29256A" stroke-width="0.5" stroke-linejoin="round"/>
<path d="M120.831 35.5302L120.625 38.1067L118.382 36.432L118.562 33.8555L120.831 35.5302Z" fill="#8C8FD9" stroke="#29256A" stroke-width="0.5" stroke-linejoin="round"/>
<path d="M122.352 36.6897L122.146 39.2662L120.625 38.1068L120.831 35.5303L122.352 36.6897Z" fill="#575CC2" stroke="#29256A" stroke-width="0.5" stroke-linejoin="round"/>
<path d="M124.621 38.4158L124.389 40.9666L122.146 39.2661L122.352 36.6896L124.621 38.4158Z" fill="#8C8FD9" stroke="#29256A" stroke-width="0.5" stroke-linejoin="round"/>
<path d="M126.142 39.5754L125.884 42.1519L124.389 40.9667L124.621 38.416L126.142 39.5754Z" fill="#575CC2" stroke="#29256A" stroke-width="0.5" stroke-linejoin="round"/>
<path d="M128.385 41.3789C128.334 41.7138 128.308 42.0745 128.256 42.4095C128.205 42.7444 128.076 43.0536 127.818 43.234C127.741 43.234 127.715 43.3886 127.663 43.4659C127.612 43.5689 127.56 43.6205 127.509 43.6978L127.431 43.5432L127.38 43.4401V43.3886L127.354 43.3628C127.354 43.3628 127.354 43.3113 127.354 43.3886L127.251 43.2855L126.813 42.899L125.859 42.1261L126.116 39.5496C126.864 40.1422 127.612 40.709 128.359 41.3531L128.385 41.3789Z" fill="#8C8FD9" stroke="#29256A" stroke-width="0.5" stroke-linejoin="round"/>
<path d="M129.7 43.337L128.308 45.5013L127.508 43.7235C127.508 43.7235 127.611 43.5946 127.663 43.4916C127.715 43.4143 127.74 43.2597 127.818 43.2597C128.075 43.0793 128.204 42.7702 128.256 42.4352C128.308 42.1003 128.359 41.7653 128.385 41.4046L128.849 41.8168C128.849 41.8168 129.081 41.9972 129.158 42.1776C129.21 42.2549 129.21 42.3579 129.313 42.4094L129.416 42.6671L129.725 43.3628L129.7 43.337Z" fill="#575CC2" stroke="#29256A" stroke-width="0.5" stroke-linejoin="round"/>
<path d="M130.886 45.8878L129.468 48.0521L128.308 45.5014L129.7 43.3371L130.886 45.8878Z" fill="#8C8FD9" stroke="#29256A" stroke-width="0.5" stroke-linejoin="round"/>
<path d="M131.659 47.6397L130.241 49.804L129.468 48.052L130.886 45.8877L131.659 47.6397Z" fill="#575CC2" stroke="#29256A" stroke-width="0.5" stroke-linejoin="round"/>
<path d="M132.819 50.2165L131.376 52.355L130.241 49.8042L131.659 47.64L132.819 50.2165Z" fill="#8C8FD9" stroke="#29256A" stroke-width="0.5" stroke-linejoin="round"/>
<path d="M133.593 51.9942L132.123 54.1327L131.376 52.3549L132.819 50.2164L133.593 51.9942Z" fill="#575CC2" stroke="#29256A" stroke-width="0.5" stroke-linejoin="round"/>
<path d="M134.676 54.6223L133.155 56.7093C132.82 55.8333 132.485 54.983 132.098 54.107L133.567 51.9943C133.928 52.8703 134.315 53.7463 134.65 54.6223H134.676Z" fill="#8C8FD9" stroke="#29256A" stroke-width="0.5" stroke-linejoin="round"/>
<path d="M135.372 56.4258L133.825 58.487L133.155 56.7092L134.676 54.6223L135.372 56.4258Z" fill="#575CC2" stroke="#29256A" stroke-width="0.5" stroke-linejoin="round"/>
<path d="M136.352 59.1054C135.81 59.7753 135.295 60.4451 134.727 61.115C134.444 60.239 134.134 59.363 133.799 58.487L135.346 56.4258C135.681 57.3276 136.017 58.2036 136.326 59.1054H136.352Z" fill="#8C8FD9" stroke="#29256A" stroke-width="0.5" stroke-linejoin="round"/>
<path d="M136.97 60.9605C136.403 61.6304 135.887 62.2745 135.294 62.9187C135.14 62.3261 134.934 61.7335 134.727 61.1151C135.294 60.4452 135.81 59.7753 136.352 59.1054C136.558 59.7238 136.79 60.3164 136.97 60.9605Z" fill="#575CC2" stroke="#29256A" stroke-width="0.5" stroke-linejoin="round"/>
<path d="M137.769 63.7172C137.176 64.3613 136.558 64.9797 135.939 65.5465C135.836 65.1085 135.758 64.6705 135.655 64.2325L135.294 62.9185C135.887 62.2744 136.403 61.6302 136.97 60.9603C137.28 61.8621 137.512 62.8154 137.769 63.743V63.7172Z" fill="#8C8FD9" stroke="#29256A" stroke-width="0.5" stroke-linejoin="round"/>
<path d="M138.208 65.6756C137.563 66.2939 136.893 66.835 136.248 67.3245C136.145 66.7319 136.12 66.1393 135.965 65.5467C136.584 64.9799 137.202 64.3615 137.795 63.7174C137.95 64.3615 138.079 65.0057 138.208 65.6756Z" fill="#575CC2" stroke="#29256A" stroke-width="0.5" stroke-linejoin="round"/>
<path d="M135.991 61.7849C135.501 61.9394 135.295 62.094 134.985 62.3002C134.727 62.5063 134.47 62.7124 134.238 62.9701C133.799 63.4596 133.464 64.0007 133.258 64.5675C132.794 65.7012 132.717 66.8606 132.717 67.9685C132.768 69.1022 132.897 70.0297 133 71.0603L133.31 74.0748L134.521 86.1072L136.687 85.8753L135.475 73.843L135.166 70.8284C135.063 69.8494 134.934 68.7672 134.908 67.8912C134.908 66.9894 134.985 66.0876 135.269 65.3662C135.398 64.9797 135.604 64.6706 135.862 64.4129C135.991 64.2841 136.12 64.1553 136.249 64.0522C136.352 63.9749 136.584 63.8718 136.584 63.8718L135.991 61.7849Z" fill="#575CC2" stroke="#29256A" stroke-width="0.5" stroke-linejoin="round"/>
<path d="M135.965 64.3099C135.346 63.8977 134.65 63.5628 133.928 63.3566C134.237 62.9186 134.65 62.5322 135.114 62.1972C135.423 62.4291 135.733 62.6867 135.965 62.9444C136.197 63.2278 136.48 63.5112 136.558 63.8719C136.558 63.8719 136.377 63.9492 136.3 64.0265C136.197 64.1038 136.068 64.1811 135.965 64.2842V64.3099Z" fill="#8C8FD9" stroke="#29256A" stroke-width="0.5" stroke-linejoin="round"/>
<path d="M135.578 64.7736C134.882 64.5159 134.135 64.3356 133.387 64.2841C133.542 63.9749 133.722 63.6399 133.928 63.3565C134.676 63.5626 135.372 63.8976 135.965 64.3098C135.81 64.4386 135.682 64.619 135.578 64.7994V64.7736Z" fill="#575CC2" stroke="#29256A" stroke-width="0.5" stroke-linejoin="round"/>
<path d="M135.166 65.6755C134.418 65.624 133.645 65.624 132.897 65.727C133 65.2375 133.155 64.748 133.361 64.2842C134.134 64.3615 134.882 64.5161 135.552 64.7737C135.398 65.0314 135.243 65.3405 135.14 65.6755H135.166Z" fill="#8C8FD9" stroke="#29256A" stroke-width="0.5" stroke-linejoin="round"/>
<path d="M135.011 66.3712C134.263 66.4227 133.541 66.5516 132.768 66.7062C132.794 66.3712 132.845 66.062 132.923 65.7271C133.67 65.6498 134.444 65.624 135.191 65.6756C135.114 65.8817 135.062 66.1393 135.011 66.3712Z" fill="#575CC2" stroke="#29256A" stroke-width="0.5" stroke-linejoin="round"/>
<path d="M134.908 67.4791C134.186 67.6595 133.438 67.8656 132.742 68.1232C132.742 67.6595 132.742 67.1957 132.768 66.7062C133.516 66.5258 134.238 66.4227 135.011 66.3712C134.959 66.7319 134.908 67.0926 134.908 67.4791Z" fill="#8C8FD9" stroke="#29256A" stroke-width="0.5" stroke-linejoin="round"/>
<path d="M134.934 68.252C134.212 68.4838 133.516 68.7673 132.82 69.0507C132.794 68.7673 132.768 68.4323 132.742 68.1231C133.438 67.8655 134.186 67.6336 134.908 67.479C134.908 67.7367 134.908 67.9943 134.908 68.252H134.934Z" fill="#575CC2" stroke="#29256A" stroke-width="0.5" stroke-linejoin="round"/>
<path d="M135.037 69.4887L132.948 70.3389L132.82 69.0764C133.516 68.793 134.238 68.5096 134.934 68.2777C134.934 68.6384 134.985 69.0764 135.037 69.5144V69.4887Z" fill="#8C8FD9" stroke="#29256A" stroke-width="0.5" stroke-linejoin="round"/>
<path d="M135.114 70.3389L133.026 71.1891L132.923 70.3389L135.037 69.4886L135.114 70.3389Z" fill="#575CC2" stroke="#29256A" stroke-width="0.5" stroke-linejoin="round"/>
<path d="M135.243 71.6272L133.155 72.4517L133.026 71.1892L135.114 70.339L135.243 71.6272Z" fill="#8C8FD9" stroke="#29256A" stroke-width="0.5" stroke-linejoin="round"/>
<path d="M135.346 72.4774L133.232 73.3277L133.155 72.4517L135.243 71.6272L135.346 72.4774Z" fill="#575CC2" stroke="#29256A" stroke-width="0.5" stroke-linejoin="round"/>
<path d="M135.475 73.74L133.361 74.5903L133.232 73.3278L135.346 72.4775L135.475 73.74Z" fill="#8C8FD9" stroke="#29256A" stroke-width="0.5" stroke-linejoin="round"/>
<path d="M135.552 74.616L133.464 75.4405L133.361 74.5902L135.475 73.74L135.552 74.616Z" fill="#575CC2" stroke="#29256A" stroke-width="0.5" stroke-linejoin="round"/>
<path d="M135.681 75.8785L133.593 76.7288L133.464 75.4405L135.552 74.616L135.681 75.8785Z" fill="#8C8FD9" stroke="#29256A" stroke-width="0.5" stroke-linejoin="round"/>
<path d="M135.759 76.7288L133.67 77.579L133.593 76.7288L135.681 75.8785L135.759 76.7288Z" fill="#575CC2" stroke="#29256A" stroke-width="0.5" stroke-linejoin="round"/>
<path d="M135.888 78.017L133.799 78.8414L133.67 77.5789L135.759 76.7287L135.888 78.017Z" fill="#8C8FD9" stroke="#29256A" stroke-width="0.5" stroke-linejoin="round"/>
<path d="M135.991 78.8672L133.877 79.7175L133.799 78.8415L135.888 78.017L135.991 78.8672Z" fill="#575CC2" stroke="#29256A" stroke-width="0.5" stroke-linejoin="round"/>
<path d="M136.12 80.1297L134.006 80.9799L133.877 79.7174L135.991 78.8672L136.12 80.1297Z" fill="#8C8FD9" stroke="#29256A" stroke-width="0.5" stroke-linejoin="round"/>
<path d="M136.197 81.0057L134.109 81.856L134.006 80.98L136.12 80.1297L136.197 81.0057Z" fill="#575CC2" stroke="#29256A" stroke-width="0.5" stroke-linejoin="round"/>
<path d="M136.326 82.2682L134.238 83.1184L134.109 81.8559L136.197 81.0057L136.326 82.2682Z" fill="#8C8FD9" stroke="#29256A" stroke-width="0.5" stroke-linejoin="round"/>
<path d="M136.403 83.1184L134.315 83.9687L134.238 83.1184L136.326 82.2682L136.403 83.1184Z" fill="#575CC2" stroke="#29256A" stroke-width="0.5" stroke-linejoin="round"/>
<path d="M136.532 84.4068L134.444 85.257L134.315 83.9688L136.403 83.1185L136.532 84.4068Z" fill="#8C8FD9" stroke="#29256A" stroke-width="0.5" stroke-linejoin="round"/>
<path d="M136.635 85.2569L134.521 86.1072L134.444 85.2569L136.532 84.4067L136.635 85.2569Z" fill="#575CC2" stroke="#29256A" stroke-width="0.5" stroke-linejoin="round"/>
<path d="M136.171 63.2019C136.171 63.2019 136.223 63.2019 136.274 63.2277C136.326 63.2277 136.403 63.2792 136.455 63.305C136.584 63.3823 136.713 63.4338 136.816 63.5626C137.048 63.7688 137.254 64.0522 137.409 64.4129C137.744 65.1343 137.821 65.933 137.924 66.9894L138.517 72.9412L139.729 84.8447L141.895 84.6128L140.683 72.7093L140.09 66.7575C139.987 65.83 139.91 64.619 139.394 63.5111C139.136 62.9443 138.775 62.4032 138.26 61.9394C138.002 61.7076 137.718 61.5272 137.383 61.3468C137.228 61.2695 137.048 61.1922 136.867 61.1407C136.661 61.0892 136.558 61.0377 136.223 61.0377L136.146 63.2019H136.171Z" fill="#575CC2" stroke="#29256A" stroke-width="0.5" stroke-linejoin="round"/>
<path d="M138.002 61.7333C137.795 62.4805 137.434 63.1504 136.996 63.743C136.816 63.5369 136.609 63.3823 136.403 63.2792C136.481 62.9185 136.532 62.5578 136.532 62.1713C136.506 61.7848 136.532 61.4241 136.249 61.0377C136.532 61.0377 136.635 61.0892 136.816 61.1407C136.97 61.1922 137.125 61.2438 137.254 61.2953C137.538 61.3984 137.795 61.5787 138.027 61.7333H138.002Z" fill="#8C8FD9" stroke="#29256A" stroke-width="0.5" stroke-linejoin="round"/>
<path d="M138.827 62.5579C138.414 63.202 137.899 63.7689 137.331 64.2326C137.228 64.0523 137.125 63.8719 136.996 63.7431C137.46 63.1505 137.821 62.4806 138.002 61.7334C138.311 61.9653 138.595 62.2487 138.827 62.5579Z" fill="#575CC2" stroke="#29256A" stroke-width="0.5" stroke-linejoin="round"/>
<path d="M139.574 63.9493C138.956 64.4388 138.337 64.8253 137.666 65.186C137.589 64.8511 137.46 64.5161 137.331 64.2585C137.898 63.7947 138.414 63.2279 138.827 62.5837C139.162 63.0217 139.394 63.5113 139.574 63.9751V63.9493Z" fill="#8C8FD9" stroke="#29256A" stroke-width="0.5" stroke-linejoin="round"/>
<path d="M139.832 64.9025C139.188 65.289 138.492 65.5981 137.796 65.8816C137.77 65.6239 137.718 65.392 137.667 65.1601C138.337 64.8252 138.956 64.4129 139.575 63.9234C139.678 64.2583 139.781 64.5675 139.832 64.9025Z" fill="#575CC2" stroke="#29256A" stroke-width="0.5" stroke-linejoin="round"/>
<path d="M140.038 66.268L137.95 67.1183C137.899 66.706 137.873 66.2422 137.821 65.9073C138.517 65.6239 139.213 65.3147 139.858 64.9282C139.961 65.392 140.013 65.9073 140.064 66.2938L140.038 66.268Z" fill="#8C8FD9" stroke="#29256A" stroke-width="0.5" stroke-linejoin="round"/>
<path d="M140.116 67.1183L138.027 67.9685L137.924 67.1183L140.038 66.268L140.116 67.1183Z" fill="#575CC2" stroke="#29256A" stroke-width="0.5" stroke-linejoin="round"/>
<path d="M140.245 68.3809L138.156 69.2054L138.027 67.9687L140.116 67.1184L140.245 68.3809Z" fill="#8C8FD9" stroke="#29256A" stroke-width="0.5" stroke-linejoin="round"/>
<path d="M140.322 69.2311L138.234 70.0814L138.156 69.2053L140.245 68.3809L140.322 69.2311Z" fill="#575CC2" stroke="#29256A" stroke-width="0.5" stroke-linejoin="round"/>
<path d="M140.451 70.4935L138.363 71.318L138.234 70.0813L140.322 69.231L140.451 70.4935Z" fill="#8C8FD9" stroke="#29256A" stroke-width="0.5" stroke-linejoin="round"/>
<path d="M140.554 71.3438L138.44 72.1683L138.362 71.318L140.451 70.4935L140.554 71.3438Z" fill="#575CC2" stroke="#29256A" stroke-width="0.5" stroke-linejoin="round"/>
<path d="M140.683 72.5806L138.569 73.4309L138.44 72.1684L140.554 71.3439L140.683 72.5806Z" fill="#8C8FD9" stroke="#29256A" stroke-width="0.5" stroke-linejoin="round"/>
<path d="M140.76 73.4566L138.646 74.2811L138.569 73.4308L140.683 72.5806L140.76 73.4566Z" fill="#575CC2" stroke="#29256A" stroke-width="0.5" stroke-linejoin="round"/>
<path d="M140.889 74.6932L138.775 75.5435L138.646 74.281L140.76 73.4565L140.889 74.6932Z" fill="#8C8FD9" stroke="#29256A" stroke-width="0.5" stroke-linejoin="round"/>
<path d="M140.967 75.5436L138.878 76.3939L138.775 75.5436L140.889 74.6934L140.967 75.5436Z" fill="#575CC2" stroke="#29256A" stroke-width="0.5" stroke-linejoin="round"/>
<path d="M141.095 76.806L139.007 77.6305L138.878 76.3938L140.966 75.5435L141.095 76.806Z" fill="#8C8FD9" stroke="#29256A" stroke-width="0.5" stroke-linejoin="round"/>
<path d="M141.173 77.6563L139.084 78.5065L139.007 77.6305L141.095 76.806L141.173 77.6563Z" fill="#575CC2" stroke="#29256A" stroke-width="0.5" stroke-linejoin="round"/>
<path d="M141.302 78.9189L139.213 79.7434L139.084 78.5066L141.173 77.6564L141.302 78.9189Z" fill="#8C8FD9" stroke="#29256A" stroke-width="0.5" stroke-linejoin="round"/>
<path d="M141.405 79.7691L139.291 80.5936L139.213 79.7433L141.302 78.9188L141.405 79.7691Z" fill="#575CC2" stroke="#29256A" stroke-width="0.5" stroke-linejoin="round"/>
<path d="M141.534 81.0058L139.42 81.856L139.291 80.5935L141.405 79.769L141.534 81.0058Z" fill="#8C8FD9" stroke="#29256A" stroke-width="0.5" stroke-linejoin="round"/>
<path d="M141.611 81.8559L139.523 82.7062L139.419 81.8559L141.534 81.0057L141.611 81.8559Z" fill="#575CC2" stroke="#29256A" stroke-width="0.5" stroke-linejoin="round"/>
<path d="M141.74 83.1185L139.652 83.9688L139.523 82.7063L141.611 81.856L141.74 83.1185Z" fill="#8C8FD9" stroke="#29256A" stroke-width="0.5" stroke-linejoin="round"/>
<path d="M141.817 83.9688L139.729 84.819L139.651 83.9688L141.74 83.1185L141.817 83.9688Z" fill="#575CC2" stroke="#29256A" stroke-width="0.5" stroke-linejoin="round"/>
<path d="M135.91 64.6117L133.756 64.8301L136.081 87.7466L138.236 87.5283L135.91 64.6117Z" fill="#575CC2" stroke="#29256A" stroke-width="0.5" stroke-linejoin="round"/>
<path d="M135.965 86.5452L138.053 85.7465L138.182 86.9317L136.068 87.7562L135.965 86.5452Z" fill="#8C8FD9" stroke="#29256A" stroke-width="0.5" stroke-linejoin="round"/>
<path d="M135.862 85.7207L137.976 84.922L138.053 85.7465L135.965 86.5452L135.862 85.7207Z" fill="#575CC2" stroke="#29256A" stroke-width="0.5" stroke-linejoin="round"/>
<path d="M135.759 84.5099L137.847 83.7112L137.976 84.9221L135.862 85.7209L135.759 84.5099Z" fill="#8C8FD9" stroke="#29256A" stroke-width="0.5" stroke-linejoin="round"/>
<path d="M135.656 83.7112L137.77 82.8867L137.847 83.7112L135.759 84.5099L135.656 83.7112Z" fill="#575CC2" stroke="#29256A" stroke-width="0.5" stroke-linejoin="round"/>
<path d="M135.552 82.5001L137.641 81.6757L137.77 82.8866L135.656 83.7111L135.552 82.5001Z" fill="#8C8FD9" stroke="#29256A" stroke-width="0.5" stroke-linejoin="round"/>
<path d="M135.449 81.6757L137.563 80.8512L137.64 81.6757L135.552 82.5002L135.449 81.6757Z" fill="#575CC2" stroke="#29256A" stroke-width="0.5" stroke-linejoin="round"/>
<path d="M135.346 80.4646L137.434 79.6401L137.563 80.8511L135.449 81.6756L135.346 80.4646Z" fill="#8C8FD9" stroke="#29256A" stroke-width="0.5" stroke-linejoin="round"/>
<path d="M135.243 79.6403L137.357 78.8416L137.435 79.6403L135.346 80.4648L135.243 79.6403Z" fill="#575CC2" stroke="#29256A" stroke-width="0.5" stroke-linejoin="round"/>
<path d="M135.14 78.4293L137.228 77.6306L137.357 78.8415L135.243 79.6402L135.14 78.4293Z" fill="#8C8FD9" stroke="#29256A" stroke-width="0.5" stroke-linejoin="round"/>
<path d="M135.037 77.6048L137.151 76.806L137.228 77.6305L135.14 78.4292L135.037 77.6048Z" fill="#575CC2" stroke="#29256A" stroke-width="0.5" stroke-linejoin="round"/>
<path d="M134.934 76.4195L137.022 75.595L137.151 76.806L135.037 77.6047L134.934 76.4195Z" fill="#8C8FD9" stroke="#29256A" stroke-width="0.5" stroke-linejoin="round"/>
<path d="M134.856 75.595L136.945 74.7705L137.022 75.595L134.934 76.4195L134.856 75.595Z" fill="#575CC2" stroke="#29256A" stroke-width="0.5" stroke-linejoin="round"/>
<path d="M134.727 74.384L136.816 73.5595L136.944 74.7705L134.856 75.595L134.727 74.384Z" fill="#8C8FD9" stroke="#29256A" stroke-width="0.5" stroke-linejoin="round"/>
<path d="M134.65 73.5597L136.738 72.7352L136.816 73.5597L134.727 74.3841L134.65 73.5597Z" fill="#575CC2" stroke="#29256A" stroke-width="0.5" stroke-linejoin="round"/>
<path d="M134.521 72.3487L136.609 71.5242L136.738 72.7351L134.65 73.5596L134.521 72.3487Z" fill="#8C8FD9" stroke="#29256A" stroke-width="0.5" stroke-linejoin="round"/>
<path d="M134.444 71.5241L136.532 70.7253L136.609 71.5241L134.521 72.3485L134.444 71.5241Z" fill="#575CC2" stroke="#29256A" stroke-width="0.5" stroke-linejoin="round"/>
<path d="M134.315 70.3133L136.403 69.5145L136.532 70.7255L134.444 71.5242L134.315 70.3133Z" fill="#8C8FD9" stroke="#29256A" stroke-width="0.5" stroke-linejoin="round"/>
<path d="M134.238 69.4888L136.326 68.6901L136.403 69.5145L134.315 70.3133L134.238 69.4888Z" fill="#575CC2" stroke="#29256A" stroke-width="0.5" stroke-linejoin="round"/>
<path d="M134.109 68.3035L136.197 67.479L136.326 68.69L134.238 69.4887L134.109 68.3035Z" fill="#8C8FD9" stroke="#29256A" stroke-width="0.5" stroke-linejoin="round"/>
<path d="M134.031 67.479L136.12 66.6545L136.197 67.479L134.109 68.3035L134.031 67.479Z" fill="#575CC2" stroke="#29256A" stroke-width="0.5" stroke-linejoin="round"/>
<path d="M133.902 66.268L135.991 65.4435L136.12 66.6545L134.031 67.479L133.902 66.268Z" fill="#8C8FD9" stroke="#29256A" stroke-width="0.5" stroke-linejoin="round"/>
<path d="M133.825 65.4435L135.913 64.619L135.991 65.4435L133.902 66.268L133.825 65.4435Z" fill="#575CC2" stroke="#29256A" stroke-width="0.5" stroke-linejoin="round"/>
<path d="M138.819 64.194L136.664 64.4123L138.935 86.7905L141.089 86.5722L138.819 64.194Z" fill="#575CC2" stroke="#29256A" stroke-width="0.5" stroke-linejoin="round"/>
<path d="M138.827 85.6177L140.941 84.819L141.044 86.0042L138.956 86.8029L138.827 85.6177Z" fill="#8C8FD9" stroke="#29256A" stroke-width="0.5" stroke-linejoin="round"/>
<path d="M138.75 84.8191L140.838 84.0204L140.941 84.8191L138.827 85.6178L138.75 84.8191Z" fill="#575CC2" stroke="#29256A" stroke-width="0.5" stroke-linejoin="round"/>
<path d="M138.62 83.6337L140.734 82.835L140.838 84.0202L138.749 84.8189L138.62 83.6337Z" fill="#8C8FD9" stroke="#29256A" stroke-width="0.5" stroke-linejoin="round"/>
<path d="M138.543 82.835L140.657 82.0363L140.734 82.835L138.62 83.6338L138.543 82.835Z" fill="#575CC2" stroke="#29256A" stroke-width="0.5" stroke-linejoin="round"/>
<path d="M138.414 81.6499L140.528 80.8512L140.657 82.0364L138.543 82.8351L138.414 81.6499Z" fill="#8C8FD9" stroke="#29256A" stroke-width="0.5" stroke-linejoin="round"/>
<path d="M138.337 80.8512L140.451 80.0525L140.528 80.8512L138.414 81.6499L138.337 80.8512Z" fill="#575CC2" stroke="#29256A" stroke-width="0.5" stroke-linejoin="round"/>
<path d="M138.234 79.6917L140.322 78.8672L140.451 80.0524L138.337 80.8511L138.234 79.6917Z" fill="#8C8FD9" stroke="#29256A" stroke-width="0.5" stroke-linejoin="round"/>
<path d="M138.131 78.8672L140.245 78.0685L140.322 78.8672L138.234 79.6917L138.131 78.8672Z" fill="#575CC2" stroke="#29256A" stroke-width="0.5" stroke-linejoin="round"/>
<path d="M138.027 77.7078L140.116 76.8833L140.245 78.0685L138.13 78.8672L138.027 77.7078Z" fill="#8C8FD9" stroke="#29256A" stroke-width="0.5" stroke-linejoin="round"/>
<path d="M137.95 76.8833L140.038 76.0845L140.116 76.8833L138.027 77.7077L137.95 76.8833Z" fill="#575CC2" stroke="#29256A" stroke-width="0.5" stroke-linejoin="round"/>
<path d="M137.821 75.7239L139.935 74.9252L140.038 76.0846L137.95 76.8833L137.821 75.7239Z" fill="#8C8FD9" stroke="#29256A" stroke-width="0.5" stroke-linejoin="round"/>
<path d="M137.744 74.9252L139.832 74.1007L139.935 74.9252L137.821 75.7239L137.744 74.9252Z" fill="#575CC2" stroke="#29256A" stroke-width="0.5" stroke-linejoin="round"/>
<path d="M137.615 73.7399L139.729 72.9412L139.832 74.1006L137.744 74.9251L137.615 73.7399Z" fill="#8C8FD9" stroke="#29256A" stroke-width="0.5" stroke-linejoin="round"/>
<path d="M137.538 72.9411L139.652 72.1166L139.729 72.9411L137.615 73.7398L137.538 72.9411Z" fill="#575CC2" stroke="#29256A" stroke-width="0.5" stroke-linejoin="round"/>
<path d="M137.409 71.7561L139.523 70.9573L139.652 72.1168L137.538 72.9413L137.409 71.7561Z" fill="#8C8FD9" stroke="#29256A" stroke-width="0.5" stroke-linejoin="round"/>
<path d="M137.331 70.9572L139.445 70.1585L139.523 70.9572L137.409 71.756L137.331 70.9572Z" fill="#575CC2" stroke="#29256A" stroke-width="0.5" stroke-linejoin="round"/>
<path d="M137.228 69.7721L139.317 68.9734L139.445 70.1586L137.331 70.9573L137.228 69.7721Z" fill="#8C8FD9" stroke="#29256A" stroke-width="0.5" stroke-linejoin="round"/>
<path d="M137.125 68.9735L139.239 68.1747L139.316 68.9735L137.228 69.7722L137.125 68.9735Z" fill="#575CC2" stroke="#29256A" stroke-width="0.5" stroke-linejoin="round"/>
<path d="M137.022 67.7883L139.11 66.9896L139.239 68.1748L137.125 68.9735L137.022 67.7883Z" fill="#8C8FD9" stroke="#29256A" stroke-width="0.5" stroke-linejoin="round"/>
<path d="M136.945 66.9894L139.033 66.1907L139.11 66.9894L137.022 67.7881L136.945 66.9894Z" fill="#575CC2" stroke="#29256A" stroke-width="0.5" stroke-linejoin="round"/>
<path d="M136.815 65.8043L138.929 65.0056L139.033 66.1908L136.944 66.9895L136.815 65.8043Z" fill="#8C8FD9" stroke="#29256A" stroke-width="0.5" stroke-linejoin="round"/>
<path d="M136.738 65.0056L138.827 64.2068L138.93 65.0056L136.816 65.8043L136.738 65.0056Z" fill="#575CC2" stroke="#29256A" stroke-width="0.5" stroke-linejoin="round"/>
<path d="M137.412 63.221L135.257 63.4393L137.783 88.3297L139.937 88.1114L137.412 63.221Z" fill="#575CC2" stroke="#29256A" stroke-width="0.5" stroke-linejoin="round"/>
<path d="M137.538 64.5675L135.449 65.4178L135.321 64.1037L137.409 63.2535L137.538 64.5675Z" fill="#8C8FD9" stroke="#29256A" stroke-width="0.5" stroke-linejoin="round"/>
<path d="M137.64 65.4435L135.526 66.3195L135.449 65.4178L137.537 64.5675L137.64 65.4435Z" fill="#575CC2" stroke="#29256A" stroke-width="0.5" stroke-linejoin="round"/>
<path d="M137.77 66.7576L135.682 67.6336L135.527 66.3196L137.641 65.4435L137.77 66.7576Z" fill="#8C8FD9" stroke="#29256A" stroke-width="0.5" stroke-linejoin="round"/>
<path d="M137.873 67.6593L135.759 68.5095L135.681 67.6335L137.77 66.7575L137.873 67.6593Z" fill="#575CC2" stroke="#29256A" stroke-width="0.5" stroke-linejoin="round"/>
<path d="M138.002 68.9734L135.887 69.8236L135.759 68.5096L137.873 67.6594L138.002 68.9734Z" fill="#8C8FD9" stroke="#29256A" stroke-width="0.5" stroke-linejoin="round"/>
<path d="M138.079 69.8494L135.991 70.7254L135.887 69.8236L138.002 68.9734L138.079 69.8494Z" fill="#575CC2" stroke="#29256A" stroke-width="0.5" stroke-linejoin="round"/>
<path d="M138.208 71.1634L136.12 72.0394L135.991 70.7254L138.079 69.8494L138.208 71.1634Z" fill="#8C8FD9" stroke="#29256A" stroke-width="0.5" stroke-linejoin="round"/>
<path d="M138.311 72.0654L136.197 72.9156L136.119 72.0396L138.208 71.1636L138.311 72.0654Z" fill="#575CC2" stroke="#29256A" stroke-width="0.5" stroke-linejoin="round"/>
<path d="M138.44 73.3792L136.351 74.2295L136.197 72.9154L138.311 72.0652L138.44 73.3792Z" fill="#8C8FD9" stroke="#29256A" stroke-width="0.5" stroke-linejoin="round"/>
<path d="M138.543 74.2552L136.429 75.1312L136.352 74.2295L138.44 73.3792L138.543 74.2552Z" fill="#575CC2" stroke="#29256A" stroke-width="0.5" stroke-linejoin="round"/>
<path d="M138.672 75.5692L136.558 76.4452L136.429 75.1312L138.543 74.2552L138.672 75.5692Z" fill="#8C8FD9" stroke="#29256A" stroke-width="0.5" stroke-linejoin="round"/>
<path d="M138.749 76.4712L136.661 77.3214L136.558 76.4454L138.672 75.5694L138.749 76.4712Z" fill="#575CC2" stroke="#29256A" stroke-width="0.5" stroke-linejoin="round"/>
<path d="M138.878 77.785L136.79 78.6353L136.661 77.3213L138.749 76.471L138.878 77.785Z" fill="#8C8FD9" stroke="#29256A" stroke-width="0.5" stroke-linejoin="round"/>
<path d="M138.981 78.6612L136.867 79.5373L136.79 78.6355L138.878 77.7852L138.981 78.6612Z" fill="#575CC2" stroke="#29256A" stroke-width="0.5" stroke-linejoin="round"/>
<path d="M139.11 79.9752L137.022 80.8512L136.867 79.5372L138.981 78.6612L139.11 79.9752Z" fill="#8C8FD9" stroke="#29256A" stroke-width="0.5" stroke-linejoin="round"/>
<path d="M139.213 80.877L137.099 81.7272L137.022 80.8512L139.11 79.9752L139.213 80.877Z" fill="#575CC2" stroke="#29256A" stroke-width="0.5" stroke-linejoin="round"/>
<path d="M139.342 82.1909L137.228 83.0411L137.099 81.7271L139.213 80.8768L139.342 82.1909Z" fill="#8C8FD9" stroke="#29256A" stroke-width="0.5" stroke-linejoin="round"/>
<path d="M139.42 83.0671L137.331 83.9431L137.228 83.0413L139.342 82.191L139.42 83.0671Z" fill="#575CC2" stroke="#29256A" stroke-width="0.5" stroke-linejoin="round"/>
<path d="M139.548 84.381L137.46 85.2571L137.331 83.943L139.42 83.067L139.548 84.381Z" fill="#8C8FD9" stroke="#29256A" stroke-width="0.5" stroke-linejoin="round"/>
<path d="M139.652 85.2828L137.538 86.133L137.46 85.257L139.548 84.381L139.652 85.2828Z" fill="#575CC2" stroke="#29256A" stroke-width="0.5" stroke-linejoin="round"/>
<path d="M139.781 86.5969L137.692 87.4472L137.538 86.1332L139.652 85.2829L139.781 86.5969Z" fill="#8C8FD9" stroke="#29256A" stroke-width="0.5" stroke-linejoin="round"/>
<path d="M139.884 87.4728L137.77 88.3488L137.692 87.447L139.781 86.5968L139.884 87.4728Z" fill="#575CC2" stroke="#29256A" stroke-width="0.5" stroke-linejoin="round"/>
</g>
<defs>
<linearGradient id="paint0_linear_30_1455" x1="57.139" y1="48.9466" x2="109.142" y2="56.959" gradientUnits="userSpaceOnUse">
<stop stop-color="#F8EDFF"/>
<stop offset="0.40625" stop-color="#EBEFFF"/>
<stop offset="1" stop-color="#E9FBFF"/>
</linearGradient>
<linearGradient id="paint1_linear_30_1455" x1="98.7791" y1="92.3942" x2="98.7791" y2="114.485" gradientUnits="userSpaceOnUse">
<stop stop-color="white"/>
<stop offset="1" stop-color="#FFAFF5"/>
</linearGradient>
<linearGradient id="paint2_linear_30_1455" x1="115.547" y1="48.5581" x2="85.92" y2="16.3001" gradientUnits="userSpaceOnUse">
<stop stop-color="#453ACE"/>
<stop offset="1" stop-color="#0F469A"/>
</linearGradient>
<linearGradient id="paint3_linear_30_1455" x1="142.186" y1="46.5349" x2="69.2344" y2="-59.8645" gradientUnits="userSpaceOnUse">
<stop stop-color="#5971FF"/>
<stop offset="1" stop-color="#15ABAB"/>
</linearGradient>
<clipPath id="clip0_30_1455">
<rect width="150" height="150" fill="white"/>
</clipPath>
</defs>
</svg>
