<svg width="150" height="150" viewBox="0 0 150 150" fill="none" xmlns="http://www.w3.org/2000/svg">
<path d="M5.58987 100.816L56.1399 130.097C56.93 130.557 58.2129 130.557 59.0057 130.097L85.8609 114.289C86.2601 114.058 86.4611 113.755 86.4583 113.452L86.4749 123.011C86.4749 123.314 86.2766 123.616 85.8747 123.848L59.0222 139.655C58.2266 140.115 56.9438 140.115 56.1536 139.655L5.60639 110.372C5.21546 110.143 5.01725 109.846 5.01725 109.549L5.00073 99.9905C5.00073 100.288 5.19895 100.588 5.58987 100.816Z" fill="#393DA8" stroke="#220E6E" stroke-width="0.5"/>
<path d="M5.5981 99.1535C4.80524 99.6132 4.79974 100.357 5.58709 100.816L56.1371 130.097C56.9272 130.557 58.2101 130.557 59.0029 130.097L85.8582 114.289C86.651 113.83 86.6565 113.086 85.8664 112.629L35.3164 83.3487C34.5263 82.8917 33.2434 82.8917 32.4506 83.3487L5.5981 99.1535Z" fill="#C9A5FF" stroke="#220E6E" stroke-width="0.5"/>
<path d="M20.4007 82.4677L70.9507 111.748C71.7408 112.208 73.0237 112.208 73.8166 111.748L100.672 95.9407C101.071 95.7095 101.272 95.4066 101.269 95.1038L101.286 104.662C101.286 104.965 101.088 105.268 100.686 105.499L73.8331 121.307C73.0375 121.766 71.7546 121.766 70.9645 121.307L20.4145 92.026C20.0208 91.7975 19.8254 91.5002 19.8254 91.2028L19.8088 81.6445C19.8088 81.9419 20.0071 82.2419 20.398 82.4704L20.4007 82.4677Z" fill="#393DA8" stroke="#220E6E" stroke-width="0.5"/>
<path d="M20.4093 80.805C19.6164 81.2647 19.6109 82.008 20.401 82.4677L70.951 111.748C71.7411 112.208 73.024 112.208 73.8169 111.748L100.672 95.9408C101.465 95.481 101.47 94.7377 100.68 94.2807L50.1303 65.0002C49.3402 64.5432 48.0573 64.5432 47.2645 65.0002L20.4093 80.8077V80.805Z" fill="#A4BDFF" stroke="#220E6E" stroke-width="0.5"/>
<path d="M35.4953 64.6959L86.0453 93.9765C86.8354 94.4363 88.1183 94.4363 88.9111 93.9765L115.766 78.169C116.166 77.9377 116.366 77.6349 116.364 77.3321L116.38 86.8904C116.38 87.1932 116.182 87.496 115.78 87.7273L88.9249 103.535C88.1293 103.995 86.8464 103.995 86.0563 103.535L35.5063 74.2542C35.1126 74.0257 34.9172 73.7284 34.9172 73.4311L34.9006 63.8728C34.9006 64.1729 35.0988 64.4702 35.4898 64.6987L35.4953 64.6959Z" fill="#393DA8" stroke="#220E6E" stroke-width="0.5"/>
<g filter="url(#filter0_d_30_1458)">
<path d="M35.5067 63.0331C34.7138 63.4928 34.7083 64.2361 35.4984 64.6931L86.0484 93.9737C86.8385 94.4335 88.1214 94.4335 88.9143 93.9737L115.77 78.1662C116.562 77.7064 116.568 76.9631 115.778 76.5061L65.2277 47.2255C64.4376 46.7658 63.1548 46.7658 62.3619 47.2255L35.5067 63.0331Z" fill="#9ED8FF"/>
<path d="M35.5067 63.0331C34.7138 63.4928 34.7083 64.2361 35.4984 64.6931L86.0484 93.9737C86.8385 94.4335 88.1214 94.4335 88.9143 93.9737L115.77 78.1662C116.562 77.7064 116.568 76.9631 115.778 76.5061L65.2277 47.2255C64.4376 46.7658 63.1548 46.7658 62.3619 47.2255L35.5067 63.0331Z" stroke="#220E6E" stroke-width="0.5"/>
</g>
<path d="M49.274 46.5112L99.824 75.7918C100.614 76.2516 101.897 76.2516 102.69 75.7918L129.545 59.9843C129.944 59.753 130.145 59.4502 130.142 59.1474L130.159 68.7057C130.159 69.0085 129.961 69.3113 129.559 69.5426L102.706 85.3501C101.911 85.8099 100.628 85.8099 99.8378 85.3501L49.2878 56.0696C48.8941 55.8411 48.6986 55.5437 48.6986 55.2464L48.6821 45.6881C48.6821 45.9882 48.8803 46.2855 49.2713 46.514L49.274 46.5112Z" fill="#393DA8" stroke="#220E6E" stroke-width="0.5"/>
<path d="M49.2851 44.8511C48.4923 45.3109 48.4868 46.0542 49.2741 46.5112L99.8241 75.7918C100.614 76.2515 101.897 76.2515 102.69 75.7918L129.545 59.9842C130.338 59.5245 130.344 58.7812 129.553 58.3242L79.0034 29.0436C78.2133 28.5839 76.9304 28.5839 76.1348 29.0436L49.2796 44.8511H49.2851Z" fill="#A7F5FF" stroke="#220E6E" stroke-width="0.5"/>
<path d="M63.4325 28.8152L113.982 58.0958C114.773 58.5555 116.055 58.5555 116.848 58.0958L143.704 42.2882C144.103 42.057 144.304 41.7542 144.301 41.4513L144.317 51.0096C144.317 51.3125 144.119 51.6153 143.717 51.8465L116.865 67.6541C116.069 68.1111 114.786 68.1111 113.996 67.6541L63.4462 38.3735C63.0526 38.145 62.8571 37.8477 62.8571 37.5504L62.8406 27.9921C62.8406 28.2894 63.0388 28.5895 63.4297 28.818L63.4325 28.8152Z" fill="#393DA8" stroke="#220E6E" stroke-width="0.5"/>
<path d="M63.444 27.1524C62.6512 27.6121 62.6457 28.3554 63.433 28.8124L113.983 58.093C114.773 58.5527 116.056 58.5527 116.849 58.093L143.704 42.2854C144.497 41.8257 144.502 41.0824 143.712 40.6254L93.1651 11.3448C92.375 10.8851 91.0921 10.8851 90.2993 11.3448L63.444 27.1524Z" fill="#C0FFF4" stroke="#220E6E" stroke-width="0.5"/>
<path d="M24.7564 106.23L32.4594 105.036L33.3055 104.527L28.7379 102L27.5635 102.707L30.5469 104.358L22.8461 105.552L22 106.063L26.5676 108.59L27.742 107.883L24.7564 106.23Z" fill="#220E6E"/>
<path d="M29.9718 109.115L31.5825 108.145L34.134 109.558L35.3084 108.85L32.7569 107.438L34.3654 106.471L37.1218 107.998L38.2984 107.29L34.2794 105.065L27.5349 109.126L31.5649 111.356L32.7415 110.648L29.9718 109.115Z" fill="#220E6E"/>
<path d="M40.1801 112.21C40.6736 112.111 41.1429 111.926 41.5902 111.657C42.0353 111.389 42.3394 111.109 42.5024 110.818C42.6655 110.525 42.6765 110.238 42.5399 109.952C42.4011 109.666 42.108 109.399 41.6563 109.15L39.3031 107.848L32.5586 111.906L33.8189 112.605L36.2096 111.166L37.1306 111.675L35.8703 113.74L37.2628 114.511L38.6179 112.23C38.6443 112.235 38.673 112.244 38.6994 112.246C39.193 112.321 39.6865 112.31 40.1801 112.21ZM39.3979 109.245L40.2484 109.716C40.4907 109.851 40.6516 109.985 40.7331 110.124C40.8124 110.26 40.8146 110.397 40.7397 110.534C40.6648 110.67 40.515 110.805 40.2902 110.939C40.0677 111.074 39.843 111.162 39.616 111.208C39.3869 111.254 39.1577 111.256 38.9241 111.212C38.6906 111.168 38.4526 111.08 38.2125 110.948L37.3553 110.474L39.3979 109.245Z" fill="#220E6E"/>
<path d="M48.4825 113.288C48.3304 112.891 47.9933 112.548 47.4667 112.255C46.9357 111.961 46.3254 111.779 45.6335 111.71C44.9417 111.64 44.2145 111.693 43.4544 111.869C42.6942 112.043 41.9451 112.354 41.2091 112.797C40.4754 113.237 39.973 113.682 39.702 114.127C39.431 114.572 39.3693 114.996 39.5191 115.392C39.6668 115.789 40.0083 116.135 40.5371 116.428C41.0637 116.719 41.674 116.899 42.3659 116.97C43.0578 117.04 43.7871 116.987 44.5495 116.813C45.3118 116.639 46.0588 116.331 46.7947 115.888C47.5306 115.445 48.033 115 48.304 114.555C48.575 114.108 48.6345 113.687 48.4825 113.29V113.288ZM46.5347 114.35C46.332 114.617 45.9927 114.892 45.5167 115.178C45.0408 115.465 44.5759 115.672 44.1242 115.8C43.6725 115.928 43.2473 115.978 42.8506 115.956C42.454 115.932 42.1037 115.835 41.7996 115.668C41.4956 115.498 41.3127 115.302 41.2554 115.073C41.1981 114.846 41.2686 114.599 41.4713 114.332C41.674 114.066 42.0134 113.79 42.4893 113.504C42.9652 113.217 43.4301 113.01 43.8818 112.882C44.3335 112.755 44.7588 112.704 45.1554 112.726C45.552 112.75 45.9023 112.847 46.2064 113.015C46.5105 113.184 46.6933 113.383 46.7506 113.61C46.8079 113.837 46.7374 114.083 46.5347 114.35Z" fill="#220E6E"/>
<path d="M97.4786 25.8987L93.665 28.1936L90.1593 26.252L93.9699 23.9572L92.2428 23L83 28.562L84.7272 29.5192L88.5469 27.2213L92.0556 29.1629L88.2359 31.4607L89.96 32.4149L99.2058 26.8529L97.4786 25.8987Z" fill="#220E6E"/>
<path d="M94.7248 33.1909L96.9321 31.8623L100.429 33.7978L102.041 32.8285L98.5445 30.893L100.746 29.5674L104.526 31.66L106.139 30.6877L100.628 27.641L91.3853 33.203L96.911 36.2617L98.5204 35.2925L94.7248 33.1909Z" fill="#220E6E"/>
<path d="M108.717 37.4303C109.394 37.2944 110.037 37.0408 110.65 36.6724C111.26 36.304 111.676 35.9206 111.9 35.522C112.123 35.1204 112.138 34.7278 111.951 34.3353C111.764 33.9428 111.359 33.5774 110.74 33.2362L107.515 31.4517L98.2727 37.0136L99.9999 37.9708L103.276 35.9991L104.538 36.6966L102.811 39.5259L104.719 40.5827L106.576 37.4575C106.613 37.4635 106.652 37.4756 106.688 37.4786C107.364 37.5813 108.041 37.5662 108.717 37.4303ZM107.645 33.366L108.811 34.0122C109.143 34.1964 109.363 34.3836 109.475 34.5708C109.584 34.758 109.587 34.9453 109.484 35.1325C109.382 35.3197 109.176 35.5039 108.868 35.6881C108.563 35.8722 108.255 35.993 107.944 36.0564C107.633 36.1198 107.316 36.1229 106.996 36.0625C106.676 36.0021 106.35 35.8813 106.021 35.7001L104.846 35.0509L107.645 33.366Z" fill="#220E6E"/>
<path d="M120.095 38.9098C119.886 38.3663 119.424 37.8953 118.703 37.4967C117.975 37.0951 117.139 36.8445 116.191 36.7509C115.242 36.6543 114.246 36.7267 113.204 36.9683C112.162 37.2068 111.136 37.6326 110.127 38.2395C109.122 38.8434 108.433 39.4534 108.062 40.0633C107.691 40.6732 107.606 41.253 107.811 41.7965C108.014 42.34 108.482 42.8141 109.206 43.2157C109.928 43.6143 110.761 43.8619 111.713 43.9585C112.664 44.0551 113.66 43.9826 114.705 43.7441C115.75 43.5056 116.773 43.0828 117.782 42.4759C118.79 41.869 119.479 41.259 119.85 40.6491C120.222 40.0361 120.303 39.4594 120.095 38.9159V38.9098ZM117.426 40.3653C117.148 40.7306 116.683 41.1081 116.031 41.5036C115.378 41.8962 114.741 42.18 114.122 42.3551C113.503 42.5303 112.92 42.5997 112.377 42.5695C111.833 42.5363 111.353 42.4034 110.937 42.174C110.52 41.9414 110.269 41.6727 110.191 41.3587C110.112 41.0477 110.209 40.7095 110.487 40.3441C110.764 39.9788 111.229 39.6013 111.882 39.2088C112.534 38.8162 113.171 38.5324 113.79 38.3573C114.409 38.1821 114.992 38.1127 115.535 38.1429C116.079 38.1761 116.559 38.309 116.976 38.5384C117.392 38.7709 117.643 39.0427 117.721 39.3537C117.8 39.6647 117.703 40.0029 117.426 40.3683V40.3653Z" fill="#220E6E"/>
<defs>
<filter id="filter0_d_30_1458" x="30.6589" y="46.6307" width="89.9583" height="55.9378" filterUnits="userSpaceOnUse" color-interpolation-filters="sRGB">
<feFlood flood-opacity="0" result="BackgroundImageFix"/>
<feColorMatrix in="SourceAlpha" type="matrix" values="0 0 0 0 0 0 0 0 0 0 0 0 0 0 0 0 0 0 127 0" result="hardAlpha"/>
<feOffset dy="4"/>
<feGaussianBlur stdDeviation="2"/>
<feComposite in2="hardAlpha" operator="out"/>
<feColorMatrix type="matrix" values="0 0 0 0 0 0 0 0 0 0 0 0 0 0 0 0 0 0 0.25 0"/>
<feBlend mode="normal" in2="BackgroundImageFix" result="effect1_dropShadow_30_1458"/>
<feBlend mode="normal" in="SourceGraphic" in2="effect1_dropShadow_30_1458" result="shape"/>
</filter>
</defs>
</svg>
