<svg width="150" height="150" viewBox="0 0 150 150" fill="none" xmlns="http://www.w3.org/2000/svg">
<g clip-path="url(#clip0_30_1456)">
<path d="M83.9606 51.3599C81.0819 44.4533 62.3259 45.6918 42.0748 54.1382C21.8237 62.5845 7.75394 75.0364 10.6326 81.943C11.1124 83.1034 12.9422 87.4772 13.422 88.6376C16.3007 95.5553 35.0567 94.3057 55.3078 85.8593C75.5589 77.413 89.6287 64.9611 86.75 58.0545C86.2702 56.8941 84.4404 52.5203 83.9606 51.3599V51.3599Z" fill="url(#paint0_linear_30_1456)" stroke="#29256A" stroke-width="0.5" stroke-linejoin="round"/>
<g style="mix-blend-mode:multiply" opacity="0.3">
<path d="M83.9606 51.3599C81.0819 44.4533 62.3259 45.6918 42.0748 54.1382C21.8237 62.5845 7.75394 75.0364 10.6326 81.943C11.1124 83.1034 12.9422 87.4772 13.422 88.6376C16.3007 95.5553 35.0567 94.3057 55.3078 85.8593C75.5589 77.413 89.6287 64.9611 86.75 58.0545C86.2702 56.8941 84.4404 52.5203 83.9606 51.3599V51.3599Z" fill="url(#paint1_linear_30_1456)"/>
<path d="M83.9606 51.3599C81.0819 44.4533 62.3259 45.6918 42.0748 54.1382C21.8237 62.5845 7.75394 75.0364 10.6326 81.943C11.1124 83.1034 12.9422 87.4772 13.422 88.6376C16.3007 95.5553 35.0567 94.3057 55.3078 85.8593C75.5589 77.413 89.6287 64.9611 86.75 58.0545C86.2702 56.8941 84.4404 52.5203 83.9606 51.3599V51.3599Z" stroke="#29256A" stroke-width="0.5" stroke-linejoin="round"/>
</g>
<path d="M83.9606 51.3599C81.0819 44.4533 62.3259 45.6918 42.0748 54.1382C21.8237 62.5845 7.75394 75.0364 10.6326 81.943C11.1124 83.1034 12.9422 87.4772 13.422 88.6376C16.3007 95.5553 35.0567 94.3057 55.3078 85.8593C75.5589 77.413 89.6287 64.9611 86.75 58.0545C86.2702 56.8941 84.4404 52.5203 83.9606 51.3599V51.3599Z" stroke="#29256A" stroke-width="0.5" stroke-linejoin="round"/>
<mask id="mask0_30_1456" style="mask-type:alpha" maskUnits="userSpaceOnUse" x="10" y="46" width="78" height="48">
<path d="M83.9609 51.3599C81.0822 44.4533 62.3262 45.6918 42.0751 54.1382C21.824 62.5845 7.75419 75.0364 10.6329 81.943C11.1126 83.1034 12.9425 87.4772 13.4223 88.6376C16.3009 95.5553 35.0569 94.3057 55.308 85.8593C75.5592 77.413 89.6289 64.9611 86.7503 58.0545C86.2705 56.8941 84.4406 52.5203 83.9609 51.3599V51.3599Z" fill="url(#paint2_linear_30_1456)"/>
</mask>
<g mask="url(#mask0_30_1456)">
<path d="M0.571529 43.2365L27.1676 116.661" stroke="#29256A" stroke-width="0.5"/>
<path d="M5.71435 42.0244L32.3104 115.449" stroke="#29256A" stroke-width="0.5"/>
<path d="M10.8564 40.8136L37.4525 114.238" stroke="#29256A" stroke-width="0.5"/>
<path d="M15.9995 39.603L42.5956 113.028" stroke="#29256A" stroke-width="0.5"/>
<path d="M26.2856 37.1816L52.8817 110.606" stroke="#29256A" stroke-width="0.5"/>
<path d="M31.4285 35.9709L58.0245 109.396" stroke="#29256A" stroke-width="0.5"/>
<path d="M21.1426 38.3926L47.7387 111.817" stroke="#29256A" stroke-width="0.5"/>
<path d="M36.5728 34.7604L63.1688 108.185" stroke="#29256A" stroke-width="0.5"/>
<path d="M41.7161 33.5496L68.3121 106.974" stroke="#29256A" stroke-width="0.5"/>
<path d="M46.8586 32.3387L73.4547 105.763" stroke="#29256A" stroke-width="0.5"/>
<path d="M52.0017 31.1282L78.5978 104.553" stroke="#29256A" stroke-width="0.5"/>
<path d="M57.1448 29.9174L83.7409 103.342" stroke="#29256A" stroke-width="0.5"/>
<path d="M62.2869 28.7067L88.8829 102.131" stroke="#29256A" stroke-width="0.5"/>
<path d="M67.4299 27.4951L94.026 100.92" stroke="#29256A" stroke-width="0.5"/>
<path d="M72.5739 26.2846L98.5294 99.8533" stroke="#29256A" stroke-width="0.5"/>
</g>
<path d="M10.6326 81.943C13.5113 88.8607 32.2673 87.6111 52.5184 79.1647C72.7695 70.7184 86.8393 58.2665 83.9606 51.3599C81.0819 44.4533 62.326 45.6918 42.0748 54.1382C21.8237 62.5845 7.75394 75.0364 10.6326 81.943Z" fill="url(#paint3_linear_30_1456)" stroke="#29256A" stroke-width="0.5" stroke-linejoin="round"/>
<path opacity="0.2" d="M30.9518 85.6144C37.412 84.5321 44.8542 82.3675 52.5195 79.1764C72.5363 70.8305 86.5056 58.5683 84.0398 51.6171C41.9755 58.758 21.2223 69.5697 30.9518 85.6144Z" fill="white"/>
<g style="mix-blend-mode:multiply" opacity="0.5">
<path d="M42.7796 55.8121C25.6861 62.9419 13.8256 73.5081 16.2914 79.4217C17.2175 81.6532 20.0738 82.9029 24.1687 83.2041C21.0334 82.769 18.8577 81.6532 18.0989 79.8122C15.7781 74.2445 27.1255 64.2027 43.4379 57.3965C59.7616 50.5904 74.869 49.5862 77.1898 55.165C77.9597 57.006 77.2233 59.3379 75.3265 61.8707C77.9931 58.7466 79.1201 55.8344 78.1828 53.6029C75.717 47.6894 59.862 48.6824 42.7685 55.801L42.7796 55.8121Z" fill="url(#paint4_linear_30_1456)"/>
</g>
<path d="M42.7796 55.8121C25.6861 62.9419 13.8256 73.5081 16.2914 79.4217C17.2175 81.6532 20.0738 82.9029 24.1687 83.2041C21.0334 82.769 18.8577 81.6532 18.0989 79.8122C15.7781 74.2445 27.1255 64.2027 43.4379 57.3965C59.7616 50.5904 74.869 49.5862 77.1898 55.165C77.9597 57.006 77.2233 59.3379 75.3265 61.8707C77.9931 58.7466 79.1201 55.8344 78.1828 53.6029C75.717 47.6894 59.862 48.6824 42.7685 55.801L42.7796 55.8121Z" stroke="#29256A" stroke-width="0.5" stroke-linejoin="round"/>
<path d="M65.3493 66.7024C74.5264 59.7736 74.2625 54.2788 64.7642 54.405C60.038 54.4739 53.9008 55.9307 47.8095 58.225C47.7636 58.2479 47.7177 58.2594 47.6718 58.2824C41.5805 60.5881 35.5351 63.7427 30.958 67.1956C30.5221 67.5283 30.1206 67.8495 29.7191 68.1707C29.6962 68.1822 29.6847 68.2051 29.6617 68.2166C29.3979 68.4345 29.157 68.641 28.9161 68.8475C28.9161 68.8475 28.9161 68.8475 28.9046 68.8475C28.6867 69.0425 28.4802 69.2261 28.2737 69.4096C21.953 75.2486 23.0886 79.5962 31.5431 79.4815C41.0414 79.3438 56.1721 73.6196 65.3378 66.7024H65.3493ZM61.5981 66.7597C60.4739 67.6086 59.2235 68.446 57.8929 69.2375C57.8929 69.2375 57.8929 69.2375 57.9043 69.2261C59.8889 66.9662 59.8545 65.2684 59.0859 64.3048C64.8216 60.5537 65.4296 58.9133 63.9498 58.5806C63.9153 58.5806 63.8695 58.5577 63.8236 58.5577C62.5617 58.3512 60.0724 59.1198 58.2714 60.2554C56.4589 61.3911 56.0115 62.4809 57.2734 62.6874C57.3881 62.7103 57.5028 62.7103 57.629 62.7218C57.4569 62.848 57.2734 62.9856 57.0784 63.1233C55.8395 62.7218 54.3367 62.6071 52.7307 62.653C52.1457 62.653 51.5262 62.6988 50.8724 62.7562C52.8569 61.4943 55.4839 60.0948 58.1452 59.0968C60.7148 58.1332 63.2385 57.617 64.8789 57.835C65.1887 57.8809 65.4754 57.9612 65.6819 58.0644C65.6819 58.0644 65.7049 58.0644 65.7163 58.0759C68.0795 59.6016 66.7258 62.9168 61.5981 66.7827V66.7597ZM47.7177 68.251C46.7197 68.664 45.6643 69.0769 44.5516 69.467C44.6893 68.7672 45.0678 68.033 45.6299 67.2645C45.6643 67.2186 45.6873 67.1842 45.7217 67.1383C46.1117 66.6565 46.605 66.1173 47.213 65.5438C48.6469 65.3832 49.8743 65.3373 50.8838 65.429C50.9412 65.429 50.9871 65.429 51.0444 65.4405C51.6524 65.5093 52.2145 65.6355 52.7193 65.8191C51.1477 66.6794 49.5417 67.4595 47.9701 68.1363C47.8898 68.1707 47.8095 68.2051 47.7177 68.2395V68.251ZM57.0899 57.5482C57.0899 57.5482 57.0784 57.5482 57.0669 57.5482C52.5013 59.3721 48.5437 61.7008 46.0085 63.5133C39.3665 64.9472 35.7416 66.8171 34.4224 68.2166C34.388 68.251 34.3535 68.2969 34.3191 68.3313C33.3785 69.4211 34.2388 69.9832 36.2349 69.5817C38.2309 69.1917 40.6055 67.9872 41.5461 66.8974C41.6264 66.8056 41.6952 66.7138 41.7411 66.6221C41.982 66.5532 42.2229 66.4959 42.4868 66.4271C41.0987 67.7692 40.2384 68.9163 39.7566 69.8799C39.5616 70.247 39.4124 70.6026 39.2977 70.9353C37.0723 71.3942 34.7665 71.6236 33.4129 71.2795C32.1052 70.9468 31.8298 70.0291 32.954 68.664C33.1605 68.4116 33.4588 68.1133 33.78 67.838C34.0782 67.5971 34.3765 67.3562 34.6977 67.1153C40.6743 62.63 49.8973 58.7756 57.0899 57.5482ZM35.1795 76.7513C31.5086 76.8087 29.6159 75.7762 29.4897 74.067C32.0707 74.5029 36.0628 73.8605 39.3665 73.0116C40.2728 75.3174 43.2898 75.1109 46.0888 74.0326C46.1691 73.9982 46.2379 73.9752 46.3182 73.9408C48.5207 73.0575 50.1497 71.7383 49.9661 70.9927C49.7826 70.247 47.8554 70.3617 45.6529 71.245C45.4579 71.3253 45.2743 71.4056 45.0908 71.4859C45.0334 71.4171 44.9646 71.3483 44.9072 71.2795C47.5342 70.3388 49.8858 69.3178 51.9736 68.3084C52.7537 67.9298 53.5337 67.5512 54.2908 67.1497C54.5317 67.9527 54.222 69.1343 52.9028 70.4765C51.6409 71.7727 49.3925 73.2066 46.6279 74.3423C46.1003 74.5603 45.5267 74.7668 44.999 74.9388C44.999 74.9388 44.9875 74.9388 44.9761 74.9388C41.4085 76.0401 37.9785 76.7054 35.1795 76.7398V76.7513Z" fill="url(#paint5_linear_30_1456)" stroke="#3442C0" stroke-width="0.5" stroke-linejoin="round"/>
<path style="mix-blend-mode:overlay" opacity="0.9" d="M63.9594 58.5811C63.9594 58.5811 63.8791 58.5581 63.8332 58.5581C63.6153 58.5237 63.3514 58.5122 63.0532 58.5352C63.6611 59.2464 62.2043 61.1048 56.5489 64.6609C54.679 65.8425 52.6257 66.9552 50.5035 67.9647C48.7139 68.8365 46.7179 69.7083 44.5269 70.5343C44.6072 70.8211 44.7333 71.0734 44.8939 71.2684C47.5209 70.3278 49.8725 69.3068 51.9603 68.2973C54.0825 67.2879 56.1244 66.1751 58.0057 64.9936C64.7509 60.7492 65.5195 58.9252 63.9479 58.5811H63.9594Z" fill="url(#paint6_radial_30_1456)"/>
<g style="mix-blend-mode:overlay" opacity="0.8">
<path d="M56.5518 64.6726C62.2072 61.1165 63.6641 59.2581 63.0561 58.5469C62.9873 58.5469 62.9184 58.5583 62.8381 58.5698C63.3888 59.304 61.8975 61.1624 56.3109 64.6726C54.4411 65.8542 52.3877 66.9669 50.2655 67.9764C48.5333 68.8138 46.6176 69.6627 44.5068 70.4657C44.5068 70.5001 44.5183 70.523 44.5298 70.5574C46.7208 69.7315 48.7168 68.8597 50.5064 67.9878C52.6286 66.9784 54.6705 65.8656 56.5518 64.6841V64.6726Z" fill="white"/>
</g>
<path style="mix-blend-mode:overlay" opacity="0.5" d="M39.2174 72.5763C39.1945 72.4846 39.183 72.3928 39.1715 72.2896C35.8678 72.9434 32.0707 73.2876 29.7535 72.5993C29.547 73.127 29.4438 73.6202 29.4782 74.0561C32.0593 74.4921 36.0513 73.8497 39.3551 73.0008C39.2977 72.8631 39.2518 72.714 39.2174 72.5649V72.5763Z" fill="url(#paint7_radial_30_1456)"/>
<path style="mix-blend-mode:overlay" opacity="0.6" d="M39.1722 72.2896C39.1722 72.2896 39.1607 72.1979 39.1607 72.152C35.8684 72.7829 32.1173 73.0812 29.8689 72.3585C29.8345 72.4388 29.8 72.5191 29.7656 72.6108C32.0828 73.2991 35.8684 72.955 39.1836 72.3011L39.1722 72.2896Z" fill="url(#paint8_linear_30_1456)"/>
<path style="mix-blend-mode:overlay" opacity="0.9" d="M34.4366 68.2283C34.4366 68.2283 34.3678 68.3086 34.3334 68.3431C34.1728 68.5381 34.0581 68.7101 34.0007 68.8707C35.882 67.5056 39.702 65.8997 45.931 64.6607C47.9958 64.2478 49.8427 64.0528 51.4258 64.0298C52.8024 63.9839 54.1101 64.0757 55.2343 64.351C55.9455 63.9036 56.565 63.4792 57.0812 63.1121C55.8423 62.7106 54.3395 62.5844 52.7335 62.6418C51.1505 62.6647 49.3036 62.8712 47.2387 63.2727C39.8167 64.741 35.8247 66.7371 34.4252 68.2283H34.4366Z" fill="url(#paint9_radial_30_1456)"/>
<g style="mix-blend-mode:overlay" opacity="0.8">
<path d="M45.9305 64.6604C39.69 65.8879 35.8815 67.5054 34.0002 68.8704C33.9888 68.9049 33.9773 68.9507 33.9658 68.9852C35.8815 67.6315 39.6671 66.0485 45.8158 64.8325C47.8806 64.4195 49.7275 64.2245 51.3106 64.2016C52.6413 64.1672 53.9031 64.2475 55.0044 64.4998C55.0847 64.454 55.1535 64.4081 55.2223 64.3622C54.0981 64.0869 52.7904 63.9951 51.4138 64.041C49.8308 64.0639 47.9839 64.2704 45.919 64.6719L45.9305 64.6604Z" fill="white"/>
</g>
<path style="mix-blend-mode:overlay" opacity="0.4" d="M58.0213 64.9938C57.8033 65.1315 57.5739 65.2691 57.3444 65.4068C57.6427 66.6457 57.0462 68.6188 54.5913 71.0393C55.7499 70.4542 56.8626 69.8462 57.9065 69.2153C59.8911 66.9554 59.8567 65.2577 59.0881 64.3055C58.744 64.5235 58.3883 64.7644 58.0098 64.9938H58.0213Z" fill="url(#paint10_radial_30_1456)"/>
<path style="mix-blend-mode:overlay" opacity="0.5" d="M57.3438 65.4068C57.2291 65.4756 57.1144 65.5445 56.9997 65.6133C57.252 66.8751 56.5752 68.8712 54.0515 71.3146C54.2351 71.2228 54.4071 71.131 54.5907 71.0393C57.0456 68.6188 57.6421 66.6457 57.3438 65.4068V65.4068Z" fill="url(#paint11_linear_30_1456)"/>
<path style="mix-blend-mode:overlay" opacity="0.9" d="M46.0897 74.0331C46.17 73.9987 46.2388 73.9758 46.3191 73.9414C46.7091 73.7808 47.0762 73.6087 47.4204 73.4366C44.9196 74.0905 42.568 73.8381 41.9944 71.5094C41.7994 70.7408 42.0059 69.8231 42.545 68.8366C42.958 68.0107 43.6463 67.0471 44.7131 65.9458C43.933 66.1064 43.1759 66.2785 42.4991 66.4505C41.1111 67.7927 40.2622 68.9398 39.7804 69.9034C39.2412 70.89 39.0348 71.8077 39.2298 72.5763C39.9181 75.3523 43.1301 75.1803 46.0897 74.0331Z" fill="url(#paint12_radial_30_1456)"/>
<g style="mix-blend-mode:overlay" opacity="0.8">
<path d="M41.9934 71.5092C42.567 73.8379 44.9301 74.0902 47.4194 73.4364C47.4997 73.3905 47.58 73.3446 47.6718 73.3102C45.2169 73.9296 42.9112 73.6543 42.3376 71.36C42.1426 70.5915 42.3491 69.6737 42.8882 68.6872C43.2897 67.8842 43.9436 66.955 44.9531 65.8997C44.8728 65.9111 44.7925 65.9341 44.7007 65.9455C43.6339 67.0468 42.9456 68.0104 42.5326 68.8363C41.9934 69.8229 41.787 70.7406 41.982 71.5092H41.9934Z" fill="white"/>
</g>
<path style="mix-blend-mode:overlay" opacity="0.3" d="M47.2338 63.2734C47.4747 63.2276 47.7156 63.1817 47.9565 63.1358C50.962 61.243 55.3555 58.9373 60.1162 57.1936C59.164 57.251 58.1546 57.3771 57.0763 57.5607C52.5106 59.3846 48.553 61.7133 46.0178 63.5258C46.4193 63.4455 46.8208 63.3537 47.2338 63.2734V63.2734Z" fill="url(#paint13_radial_30_1456)"/>
<path style="mix-blend-mode:overlay" opacity="0.4" d="M47.9595 63.1354C48.0742 63.1125 48.2004 63.0895 48.3151 63.0781C51.355 61.1967 55.783 58.891 60.5551 57.1703C60.4174 57.1703 60.2683 57.1818 60.1192 57.1932C55.3471 58.9369 50.965 61.2541 47.9595 63.1354V63.1354Z" fill="url(#paint14_linear_30_1456)"/>
<path d="M65.3493 66.7024C74.5264 59.7736 74.2625 54.2788 64.7642 54.405C60.038 54.4739 53.9008 55.9307 47.8095 58.225C47.7636 58.2479 47.7177 58.2594 47.6718 58.2824C41.5805 60.5881 35.5351 63.7427 30.958 67.1956C30.5221 67.5283 30.1206 67.8495 29.7191 68.1707C29.6962 68.1822 29.6847 68.2051 29.6617 68.2166C29.3979 68.4345 29.157 68.641 28.9161 68.8475C28.9161 68.8475 28.9161 68.8475 28.9046 68.8475C28.6867 69.0425 28.4802 69.2261 28.2737 69.4096C21.953 75.2486 23.0886 79.5962 31.5431 79.4815C41.0414 79.3438 56.1721 73.6196 65.3378 66.7024H65.3493ZM61.5981 66.7597C60.4739 67.6086 59.2235 68.446 57.8929 69.2375C57.8929 69.2375 57.8929 69.2375 57.9043 69.2261C59.8889 66.9662 59.8545 65.2684 59.0859 64.3048C64.8216 60.5537 65.4296 58.9133 63.9498 58.5806C63.9153 58.5806 63.8695 58.5577 63.8236 58.5577C62.5617 58.3512 60.0724 59.1198 58.2714 60.2554C56.4589 61.3911 56.0115 62.4809 57.2734 62.6874C57.3881 62.7103 57.5028 62.7103 57.629 62.7218C57.4569 62.848 57.2734 62.9856 57.0784 63.1233C55.8395 62.7218 54.3367 62.6071 52.7307 62.653C52.1457 62.653 51.5262 62.6988 50.8724 62.7562C52.8569 61.4943 55.4839 60.0948 58.1452 59.0968C60.7148 58.1332 63.2385 57.617 64.8789 57.835C65.1887 57.8809 65.4754 57.9612 65.6819 58.0644C65.6819 58.0644 65.7049 58.0644 65.7163 58.0759C68.0795 59.6016 66.7258 62.9168 61.5981 66.7827V66.7597ZM47.7177 68.251C46.7197 68.664 45.6643 69.0769 44.5516 69.467C44.6893 68.7672 45.0678 68.033 45.6299 67.2645C45.6643 67.2186 45.6873 67.1842 45.7217 67.1383C46.1117 66.6565 46.605 66.1173 47.213 65.5438C48.6469 65.3832 49.8743 65.3373 50.8838 65.429C50.9412 65.429 50.9871 65.429 51.0444 65.4405C51.6524 65.5093 52.2145 65.6355 52.7193 65.8191C51.1477 66.6794 49.5417 67.4595 47.9701 68.1363C47.8898 68.1707 47.8095 68.2051 47.7177 68.2395V68.251ZM57.0899 57.5482C57.0899 57.5482 57.0784 57.5482 57.0669 57.5482C52.5013 59.3721 48.5437 61.7008 46.0085 63.5133C39.3665 64.9472 35.7416 66.8171 34.4224 68.2166C34.388 68.251 34.3535 68.2969 34.3191 68.3313C33.3785 69.4211 34.2388 69.9832 36.2349 69.5817C38.2309 69.1917 40.6055 67.9872 41.5461 66.8974C41.6264 66.8056 41.6952 66.7138 41.7411 66.6221C41.982 66.5532 42.2229 66.4959 42.4868 66.4271C41.0987 67.7692 40.2384 68.9163 39.7566 69.8799C39.5616 70.247 39.4124 70.6026 39.2977 70.9353C37.0723 71.3942 34.7665 71.6236 33.4129 71.2795C32.1052 70.9468 31.8298 70.0291 32.954 68.664C33.1605 68.4116 33.4588 68.1133 33.78 67.838C34.0782 67.5971 34.3765 67.3562 34.6977 67.1153C40.6743 62.63 49.8973 58.7756 57.0899 57.5482ZM35.1795 76.7513C31.5086 76.8087 29.6159 75.7762 29.4897 74.067C32.0707 74.5029 36.0628 73.8605 39.3665 73.0116C40.2728 75.3174 43.2898 75.1109 46.0888 74.0326C46.1691 73.9982 46.2379 73.9752 46.3182 73.9408C48.5207 73.0575 50.1497 71.7383 49.9661 70.9927C49.7826 70.247 47.8554 70.3617 45.6529 71.245C45.4579 71.3253 45.2743 71.4056 45.0908 71.4859C45.0334 71.4171 44.9646 71.3483 44.9072 71.2795C47.5342 70.3388 49.8858 69.3178 51.9736 68.3084C52.7537 67.9298 53.5337 67.5512 54.2908 67.1497C54.5317 67.9527 54.222 69.1343 52.9028 70.4765C51.6409 71.7727 49.3925 73.2066 46.6279 74.3423C46.1003 74.5603 45.5267 74.7668 44.999 74.9388C44.999 74.9388 44.9875 74.9388 44.9761 74.9388C41.4085 76.0401 37.9785 76.7054 35.1795 76.7398V76.7513Z" stroke="#3442C0" stroke-width="0.5" stroke-linejoin="round"/>
<path d="M70.6313 17.9303C60.417 29.8287 65.0499 50.5796 80.9703 64.2756C96.8907 77.9717 118.071 79.423 128.279 67.5157C129.989 65.5214 131.666 63.574 133.37 61.5708C143.579 49.6636 138.946 28.9127 123.025 15.2167C107.111 1.5295 85.9307 0.0782011 75.7223 11.9854C74.0125 13.9797 72.3352 15.9272 70.6313 17.9303V17.9303Z" fill="url(#paint15_linear_30_1456)"/>
<g style="mix-blend-mode:multiply" opacity="0.3">
<path d="M70.6313 17.9303C60.417 29.8287 65.0499 50.5796 80.9703 64.2756C96.8907 77.9717 118.071 79.423 128.279 67.5157C129.989 65.5214 131.666 63.574 133.37 61.5708C143.579 49.6636 138.946 28.9127 123.025 15.2167C107.111 1.5295 85.9307 0.0782011 75.7223 11.9854C74.0125 13.9797 72.3352 15.9272 70.6313 17.9303V17.9303Z" fill="url(#paint16_linear_30_1456)"/>
</g>
<mask id="mask1_30_1456" style="mask-type:alpha" maskUnits="userSpaceOnUse" x="65" y="3" width="74" height="73">
<path d="M70.6305 17.93C60.4162 29.8284 65.0491 50.5793 80.9696 64.2753C96.89 77.9714 118.07 79.4227 128.278 67.5154C129.988 65.5211 131.666 63.5737 133.369 61.5705C143.578 49.6633 138.945 28.9124 123.025 15.2164C107.11 1.5292 85.93 0.077896 75.7215 11.9851C74.0118 13.9794 72.3344 15.9269 70.6305 17.93V17.93Z" fill="url(#paint17_linear_30_1456)"/>
</mask>
<g mask="url(#mask1_30_1456)">
<path d="M115.112 -22.5201L59.9415 29.522" stroke="#29256A" stroke-width="0.5"/>
<path d="M118.177 -18.4045L63.0069 33.6377" stroke="#29256A" stroke-width="0.5"/>
<path d="M121.242 -14.2892L66.0712 37.7529" stroke="#29256A" stroke-width="0.5"/>
<path d="M124.306 -10.1733L69.1354 41.8689" stroke="#29256A" stroke-width="0.5"/>
<path d="M130.433 -1.9406L75.2631 50.1016" stroke="#29256A" stroke-width="0.5"/>
<path d="M133.497 2.17579L78.3268 54.2179" stroke="#29256A" stroke-width="0.5"/>
<path d="M127.369 -6.05682L72.1986 45.9853" stroke="#29256A" stroke-width="0.5"/>
<path d="M136.563 6.29249L81.3924 58.3346" stroke="#29256A" stroke-width="0.5"/>
<path d="M139.625 10.4088L84.4547 62.451" stroke="#29256A" stroke-width="0.5"/>
<path d="M142.69 14.5248L87.5196 66.567" stroke="#29256A" stroke-width="0.5"/>
<path d="M145.753 18.6411L90.5831 70.6832" stroke="#29256A" stroke-width="0.5"/>
<path d="M148.819 22.7571L93.6486 74.7992" stroke="#29256A" stroke-width="0.5"/>
<path d="M151.882 26.8723L96.7115 78.9145" stroke="#29256A" stroke-width="0.5"/>
<path d="M154.946 30.9882L99.776 83.0303" stroke="#29256A" stroke-width="0.5"/>
<path d="M158.01 35.105L102.464 86.6318" stroke="#29256A" stroke-width="0.5"/>
</g>
<path d="M70.6313 17.9303C60.417 29.8287 65.0499 50.5796 80.9703 64.2756C96.8907 77.9717 118.071 79.423 128.279 67.5157C129.989 65.5214 131.666 63.574 133.37 61.5708C143.579 49.6636 138.946 28.9127 123.025 15.2167C107.111 1.5295 85.9307 0.0782011 75.7223 11.9854C74.0125 13.9797 72.3352 15.9272 70.6313 17.9303V17.9303Z" stroke="#29256A" stroke-width="0.5" stroke-linejoin="round"/>
<path d="M128.285 67.5227C138.492 55.6173 133.859 34.8645 117.937 21.1699C102.015 7.47531 80.8328 6.02487 70.6253 17.9302C60.4179 29.8356 65.0505 50.5885 80.9727 64.283C96.8948 77.9776 118.077 79.428 128.285 67.5227Z" fill="url(#paint18_linear_30_1456)" stroke="#29256A" stroke-width="0.5" stroke-linejoin="round"/>
<path opacity="0.1" d="M68.9576 20.1546C61.0166 32.2912 65.9969 51.4019 80.9688 64.2763C95.9407 77.1507 115.555 79.2048 126.33 69.5153L68.9576 20.1546Z" fill="white"/>
<g style="mix-blend-mode:multiply" opacity="0.5">
<path d="M83.4387 61.3982C96.8824 72.9574 114.853 74.0775 123.582 63.8984C126.88 60.0531 128.386 55.1438 128.259 49.8911C128.046 54.1492 126.642 58.1014 123.923 61.2712C115.695 70.8654 98.6276 69.6943 85.7958 58.6583C72.964 47.6222 69.2275 30.8915 77.4555 21.2973C80.1746 18.1275 83.8619 16.1349 88.0421 15.2904C82.8442 15.9562 78.2233 18.1848 74.9157 22.0359C66.1874 32.2149 70.0038 49.8331 83.4387 61.3982Z" fill="url(#paint19_linear_30_1456)"/>
</g>
<path d="M83.4387 61.3982C96.8824 72.9574 114.853 74.0775 123.582 63.8984C126.88 60.0531 128.386 55.1438 128.259 49.8911C128.046 54.1492 126.642 58.1014 123.923 61.2712C115.695 70.8654 98.6276 69.6943 85.7958 58.6583C72.964 47.6222 69.2275 30.8915 77.4555 21.2973C80.1746 18.1275 83.8619 16.1349 88.0421 15.2904C82.8442 15.9562 78.2233 18.1848 74.9157 22.0359C66.1874 32.2149 70.0038 49.8331 83.4387 61.3982Z" stroke="#29256A" stroke-width="0.5" stroke-linejoin="round"/>
<path d="M123.64 63.5298C123.64 63.5298 123.841 63.2577 124.215 62.731C124.397 62.4705 124.639 62.1457 124.907 61.7653C125.189 61.3878 125.396 60.8954 125.694 60.3683C125.838 60.1076 125.98 59.8234 126.145 59.5364C126.295 59.2464 126.387 58.9062 126.523 58.575C126.768 57.8918 127.095 57.1798 127.253 56.364C127.454 55.5573 127.688 54.7037 127.755 53.77C127.818 53.3091 127.869 52.8306 127.929 52.3463C127.936 51.8587 127.946 51.3564 127.951 50.8453C128.021 49.8206 127.853 48.7622 127.777 47.6691C127.743 47.1196 127.595 46.5695 127.502 46.008C127.386 45.4493 127.335 44.8733 127.152 44.3083C126.823 43.1786 126.547 42.0139 126.069 40.8688C125.841 40.2948 125.664 39.7005 125.39 39.1321C125.124 38.5579 124.85 37.9895 124.584 37.4153C124.336 36.8295 123.983 36.2754 123.661 35.7126C123.331 35.1557 123.039 34.5608 122.668 34.0184C121.917 32.9393 121.216 31.8018 120.338 30.7808C118.718 28.6368 116.722 26.7286 114.722 24.9116C112.579 23.1642 110.433 21.508 108.065 20.2265C106.926 19.5184 105.704 18.9921 104.508 18.41C103.91 18.119 103.286 17.9218 102.694 17.6778C102.09 17.4543 101.495 17.1868 100.87 17.0278C100.258 16.8484 99.6537 16.6631 99.0467 16.4924C98.4428 16.3071 97.8269 16.2187 97.2287 16.0804C96.0294 15.7803 94.8355 15.68 93.674 15.5329C93.0963 15.4447 92.5094 15.4768 91.9432 15.4444C91.3711 15.4414 90.8196 15.3739 90.2679 15.4209C89.1733 15.5091 88.0965 15.5093 87.1042 15.7332C86.6052 15.8216 86.1062 15.91 85.6248 15.9868C85.155 16.1195 84.6941 16.2463 84.2478 16.3761C83.3348 16.5857 82.5299 16.9398 81.7545 17.2618C80.9646 17.5425 80.3121 17.9738 79.6775 18.3171C79.366 18.4976 79.0517 18.6545 78.7842 18.844C78.5226 19.0424 78.2697 19.2349 78.0287 19.407C77.5642 19.7776 77.094 20.063 76.7675 20.3932C76.4351 20.7145 76.1557 21.0009 75.9262 21.2288C75.4674 21.6846 75.2203 21.9242 75.2203 21.9242C75.2203 21.9242 75.4615 21.6758 75.8999 21.2081C76.1235 20.9714 76.3941 20.6908 76.7148 20.3518C77.0296 20.0039 77.4793 19.7066 77.9468 19.3214C78.1761 19.1316 78.4289 18.9391 78.6935 18.7261C78.9552 18.5277 79.2695 18.3707 79.5781 18.1668C80.204 17.7911 80.8536 17.3363 81.6407 17.0321C82.4132 16.6866 83.2181 16.2943 84.1313 16.0465C84.5864 15.9108 85.0503 15.7693 85.5231 15.622C86.0074 15.5306 86.5152 15.4363 87.0231 15.3421C88.0418 15.1007 89.1304 15.08 90.2368 14.9713C90.7915 14.9096 91.3605 14.9655 91.9415 14.9627C92.5165 14.9892 93.1063 14.9424 93.7018 15.019C94.8897 15.1486 96.1101 15.2315 97.3358 15.514C98.5793 15.7086 99.8018 16.0822 101.048 16.4531C101.681 16.6062 102.282 16.8826 102.901 17.1091C103.516 17.3502 104.155 17.5504 104.753 17.8415C105.957 18.4177 107.209 18.9501 108.378 19.6642C110.789 20.9547 113.032 22.6614 115.152 24.3734C117.213 26.2642 119.206 28.187 120.852 30.3899C121.733 31.4344 122.446 32.5896 123.197 33.7069C123.565 34.264 123.872 34.8619 124.199 35.4335C124.517 36.0109 124.871 36.565 125.122 37.1744C125.67 38.3493 126.222 39.5096 126.606 40.7042C127.073 41.8699 127.334 43.0697 127.642 44.2257C127.816 44.7965 127.856 45.393 127.963 45.9576C128.038 46.5307 128.186 47.0808 128.208 47.6508C128.264 48.7703 128.411 49.8549 128.323 50.8914C128.301 51.4141 128.282 51.9222 128.266 52.4156C128.198 52.9058 128.123 53.3871 128.057 53.8626C127.958 54.805 127.692 55.6672 127.467 56.4768C127.277 57.3012 126.935 58.0102 126.66 58.6873C126.516 59.0243 126.403 59.3527 126.244 59.6486C126.079 59.9356 125.923 60.2167 125.764 60.4744C125.446 60.9897 125.224 61.4791 124.936 61.8477C124.647 62.2163 124.409 62.5264 124.212 62.7838C123.817 63.2987 123.611 63.562 123.611 63.562L123.64 63.5298Z" fill="#29256A"/>
<path d="M107.509 24.0353C95.8274 16.9923 83.0303 19.1237 78.8993 28.7937C76.8448 33.6137 77.3309 39.3914 79.7852 44.8536L79.7782 44.8594C79.8078 44.8951 79.8235 44.9424 79.8461 44.9839C82.3273 50.436 86.7579 55.5642 92.5747 59.0635C93.1324 59.3972 93.6852 59.7108 94.2401 59.9986C94.2648 60.0143 94.2895 60.03 94.3153 60.0328C94.6832 60.2222 95.0512 60.4117 95.4272 60.5825C95.4272 60.5825 95.4331 60.5896 95.446 60.591C95.7774 60.7505 96.1157 60.9042 96.4552 61.045C106.961 65.5318 117.505 62.9035 121.179 54.298C125.304 44.6208 119.185 31.0713 107.509 24.0353V24.0353ZM105.881 27.8525C107.317 28.7238 108.646 29.7203 109.858 30.8019C109.858 30.8019 109.839 30.7934 109.826 30.792C105.536 29.5349 101.628 30.1298 99.05 31.2393C93.0953 26.6373 89.5921 26.5723 88.1415 28.1941C88.0927 28.2345 88.0628 28.2834 88.0269 28.3251C86.9681 29.683 87.5618 31.9746 89.3397 33.4428C91.1177 34.9111 93.4174 34.9961 94.4692 33.644C94.557 33.5232 94.6388 33.3952 94.7078 33.2659C94.9243 33.3999 95.1468 33.5412 95.381 33.6967C93.8898 35.0992 92.8974 36.6792 92.2587 38.3038C92.0023 38.9015 91.7894 39.5233 91.62 40.1694C89.6314 38.5743 87.6287 36.3523 86.5745 33.972C85.5467 31.6662 85.5404 29.262 86.8201 27.5046C87.0614 27.1724 87.3791 26.8614 87.7113 26.6106C87.7252 26.5991 87.7391 26.5875 87.7531 26.576C92.3828 23.649 99.3728 23.9009 105.895 27.841L105.881 27.8525ZM102.832 41.5538C102.832 41.5538 102.832 41.5538 102.838 41.561C103.339 42.4356 103.782 43.3822 104.161 44.3936C102.627 44.4823 101.091 44.3558 99.6033 44.0326C99.5271 44.0114 99.4498 44.003 99.3677 43.9746C98.4249 43.7428 97.4379 43.4149 96.4009 42.984C96.6847 41.5686 97.1819 40.326 97.8399 39.2636C97.8768 39.209 97.9078 39.1472 97.9447 39.0925C98.3867 38.4498 98.9308 37.831 99.5816 37.2563C100.832 38.583 101.878 39.9463 102.707 41.3319C102.747 41.4078 102.793 41.4779 102.839 41.5481L102.832 41.5538ZM82.5583 35.5843L82.5701 35.5986C84.645 39.6521 88.1678 42.9173 91.1521 44.8933C91.3612 51.2013 93.957 54.2819 96.5822 55.1576C96.6515 55.1846 96.7277 55.2058 96.7981 55.2199C98.8615 55.8136 100.559 54.746 100.585 52.8338C100.61 50.9216 98.9484 48.8992 96.885 48.3055C96.7009 48.2531 96.5285 48.215 96.3551 48.1898C96.3145 47.9705 96.2818 47.7325 96.2492 47.4945C98.6916 48.4612 100.926 48.9495 102.933 49.1202C103.68 49.2007 104.424 49.2354 105.159 49.2299C105.168 51.3543 104.619 53.6399 103.185 55.1397C101.806 56.5934 99.5563 57.1781 96.9551 56.4874C96.459 56.3558 95.9295 56.1554 95.4348 55.9262C95.0174 55.7054 94.607 55.4788 94.1917 55.2321C86.6041 50.656 82.0141 42.5276 82.5523 35.5771L82.5583 35.5843ZM116.557 51.5202C114.968 55.2569 111.702 57.5493 107.715 58.2463C109.936 55.457 110.315 51.5898 109.903 48.4972C115.648 46.7912 116.563 43.7698 115.388 41.2723C115.355 41.2036 115.321 41.1348 115.288 41.0661C114.276 39.1203 111.992 37.8905 110.189 38.3345C108.385 38.7784 107.747 40.7158 108.759 42.6616C108.849 42.8277 108.953 42.9951 109.057 43.1497C108.881 43.2349 108.692 43.3188 108.484 43.407C107.533 41.0378 106.291 38.9695 104.928 37.1813C104.431 36.5089 103.906 35.8466 103.341 35.206C105.313 34.6825 107.872 34.6132 110.361 35.4936C112.767 36.3457 115.01 38.1638 116.352 40.6076C116.606 41.0714 116.824 41.5899 116.974 42.0685C116.974 42.0685 116.98 42.0757 116.986 42.0828C117.857 45.3617 117.785 48.6498 116.566 51.5015L116.557 51.5202Z" fill="url(#paint20_linear_30_1456)" stroke="#3442C0" stroke-width="0.5" stroke-linejoin="round"/>
<g style="mix-blend-mode:overlay" opacity="0.8">
<path d="M98.7057 33.728C93.1465 29.1361 89.5387 28.2783 87.6166 29.1458C87.5915 29.2147 87.5793 29.2851 87.5601 29.3612C89.4969 28.5538 93.0816 29.4548 98.5688 33.9738C100.414 35.4949 102.015 37.2177 103.362 39.0432C104.495 40.5267 105.535 42.2085 106.402 44.0931C106.481 44.0756 106.548 44.0568 106.627 44.0393C105.74 42.0744 104.666 40.3368 103.491 38.8032C102.152 36.9719 100.551 35.2491 98.6987 33.7338L98.7057 33.728Z" fill="white"/>
</g>
<path style="mix-blend-mode:overlay" opacity="0.6" d="M108.152 48.9339C108.039 48.9544 107.927 48.9749 107.815 48.9954C107.722 52.1443 106.677 55.8877 103.95 58.4335C104.124 58.4458 104.293 58.451 104.474 58.4575C107.135 55.8588 108.11 52.0884 108.152 48.9339V48.9339Z" fill="url(#paint21_linear_30_1456)"/>
<path style="mix-blend-mode:overlay" opacity="0.9" d="M96.589 55.1637C96.6583 55.1907 96.7345 55.2119 96.8049 55.226C97.1732 55.3309 97.5199 55.3813 97.8639 55.3858C95.5992 53.9106 93.6689 50.5566 93.7438 44.5919C93.7673 42.6209 94.162 40.8006 94.8521 39.1815C95.4006 37.7881 96.2195 36.4239 97.3799 35.1746C96.6796 34.5976 96.0047 34.108 95.3878 33.7028C93.8966 35.1053 92.8972 36.6911 92.2586 38.3157C91.5625 39.9276 91.1748 41.7422 91.1502 43.7261C91.0604 50.8356 93.8123 54.2326 96.596 55.1579L96.589 55.1637Z" fill="url(#paint22_radial_30_1456)"/>
<g style="mix-blend-mode:overlay" opacity="0.8">
<path d="M93.7303 44.6034C93.6555 50.5681 95.5858 53.9221 97.8505 55.3973C97.9347 55.3998 98.0131 55.3952 98.0914 55.3907C95.8674 53.8939 93.9887 50.5454 94.0631 44.6653C94.0867 42.6943 94.4813 40.874 95.1715 39.2549C95.7029 37.9118 96.4859 36.5893 97.5848 35.379C97.5117 35.319 97.4386 35.259 97.3655 35.199C96.205 36.4483 95.3861 37.8125 94.8377 39.2059C94.1416 40.8178 93.7539 42.6323 93.7293 44.6163L93.7303 44.6034Z" fill="white"/>
</g>
<path style="mix-blend-mode:overlay" opacity="0.4" d="M100.148 32.1255C100.367 32.3054 100.579 32.4911 100.792 32.6769C103.781 31.9504 108.041 31.895 112.491 33.5861C111.674 32.5993 110.788 31.67 109.831 30.8114C105.541 29.5543 101.634 30.1492 99.061 31.2658C99.4157 31.5385 99.7753 31.8313 100.154 32.1326L100.148 32.1255Z" fill="url(#paint23_radial_30_1456)"/>
<path style="mix-blend-mode:overlay" opacity="0.5" d="M100.786 32.6695C100.889 32.7653 100.999 32.8553 101.101 32.951C104.119 32.2732 108.407 32.2794 112.851 34.0351C112.727 33.8849 112.603 33.7347 112.473 33.5774C108.023 31.8863 103.763 31.9417 100.773 32.6682L100.786 32.6695Z" fill="url(#paint24_linear_30_1456)"/>
<path style="mix-blend-mode:overlay" opacity="0.9" d="M115.388 41.2724C115.354 41.2037 115.321 41.1349 115.288 41.0662C115.108 40.7211 114.887 40.3977 114.638 40.1103C114.981 42.4401 113.31 44.9434 107.669 46.322C105.806 46.779 103.804 46.8694 101.767 46.6629C100.044 46.5228 98.1582 46.1436 96.1112 45.428C96.1089 46.1768 96.1553 46.8852 96.2397 47.5261C98.6822 48.4928 100.924 48.9754 102.924 49.139C104.954 49.3512 106.956 49.2608 108.826 48.798C115.54 47.1574 116.634 43.9274 115.387 41.2853L115.388 41.2724Z" fill="url(#paint25_radial_30_1456)"/>
<g style="mix-blend-mode:overlay" opacity="0.8">
<path d="M107.669 46.3097C113.303 44.9369 114.975 42.4336 114.638 40.098C114.579 40.0265 114.52 39.955 114.454 39.8893C114.741 42.1934 113.035 44.6409 107.473 46.002C105.61 46.4591 103.608 46.5494 101.572 46.343C99.9072 46.2026 98.0847 45.8433 96.1118 45.1747C96.1055 45.2522 96.1121 45.3311 96.1058 45.4086C98.1528 46.1242 100.046 46.4976 101.762 46.6435C103.791 46.8558 105.793 46.7654 107.663 46.3026L107.669 46.3097Z" fill="white"/>
</g>
<path style="mix-blend-mode:overlay" opacity="0.3" d="M91.1286 43.7314C91.1345 43.4976 91.1464 43.2709 91.1584 43.0442C88.2049 40.609 84.9259 36.9012 83.1365 32.6114C82.832 33.5621 82.6343 34.5569 82.5494 35.6029C84.6243 39.6564 88.1471 42.9216 91.1314 44.8976C91.1161 44.5247 91.1089 44.1331 91.1216 43.7372L91.1286 43.7314Z" fill="url(#paint26_radial_30_1456)"/>
<path style="mix-blend-mode:overlay" opacity="0.4" d="M91.166 43.0385C91.1754 42.9222 91.1779 42.8118 91.1873 42.6955C88.2628 40.2244 85.0196 36.4748 83.2968 32.1661C83.2397 32.3098 83.1954 32.4548 83.1511 32.5999C84.9405 36.8897 88.2195 40.5975 91.1729 43.0327L91.166 43.0385Z" fill="url(#paint27_linear_30_1456)"/>
<path d="M107.509 24.0353C95.8274 16.9923 83.0303 19.1237 78.8993 28.7937C76.8448 33.6137 77.3309 39.3914 79.7852 44.8536L79.7782 44.8594C79.8078 44.8951 79.8235 44.9424 79.8461 44.9839C82.3273 50.436 86.7579 55.5642 92.5747 59.0635C93.1324 59.3972 93.6852 59.7108 94.2401 59.9986C94.2648 60.0143 94.2895 60.03 94.3153 60.0328C94.6832 60.2222 95.0512 60.4117 95.4272 60.5825C95.4272 60.5825 95.4331 60.5896 95.446 60.591C95.7774 60.7505 96.1157 60.9042 96.4552 61.045C106.961 65.5318 117.505 62.9035 121.179 54.298C125.304 44.6208 119.185 31.0713 107.509 24.0353V24.0353ZM105.881 27.8525C107.317 28.7238 108.646 29.7203 109.858 30.8019C109.858 30.8019 109.839 30.7934 109.826 30.792C105.536 29.5349 101.628 30.1298 99.05 31.2393C93.0953 26.6373 89.5921 26.5723 88.1415 28.1941C88.0927 28.2345 88.0628 28.2834 88.0269 28.3251C86.9681 29.683 87.5618 31.9746 89.3397 33.4428C91.1177 34.9111 93.4174 34.9961 94.4692 33.644C94.557 33.5232 94.6388 33.3952 94.7078 33.2659C94.9243 33.3999 95.1468 33.5412 95.381 33.6967C93.8898 35.0992 92.8974 36.6792 92.2587 38.3038C92.0023 38.9015 91.7894 39.5233 91.62 40.1694C89.6314 38.5743 87.6287 36.3523 86.5745 33.972C85.5467 31.6662 85.5404 29.262 86.8201 27.5046C87.0614 27.1724 87.3791 26.8614 87.7113 26.6106C87.7252 26.5991 87.7391 26.5875 87.7531 26.576C92.3828 23.649 99.3728 23.9009 105.895 27.841L105.881 27.8525ZM102.832 41.5538C102.832 41.5538 102.832 41.5538 102.838 41.561C103.339 42.4356 103.782 43.3822 104.161 44.3936C102.627 44.4823 101.091 44.3558 99.6033 44.0326C99.5271 44.0114 99.4498 44.003 99.3677 43.9746C98.4249 43.7428 97.4379 43.4149 96.4009 42.984C96.6847 41.5686 97.1819 40.326 97.8399 39.2636C97.8768 39.209 97.9078 39.1472 97.9447 39.0925C98.3867 38.4498 98.9308 37.831 99.5816 37.2563C100.832 38.583 101.878 39.9463 102.707 41.3319C102.747 41.4078 102.793 41.4779 102.839 41.5481L102.832 41.5538ZM82.5583 35.5843L82.5701 35.5986C84.645 39.6521 88.1678 42.9173 91.1521 44.8933C91.3612 51.2013 93.957 54.2819 96.5822 55.1576C96.6515 55.1846 96.7277 55.2058 96.7981 55.2199C98.8615 55.8136 100.559 54.746 100.585 52.8338C100.61 50.9216 98.9484 48.8992 96.885 48.3055C96.7009 48.2531 96.5285 48.215 96.3551 48.1898C96.3145 47.9705 96.2818 47.7325 96.2492 47.4945C98.6916 48.4612 100.926 48.9495 102.933 49.1202C103.68 49.2007 104.424 49.2354 105.159 49.2299C105.168 51.3543 104.619 53.6399 103.185 55.1397C101.806 56.5934 99.5563 57.1781 96.9551 56.4874C96.459 56.3558 95.9295 56.1554 95.4348 55.9262C95.0174 55.7054 94.607 55.4788 94.1917 55.2321C86.6041 50.656 82.0141 42.5276 82.5523 35.5771L82.5583 35.5843ZM116.557 51.5202C114.968 55.2569 111.702 57.5493 107.715 58.2463C109.936 55.457 110.315 51.5898 109.903 48.4972C115.648 46.7912 116.563 43.7698 115.388 41.2723C115.355 41.2036 115.321 41.1348 115.288 41.0661C114.276 39.1203 111.992 37.8905 110.189 38.3345C108.385 38.7784 107.747 40.7158 108.759 42.6616C108.849 42.8277 108.953 42.9951 109.057 43.1497C108.881 43.2349 108.692 43.3188 108.484 43.407C107.533 41.0378 106.291 38.9695 104.928 37.1813C104.431 36.5089 103.906 35.8466 103.341 35.206C105.313 34.6825 107.872 34.6132 110.361 35.4936C112.767 36.3457 115.01 38.1638 116.352 40.6076C116.606 41.0714 116.824 41.5899 116.974 42.0685C116.974 42.0685 116.98 42.0757 116.986 42.0828C117.857 45.3617 117.785 48.6498 116.566 51.5015L116.557 51.5202Z" stroke="#3442C0" stroke-width="0.5" stroke-linejoin="round"/>
<path d="M112.176 115.172C115.179 100.749 101.487 85.6942 81.5837 81.5493C61.6802 77.4045 43.1061 85.7397 40.1024 100.163L38.2212 109.196C35.2176 123.62 48.9204 138.676 68.8239 142.821C88.7273 146.966 107.301 138.631 110.305 124.208L112.186 115.174L112.176 115.172Z" fill="url(#paint28_linear_30_1456)" stroke="#29256A" stroke-width="0.5" stroke-linejoin="round"/>
<g style="mix-blend-mode:multiply" opacity="0.3">
<path d="M112.176 115.172C115.179 100.749 101.487 85.6942 81.5837 81.5493C61.6802 77.4045 43.1061 85.7397 40.1024 100.163L38.2212 109.196C35.2176 123.62 48.9204 138.676 68.8239 142.821C88.7273 146.966 107.301 138.631 110.305 124.208L112.186 115.174L112.176 115.172Z" fill="url(#paint29_linear_30_1456)"/>
<path d="M112.176 115.172C115.179 100.749 101.487 85.6942 81.5837 81.5493C61.6802 77.4045 43.1061 85.7397 40.1024 100.163L38.2212 109.196C35.2176 123.62 48.9204 138.676 68.8239 142.821C88.7273 146.966 107.301 138.631 110.305 124.208L112.186 115.174L112.176 115.172Z" stroke="#29256A" stroke-width="0.5" stroke-linejoin="round"/>
</g>
<mask id="mask2_30_1456" style="mask-type:alpha" maskUnits="userSpaceOnUse" x="37" y="80" width="76" height="65">
<path d="M112.176 115.172C115.18 100.749 101.488 85.6943 81.5844 81.5495C61.681 77.4046 43.1068 85.7398 40.1032 100.163L38.222 109.196C35.2183 123.62 48.9212 138.677 68.8246 142.821C88.728 146.966 107.302 138.631 110.306 124.208L112.187 115.174L112.176 115.172Z" fill="url(#paint30_linear_30_1456)" stroke="#29256A" stroke-width="0.5" stroke-linejoin="round"/>
</mask>
<g mask="url(#mask2_30_1456)">
<path d="M40.6366 63.6017L29.8979 142.77" stroke="#29256A" stroke-width="0.5"/>
<path d="M45.8735 64.944L35.1347 144.112" stroke="#29256A" stroke-width="0.5"/>
<path d="M51.1086 66.2866L40.3698 145.455" stroke="#29256A" stroke-width="0.5"/>
<path d="M56.3442 67.6303L45.6054 146.799" stroke="#29256A" stroke-width="0.5"/>
<path d="M66.8149 70.3169L56.0761 149.485" stroke="#29256A" stroke-width="0.5"/>
<path d="M72.0514 71.6603L61.3127 150.829" stroke="#29256A" stroke-width="0.5"/>
<path d="M61.5795 68.9735L50.8407 148.142" stroke="#29256A" stroke-width="0.5"/>
<path d="M77.2875 73.0039L66.5488 152.172" stroke="#29256A" stroke-width="0.5"/>
<path d="M82.5243 74.3473L71.7856 153.516" stroke="#29256A" stroke-width="0.5"/>
<path d="M87.7604 75.6905L77.0217 154.859" stroke="#29256A" stroke-width="0.5"/>
<path d="M92.9958 77.0342L82.257 156.203" stroke="#29256A" stroke-width="0.5"/>
<path d="M98.2314 78.3773L87.4926 157.546" stroke="#29256A" stroke-width="0.5"/>
<path d="M103.467 79.72L92.7279 158.888" stroke="#29256A" stroke-width="0.5"/>
<path d="M108.703 81.0626L97.964 160.231" stroke="#29256A" stroke-width="0.5"/>
<path d="M113.939 82.4063L102.551 161.401" stroke="#29256A" stroke-width="0.5"/>
</g>
<path d="M112.176 115.172C115.179 100.749 101.487 85.6942 81.5837 81.5493C61.6802 77.4045 43.1061 85.7397 40.1024 100.163L38.2212 109.196C35.2176 123.62 48.9204 138.676 68.8239 142.821C88.7273 146.966 107.301 138.631 110.305 124.208L112.186 115.174L112.176 115.172Z" stroke="#29256A" stroke-width="0.5"/>
<path d="M70.7051 133.788C90.6105 137.933 109.182 129.6 112.186 115.174C115.19 100.749 101.489 85.6946 81.5837 81.5493C61.6783 77.4041 43.1065 85.7376 40.1024 100.163C37.0984 114.588 50.7996 129.643 70.7051 133.788Z" fill="url(#paint31_linear_30_1456)" stroke="#29256A" stroke-width="0.5" stroke-linejoin="round"/>
<path opacity="0.2" d="M51.3347 125.02C56.5198 129.091 63.1601 132.229 70.7007 133.799C90.3776 137.897 108.734 129.797 112.057 115.677C78.1822 89.3333 56.2283 88.7654 51.3347 125.02Z" fill="white"/>
<g style="mix-blend-mode:multiply" opacity="0.5">
<path d="M80.8551 85.0421C64.0585 81.5442 48.3504 88.7104 45.7822 101.042C44.8124 105.699 45.8518 110.437 48.4399 114.71C46.6053 111.089 45.9288 107.203 46.728 103.365C49.1502 91.7338 64.1115 85.0194 80.1529 88.36C96.1943 91.7006 107.232 103.829 104.809 115.461C104.01 119.298 101.836 122.602 98.7087 125.19C102.787 122.305 105.632 118.376 106.604 113.708C109.174 101.366 97.6409 88.5377 80.8335 85.0376L80.8551 85.0421Z" fill="url(#paint32_linear_30_1456)"/>
</g>
<path d="M80.8561 85.0421C64.0595 81.5442 48.3513 88.7104 45.7832 101.042C44.8134 105.699 45.8528 110.437 48.4409 114.71C46.6062 111.089 45.9298 107.203 46.729 103.365C49.1512 91.7338 64.1125 85.0194 80.1539 88.36C96.1953 91.7006 107.233 103.829 104.81 115.461C104.011 119.298 101.837 122.602 98.7097 125.19C102.788 122.305 105.633 118.376 106.605 113.708C109.175 101.366 97.6419 88.5377 80.8345 85.0376L80.8561 85.0421Z" stroke="#29256A" stroke-width="0.5"/>
<path d="M100.488 111.564C101.384 101.916 91.2974 92.5944 77.9456 90.7239C71.2953 89.7936 65.0901 90.8878 60.4298 93.4222L60.4196 93.4202C60.3829 93.4454 60.3584 93.4622 60.3218 93.4874C55.6923 96.0276 52.5975 100.006 52.1432 104.807C52.0998 105.26 52.0872 105.719 52.0951 106.181C52.0911 106.202 52.0872 106.222 52.0935 106.245C52.1001 106.546 52.117 106.85 52.1461 107.145C52.1461 107.145 52.1461 107.145 52.1441 107.155C52.1668 107.427 52.1998 107.701 52.2451 107.967C53.5137 116.408 62.8053 123.981 74.6859 125.647C88.0378 127.518 99.5821 121.21 100.488 111.564V111.564ZM95.2149 110.831C95.1059 112.021 94.7769 113.138 94.2916 114.182C94.2916 114.182 94.2936 114.171 94.2955 114.161C93.1281 110.788 90.1081 107.932 87.3121 106.136C88.9081 101.091 86.8675 98.4523 84.1733 97.5764C84.1034 97.5524 84.0233 97.5265 83.9534 97.5025C81.7962 96.8786 79.5724 97.6139 78.9967 99.1338C78.421 100.654 79.6978 102.386 81.855 103.01C82.0461 103.068 82.2308 103.103 82.4156 103.138C82.3925 103.316 82.3674 103.504 82.332 103.69C79.8627 102.75 77.487 102.213 75.2753 101.932C74.4566 101.82 73.6217 101.736 72.7912 101.686C73.3983 100 74.6747 98.2061 76.7214 97.1155C78.6987 96.0547 81.3954 95.7413 84.1376 96.4763C84.6532 96.6171 85.2 96.8174 85.6813 97.0267C85.7019 97.0306 85.7327 97.0364 85.7493 97.061C91.8291 100.155 95.7299 105.43 95.2272 110.822L95.2149 110.831ZM77.986 110.282C77.2993 110.763 76.5099 111.224 75.6033 111.63C74.5752 110.492 73.797 109.326 73.2628 108.163C73.2315 108.104 73.2003 108.044 73.1813 107.976C72.874 107.243 72.6503 106.461 72.5102 105.63C74.269 105.664 75.9616 105.878 77.553 106.234C77.6351 106.25 77.7172 106.265 77.8095 106.283C78.7934 106.534 79.8167 106.857 80.8634 107.281C80.1326 108.385 79.2182 109.337 78.1611 110.144C78.1 110.186 78.0491 110.23 77.988 110.272L77.986 110.282ZM72.5174 94.3344C72.5174 94.3344 72.5174 94.3344 72.5052 94.3428C69.1999 96.4056 67.6511 99.4664 67.2207 101.957C60.254 102.917 58.3549 105.247 58.95 107.322C58.9607 107.377 58.9816 107.435 59.0026 107.492C59.5776 109.113 61.7964 110.252 63.9548 110.03C66.1132 109.807 67.3981 108.304 66.8232 106.684C66.7749 106.546 66.7061 106.404 66.6353 106.273C66.8583 106.219 67.1037 106.158 67.3575 106.11C67.7425 108.059 68.5275 109.805 69.5464 111.327C69.9057 111.899 70.3202 112.46 70.7675 113.017C68.3862 113.293 65.4851 113.171 62.9405 112.292C60.476 111.438 58.4727 109.836 57.6791 107.799C57.5284 107.416 57.4305 106.98 57.3986 106.588C57.3998 106.245 57.4011 105.902 57.4332 105.565C58.0168 99.2986 64.395 94.8288 72.5257 94.3467L72.5174 94.3344ZM75.046 121.846C69.8875 121.124 65.3525 118.966 62.1702 116.068C66.6327 117.377 71.2117 117.174 74.4401 116.469C79.8211 120.556 83.7505 120.862 85.8599 119.666C85.9191 119.634 85.9783 119.602 86.0272 119.569C87.6114 118.562 87.6144 116.698 86.0317 115.4C84.449 114.103 81.8872 113.874 80.303 114.881C80.1685 114.973 80.0443 115.067 79.9303 115.164C79.7305 115.04 79.5204 114.914 79.2937 114.764C81.3799 113.745 82.9565 112.555 84.1493 111.313C84.6087 110.853 85.029 110.376 85.4122 109.87C87.1845 111.289 88.8112 113.195 89.3071 115.175C89.7943 117.09 89.1009 119.006 87.1626 120.31C86.7957 120.562 86.3488 120.788 85.9013 120.96C85.9013 120.96 85.8911 120.958 85.8788 120.966C82.7088 122.037 78.9714 122.399 75.046 121.846V121.846Z" fill="url(#paint33_linear_30_1456)" stroke="#3442C0" stroke-width="0.5" stroke-linejoin="round"/>
<g style="mix-blend-mode:overlay" opacity="0.8">
<path d="M84.3023 106.197C86.118 101.451 84.9184 98.6399 82.7901 97.3033C82.6978 97.2858 82.6117 97.2909 82.5154 97.294C84.5884 98.6415 85.7367 101.443 83.9431 106.129C83.3473 107.699 82.3753 109.122 81.1291 110.365C80.1354 111.398 78.8812 112.403 77.2878 113.29C77.3518 113.345 77.4158 113.4 77.4818 113.445C79.1548 112.53 80.4663 111.503 81.4884 110.433C82.7325 109.201 83.7046 107.777 84.3023 106.197V106.197Z" fill="white"/>
</g>
<path style="mix-blend-mode:overlay" opacity="0.6" d="M72.9038 115.213C72.813 115.131 72.7221 115.05 72.6312 114.968C69.0288 115.292 64.2057 114.987 59.7031 113.274C59.7944 113.41 59.8876 113.535 59.9892 113.672C64.5016 115.332 69.3223 115.594 72.9018 115.223L72.9038 115.213Z" fill="url(#paint34_linear_30_1456)"/>
<path style="mix-blend-mode:overlay" opacity="0.9" d="M58.9396 107.32C58.9503 107.376 58.9713 107.433 58.9923 107.491C59.0971 107.779 59.2469 108.054 59.4437 108.305C59.7377 106.421 62.3477 104.548 69.0951 103.846C71.3293 103.616 73.615 103.675 75.8414 103.991C77.7433 104.223 79.7657 104.661 81.8621 105.38C82.0826 104.779 82.2317 104.218 82.3197 103.699C79.8401 102.756 77.4663 102.209 75.2629 101.941C73.0366 101.625 70.7508 101.566 68.5167 101.796C60.479 102.628 58.3148 105.122 58.9396 107.32V107.32Z" fill="url(#paint35_radial_30_1456)"/>
<g style="mix-blend-mode:overlay" opacity="0.8">
<path d="M69.0949 103.846C62.3474 104.548 59.7374 106.421 59.4435 108.305C59.4952 108.369 59.5387 108.42 59.5905 108.483C59.944 106.621 62.5667 104.793 69.2262 104.107C71.4603 103.877 73.7461 103.936 75.9724 104.251C77.8107 104.482 79.7633 104.896 81.7835 105.569C81.8056 105.509 81.8296 105.438 81.8516 105.378C79.7532 104.669 77.7308 104.232 75.8309 103.989C73.6045 103.673 71.3188 103.614 69.0846 103.844L69.0949 103.846Z" fill="white"/>
</g>
<path style="mix-blend-mode:overlay" opacity="0.4" d="M86.9849 107.071C86.9168 107.261 86.8301 107.438 86.7537 107.616C89.3662 109.763 91.9934 112.952 92.7666 116.497C93.3836 115.767 93.8956 114.975 94.2864 114.148C93.1293 110.778 90.099 107.919 87.3113 106.136C87.2113 106.438 87.1113 106.741 86.9869 107.06L86.9849 107.071Z" fill="url(#paint36_radial_30_1456)"/>
<path style="mix-blend-mode:overlay" opacity="0.5" d="M86.7423 107.625C86.7041 107.715 86.6658 107.804 86.6154 107.901C89.1912 110.073 91.7592 113.294 92.4566 116.846C92.552 116.735 92.6577 116.627 92.7551 116.506C91.9819 112.961 89.3547 109.772 86.7423 107.625V107.625Z" fill="url(#paint37_linear_30_1456)"/>
<path style="mix-blend-mode:overlay" opacity="0.9" d="M85.8486 119.654C85.8486 119.654 85.9669 119.591 86.0158 119.557C86.2951 119.374 86.525 119.171 86.7056 118.948C84.2937 119.498 80.4738 118.558 75.542 114.514C73.9036 113.174 72.6022 111.683 71.62 110.135C70.7422 108.822 70.0312 107.358 69.6058 105.734C68.7581 105.83 67.9905 105.952 67.3256 106.094C67.7086 108.053 68.5079 109.78 69.5267 111.303C70.509 112.851 71.8207 114.343 73.4488 115.681C79.3278 120.506 83.6106 120.912 85.8383 119.652L85.8486 119.654Z" fill="url(#paint38_radial_30_1456)"/>
<g style="mix-blend-mode:overlay" opacity="0.8">
<path d="M75.5535 114.516C80.4853 118.56 84.3033 119.51 86.7171 118.95C86.7597 118.894 86.8023 118.838 86.8346 118.78C84.41 119.284 80.6371 118.321 75.7712 114.321C74.1328 112.981 72.8314 111.491 71.8492 109.943C71.0046 108.679 70.3165 107.262 69.8794 105.7C69.7934 105.705 69.7054 105.72 69.6091 105.723C70.0344 107.348 70.7454 108.812 71.6232 110.125C72.6054 111.673 73.9171 113.165 75.5452 114.503L75.5535 114.516Z" fill="white"/>
</g>
<path style="mix-blend-mode:overlay" opacity="0.3" d="M68.5167 101.786C68.7768 101.76 69.0472 101.736 69.3156 101.723C70.2827 99.2055 72.4761 96.2778 76.2173 94.3835C74.9724 94.2758 73.7219 94.2527 72.5071 94.3222C69.2018 96.385 67.653 99.4458 67.2227 101.937C67.6382 101.876 68.0724 101.83 68.5187 101.775L68.5167 101.786Z" fill="url(#paint39_radial_30_1456)"/>
<path style="mix-blend-mode:overlay" opacity="0.4" d="M69.3045 101.721C69.4335 101.713 69.5748 101.697 69.7039 101.69C70.7223 99.1818 72.9857 96.2781 76.7908 94.4389C76.5939 94.4122 76.4052 94.3978 76.2165 94.3834C72.467 96.2654 70.2716 99.2034 69.3147 101.723L69.3045 101.721Z" fill="url(#paint40_linear_30_1456)"/>
<path d="M100.488 111.564C101.384 101.916 91.2974 92.5941 77.9456 90.7237C71.2953 89.7934 65.0901 90.8875 60.4298 93.4219L60.4196 93.42C60.3829 93.4452 60.3584 93.462 60.3218 93.4872C55.6923 96.0274 52.5975 100.006 52.1432 104.807C52.0998 105.26 52.0872 105.718 52.0951 106.181C52.0911 106.201 52.0872 106.222 52.0935 106.245C52.1001 106.546 52.117 106.849 52.1461 107.144C52.1461 107.144 52.1461 107.144 52.1441 107.155C52.1668 107.427 52.1998 107.701 52.2451 107.967C53.5137 116.408 62.8053 123.981 74.6859 125.647C88.0378 127.518 99.5821 121.21 100.488 111.564V111.564ZM95.2149 110.83C95.1059 112.021 94.7769 113.137 94.2916 114.181C94.2916 114.181 94.2936 114.171 94.2955 114.161C93.1281 110.788 90.1081 107.932 87.3121 106.136C88.9081 101.09 86.8675 98.4521 84.1733 97.5762C84.1034 97.5522 84.0233 97.5262 83.9534 97.5022C81.7962 96.8783 79.5724 97.6137 78.9967 99.1336C78.421 100.653 79.6978 102.386 81.855 103.01C82.0461 103.067 82.2308 103.102 82.4156 103.138C82.3925 103.315 82.3674 103.504 82.332 103.69C79.8627 102.749 77.487 102.213 75.2753 101.932C74.4566 101.819 73.6217 101.736 72.7912 101.685C73.3983 100 74.6747 98.2058 76.7214 97.1153C78.6987 96.0544 81.3954 95.7411 84.1376 96.4761C84.6532 96.6169 85.2 96.8171 85.6813 97.0264C85.7019 97.0303 85.7327 97.0362 85.7493 97.0608C91.8291 100.155 95.7299 105.43 95.2272 110.822L95.2149 110.83ZM77.986 110.282C77.2993 110.762 76.5099 111.223 75.6033 111.63C74.5752 110.492 73.797 109.326 73.2628 108.163C73.2315 108.104 73.2003 108.044 73.1813 107.976C72.874 107.243 72.6503 106.461 72.5102 105.63C74.269 105.664 75.9616 105.878 77.553 106.234C77.6351 106.249 77.7172 106.265 77.8095 106.282C78.7934 106.534 79.8167 106.856 80.8634 107.28C80.1326 108.385 79.2182 109.337 78.1611 110.144C78.1 110.186 78.0491 110.229 77.988 110.271L77.986 110.282ZM72.5174 94.3342C72.5174 94.3342 72.5174 94.3342 72.5052 94.3426C69.1999 96.4054 67.6511 99.4662 67.2207 101.957C60.254 102.917 58.3549 105.247 58.95 107.321C58.9607 107.377 58.9816 107.435 59.0026 107.492C59.5776 109.113 61.7964 110.252 63.9548 110.03C66.1132 109.807 67.3981 108.304 66.8232 106.683C66.7749 106.546 66.7061 106.404 66.6353 106.272C66.8583 106.218 67.1037 106.158 67.3575 106.109C67.7425 108.058 68.5275 109.804 69.5464 111.327C69.9057 111.899 70.3202 112.46 70.7675 113.016C68.3862 113.293 65.4851 113.171 62.9405 112.291C60.476 111.438 58.4727 109.835 57.6791 107.798C57.5284 107.416 57.4305 106.979 57.3986 106.587C57.3998 106.245 57.4011 105.902 57.4332 105.565C58.0168 99.2984 64.395 94.8286 72.5257 94.3465L72.5174 94.3342ZM75.046 121.846C69.8875 121.124 65.3525 118.966 62.1702 116.068C66.6327 117.376 71.2117 117.174 74.4401 116.468C79.8211 120.556 83.7505 120.862 85.8599 119.666C85.9191 119.634 85.9783 119.602 86.0272 119.569C87.6114 118.562 87.6144 116.697 86.0317 115.4C84.449 114.103 81.8872 113.874 80.303 114.88C80.1685 114.973 80.0443 115.067 79.9303 115.163C79.7305 115.04 79.5204 114.914 79.2937 114.764C81.3799 113.745 82.9565 112.555 84.1493 111.313C84.6087 110.853 85.029 110.376 85.4122 109.87C87.1845 111.289 88.8112 113.195 89.3071 115.175C89.7943 117.09 89.1009 119.005 87.1626 120.309C86.7957 120.561 86.3488 120.787 85.9013 120.96C85.9013 120.96 85.8911 120.958 85.8788 120.966C82.7088 122.036 78.9714 122.399 75.046 121.846V121.846Z" stroke="#3442C0" stroke-width="0.5" stroke-linejoin="round"/>
</g>
<defs>
<linearGradient id="paint0_linear_30_1456" x1="4.66455" y1="88.9737" x2="83.9602" y2="73.4064" gradientUnits="userSpaceOnUse">
<stop stop-color="#E6007A"/>
<stop offset="0.21" stop-color="#703AC2"/>
<stop offset="0.46" stop-color="#0070EB"/>
<stop offset="0.77" stop-color="#0297FB"/>
<stop offset="1" stop-color="#0AE2FF"/>
</linearGradient>
<linearGradient id="paint1_linear_30_1456" x1="4.66455" y1="88.9737" x2="83.9602" y2="73.4064" gradientUnits="userSpaceOnUse">
<stop stop-color="#E6007A"/>
<stop offset="0.21" stop-color="#703AC2"/>
<stop offset="0.46" stop-color="#0070EB"/>
<stop offset="0.77" stop-color="#0297FB"/>
<stop offset="1" stop-color="#0AE2FF"/>
</linearGradient>
<linearGradient id="paint2_linear_30_1456" x1="27.7729" y1="56.5173" x2="82.0247" y2="85.0725" gradientUnits="userSpaceOnUse">
<stop stop-color="#E6C1FF"/>
<stop offset="0.40625" stop-color="#B6C7FF"/>
<stop offset="1" stop-color="#AFF1FF"/>
</linearGradient>
<linearGradient id="paint3_linear_30_1456" x1="1.25922" y1="81.4333" x2="73.9875" y2="65.1363" gradientUnits="userSpaceOnUse">
<stop stop-color="#E60068"/>
<stop offset="0.21" stop-color="#703AC2"/>
<stop offset="0.46" stop-color="#0070EB"/>
<stop offset="0.77" stop-color="#0297FB"/>
<stop offset="1" stop-color="#0AE2FF"/>
</linearGradient>
<linearGradient id="paint4_linear_30_1456" x1="23.2167" y1="46.5835" x2="28.5066" y2="87.3441" gradientUnits="userSpaceOnUse">
<stop stop-color="#E6007A"/>
<stop offset="0.21" stop-color="#703AC2"/>
<stop offset="0.46" stop-color="#0070EB"/>
<stop offset="0.77" stop-color="#0297FB"/>
<stop offset="1" stop-color="#0AE2FF"/>
</linearGradient>
<linearGradient id="paint5_linear_30_1456" x1="35.1402" y1="59.6257" x2="66.7381" y2="78.6912" gradientUnits="userSpaceOnUse">
<stop stop-color="#E6C1FF"/>
<stop offset="0.40625" stop-color="#B6C7FF"/>
<stop offset="1" stop-color="#AFF1FF"/>
</linearGradient>
<radialGradient id="paint6_radial_30_1456" cx="0" cy="0" r="1" gradientUnits="userSpaceOnUse" gradientTransform="translate(68.2554 65.0671) rotate(2.18) scale(6.08214 5.03158)">
<stop stop-color="white"/>
<stop offset="1" stop-color="white" stop-opacity="0"/>
</radialGradient>
<radialGradient id="paint7_radial_30_1456" cx="0" cy="0" r="1" gradientUnits="userSpaceOnUse" gradientTransform="translate(58.9117 74.0507) rotate(2.18) scale(3.53319 2.92291)">
<stop stop-color="white"/>
<stop offset="1" stop-color="white" stop-opacity="0"/>
</radialGradient>
<linearGradient id="paint8_linear_30_1456" x1="53.6225" y1="73.3584" x2="57.0416" y2="73.4275" gradientUnits="userSpaceOnUse">
<stop stop-color="white" stop-opacity="0"/>
<stop offset="1" stop-color="white"/>
</linearGradient>
<radialGradient id="paint9_radial_30_1456" cx="0" cy="0" r="1" gradientUnits="userSpaceOnUse" gradientTransform="translate(24.0077 97.81) rotate(-56.63) scale(5.08688 6.02684)">
<stop stop-color="white"/>
<stop offset="1" stop-color="white" stop-opacity="0"/>
</radialGradient>
<radialGradient id="paint10_radial_30_1456" cx="0" cy="0" r="1" gradientUnits="userSpaceOnUse" gradientTransform="translate(29.2199 110.241) rotate(-56.63) scale(2.95503 3.50107)">
<stop stop-color="white"/>
<stop offset="1" stop-color="white" stop-opacity="0"/>
</radialGradient>
<linearGradient id="paint11_linear_30_1456" x1="26.2741" y1="113.622" x2="27.8118" y2="111.222" gradientUnits="userSpaceOnUse">
<stop stop-color="white" stop-opacity="0"/>
<stop offset="1" stop-color="white"/>
</linearGradient>
<radialGradient id="paint12_radial_30_1456" cx="0" cy="0" r="1" gradientUnits="userSpaceOnUse" gradientTransform="translate(144.064 22.5274) rotate(155.72) scale(9.73142 3.15165)">
<stop stop-color="white"/>
<stop offset="1" stop-color="white" stop-opacity="0"/>
</radialGradient>
<radialGradient id="paint13_radial_30_1456" cx="0" cy="0" r="1" gradientUnits="userSpaceOnUse" gradientTransform="translate(154.697 11.5396) rotate(155.72) scale(5.65311 1.83083)">
<stop stop-color="white"/>
<stop offset="1" stop-color="white" stop-opacity="0"/>
</radialGradient>
<linearGradient id="paint14_linear_30_1456" x1="162.575" y1="8.32422" x2="157.717" y2="10.7884" gradientUnits="userSpaceOnUse">
<stop stop-color="white" stop-opacity="0"/>
<stop offset="1" stop-color="white"/>
</linearGradient>
<linearGradient id="paint15_linear_30_1456" x1="65.8545" y1="13.9706" x2="131.344" y2="67.7063" gradientUnits="userSpaceOnUse">
<stop stop-color="#E6007A"/>
<stop offset="0.21" stop-color="#703AC2"/>
<stop offset="0.46" stop-color="#0070EB"/>
<stop offset="0.77" stop-color="#0297FB"/>
<stop offset="1" stop-color="#0AE2FF"/>
</linearGradient>
<linearGradient id="paint16_linear_30_1456" x1="65.8545" y1="13.9706" x2="131.344" y2="67.7063" gradientUnits="userSpaceOnUse">
<stop stop-color="#E6007A"/>
<stop offset="0.21" stop-color="#703AC2"/>
<stop offset="0.46" stop-color="#0070EB"/>
<stop offset="0.77" stop-color="#0297FB"/>
<stop offset="1" stop-color="#0AE2FF"/>
</linearGradient>
<linearGradient id="paint17_linear_30_1456" x1="65.8537" y1="13.9703" x2="131.343" y2="67.706" gradientUnits="userSpaceOnUse">
<stop stop-color="#E6007A"/>
<stop offset="0.21" stop-color="#703AC2"/>
<stop offset="0.46" stop-color="#0070EB"/>
<stop offset="0.77" stop-color="#0297FB"/>
<stop offset="1" stop-color="#0AE2FF"/>
</linearGradient>
<linearGradient id="paint18_linear_30_1456" x1="54.2376" y1="31.1624" x2="133.647" y2="64.2547" gradientUnits="userSpaceOnUse">
<stop stop-color="#E6007A"/>
<stop offset="0.21" stop-color="#703AC2"/>
<stop offset="0.46" stop-color="#0070EB"/>
<stop offset="0.77" stop-color="#0297FB"/>
<stop offset="1" stop-color="#0AE2FF"/>
</linearGradient>
<linearGradient id="paint19_linear_30_1456" x1="62.1121" y1="22.4941" x2="120.656" y2="67.9894" gradientUnits="userSpaceOnUse">
<stop stop-color="#E6007A"/>
<stop offset="0.21" stop-color="#703AC2"/>
<stop offset="0.46" stop-color="#0070EB"/>
<stop offset="0.77" stop-color="#0297FB"/>
<stop offset="1" stop-color="#0AE2FF"/>
</linearGradient>
<linearGradient id="paint20_linear_30_1456" x1="82.9023" y1="36.8751" x2="112.47" y2="22.3475" gradientUnits="userSpaceOnUse">
<stop stop-color="#E6C1FF"/>
<stop offset="0.40625" stop-color="#B6C7FF"/>
<stop offset="1" stop-color="#AFF1FF"/>
</linearGradient>
<linearGradient id="paint21_linear_30_1456" x1="103.92" y1="57.9564" x2="106" y2="54.5094" gradientUnits="userSpaceOnUse">
<stop stop-color="white" stop-opacity="0"/>
<stop offset="1" stop-color="white"/>
</linearGradient>
<radialGradient id="paint22_radial_30_1456" cx="0" cy="0" r="1" gradientUnits="userSpaceOnUse" gradientTransform="translate(168.089 58.1023) rotate(-170.455) scale(8.5689 7.81422)">
<stop stop-color="white"/>
<stop offset="1" stop-color="white" stop-opacity="0"/>
</radialGradient>
<radialGradient id="paint23_radial_30_1456" cx="0" cy="0" r="1" gradientUnits="userSpaceOnUse" gradientTransform="translate(182.606 45.8473) rotate(-170.455) scale(4.97988 4.5413)">
<stop stop-color="white"/>
<stop offset="1" stop-color="white" stop-opacity="0"/>
</radialGradient>
<linearGradient id="paint24_linear_30_1456" x1="112.371" y1="33.2261" x2="107.665" y2="33.2447" gradientUnits="userSpaceOnUse">
<stop stop-color="white" stop-opacity="0"/>
<stop offset="1" stop-color="white"/>
</linearGradient>
<radialGradient id="paint25_radial_30_1456" cx="0" cy="0" r="1" gradientUnits="userSpaceOnUse" gradientTransform="translate(154.815 116.676) rotate(56.6798) scale(9.23702 7.24971)">
<stop stop-color="white"/>
<stop offset="1" stop-color="white" stop-opacity="0"/>
</radialGradient>
<radialGradient id="paint26_radial_30_1456" cx="0" cy="0" r="1" gradientUnits="userSpaceOnUse" gradientTransform="translate(136.509 112.469) rotate(56.6798) scale(5.36817 4.21323)">
<stop stop-color="white"/>
<stop offset="1" stop-color="white" stop-opacity="0"/>
</radialGradient>
<linearGradient id="paint27_linear_30_1456" x1="84.0659" y1="32.3611" x2="86.5915" y2="36.9098" gradientUnits="userSpaceOnUse">
<stop stop-color="white" stop-opacity="0"/>
<stop offset="1" stop-color="white"/>
</linearGradient>
<linearGradient id="paint28_linear_30_1456" x1="28.6771" y1="128.741" x2="106.637" y2="133.998" gradientUnits="userSpaceOnUse">
<stop stop-color="#E6007A"/>
<stop offset="0.21" stop-color="#703AC2"/>
<stop offset="0.46" stop-color="#0070EB"/>
<stop offset="0.77" stop-color="#0297FB"/>
<stop offset="1" stop-color="#0AE2FF"/>
</linearGradient>
<linearGradient id="paint29_linear_30_1456" x1="28.6771" y1="128.741" x2="106.637" y2="133.998" gradientUnits="userSpaceOnUse">
<stop stop-color="#E6007A"/>
<stop offset="0.21" stop-color="#703AC2"/>
<stop offset="0.46" stop-color="#0070EB"/>
<stop offset="0.77" stop-color="#0297FB"/>
<stop offset="1" stop-color="#0AE2FF"/>
</linearGradient>
<linearGradient id="paint30_linear_30_1456" x1="28.6778" y1="128.741" x2="106.638" y2="133.998" gradientUnits="userSpaceOnUse">
<stop stop-color="#E6007A"/>
<stop offset="0.21" stop-color="#703AC2"/>
<stop offset="0.46" stop-color="#0070EB"/>
<stop offset="0.77" stop-color="#0297FB"/>
<stop offset="1" stop-color="#0AE2FF"/>
</linearGradient>
<linearGradient id="paint31_linear_30_1456" x1="27.2763" y1="117.875" x2="102.12" y2="121.006" gradientUnits="userSpaceOnUse">
<stop stop-color="#E60068"/>
<stop offset="0.21" stop-color="#703AC2"/>
<stop offset="0.46" stop-color="#0070EB"/>
<stop offset="0.77" stop-color="#0297FB"/>
<stop offset="1" stop-color="#0AE2FF"/>
</linearGradient>
<linearGradient id="paint32_linear_30_1456" x1="58.1702" y1="76.8796" x2="55.2427" y2="120.534" gradientUnits="userSpaceOnUse">
<stop stop-color="#E6007A"/>
<stop offset="0.21" stop-color="#703AC2"/>
<stop offset="0.46" stop-color="#0070EB"/>
<stop offset="0.77" stop-color="#0297FB"/>
<stop offset="1" stop-color="#0AE2FF"/>
</linearGradient>
<linearGradient id="paint33_linear_30_1456" x1="65.1547" y1="95.6726" x2="98.3229" y2="118.545" gradientUnits="userSpaceOnUse">
<stop stop-color="#E6C1FF"/>
<stop offset="0.40625" stop-color="#B6C7FF"/>
<stop offset="1" stop-color="#AFF1FF"/>
</linearGradient>
<linearGradient id="paint34_linear_30_1456" x1="60.18" y1="113.451" x2="65.305" y2="114.35" gradientUnits="userSpaceOnUse">
<stop stop-color="white" stop-opacity="0"/>
<stop offset="1" stop-color="white"/>
</linearGradient>
<radialGradient id="paint35_radial_30_1456" cx="0" cy="0" r="1" gradientUnits="userSpaceOnUse" gradientTransform="translate(78.304 122.081) rotate(-118.128) scale(7.42014 8.38065)">
<stop stop-color="white"/>
<stop offset="1" stop-color="white" stop-opacity="0"/>
</radialGradient>
<radialGradient id="paint36_radial_30_1456" cx="0" cy="0" r="1" gradientUnits="userSpaceOnUse" gradientTransform="translate(97.1308 124.311) rotate(-118.128) scale(4.32322 4.88285)">
<stop stop-color="white"/>
<stop offset="1" stop-color="white" stop-opacity="0"/>
</radialGradient>
<linearGradient id="paint37_linear_30_1456" x1="91.4091" y1="116.807" x2="89.9675" y2="112.915" gradientUnits="userSpaceOnUse">
<stop stop-color="white" stop-opacity="0"/>
<stop offset="1" stop-color="white"/>
</linearGradient>
<radialGradient id="paint38_radial_30_1456" cx="0" cy="0" r="1" gradientUnits="userSpaceOnUse" gradientTransform="translate(260.373 -47.1895) rotate(139.628) scale(7.42014 8.38066)">
<stop stop-color="white"/>
<stop offset="1" stop-color="white" stop-opacity="0"/>
</radialGradient>
<radialGradient id="paint39_radial_30_1456" cx="0" cy="0" r="1" gradientUnits="userSpaceOnUse" gradientTransform="translate(258.997 -65.7394) rotate(139.628) scale(4.32322 4.88285)">
<stop stop-color="white"/>
<stop offset="1" stop-color="white" stop-opacity="0"/>
</radialGradient>
<linearGradient id="paint40_linear_30_1456" x1="75.8742" y1="94.1868" x2="73.2632" y2="97.2926" gradientUnits="userSpaceOnUse">
<stop stop-color="white" stop-opacity="0"/>
<stop offset="1" stop-color="white"/>
</linearGradient>
<clipPath id="clip0_30_1456">
<rect width="150" height="150" fill="white"/>
</clipPath>
</defs>
</svg>
